<svg width="153" height="42" viewBox="0 0 153 42" fill="none" xmlns="http://www.w3.org/2000/svg">
<path d="M11.1755 41V15.92C11.1755 15 11.1755 14.06 11.1755 13.1C11.2155 12.1 11.2555 11.08 11.2955 10.04C9.93547 11.28 8.41547 12.36 6.73547 13.28C5.05547 14.2 3.33547 14.84 1.57547 15.2L0.495469 8.24C1.41547 8.16 2.43547 7.9 3.55547 7.46C4.71547 6.98 5.87547 6.42 7.03547 5.78C8.23547 5.1 9.31547 4.4 10.2755 3.68C11.2755 2.92 12.0355 2.16 12.5555 1.4H19.2755V41H11.1755ZM43.3964 41.6C38.3164 41.6 34.3964 39.88 31.6364 36.44C28.9164 33 27.5564 27.92 27.5564 21.2C27.5564 14.48 28.9164 9.4 31.6364 5.96C34.3964 2.52 38.3164 0.799999 43.3964 0.799999C48.4764 0.799999 52.3764 2.52 55.0964 5.96C57.8564 9.4 59.2364 14.48 59.2364 21.2C59.2364 27.92 57.8564 33 55.0964 36.44C52.3764 39.88 48.4764 41.6 43.3964 41.6ZM43.3964 34.94C45.1164 34.94 46.5164 34.46 47.5964 33.5C48.7164 32.5 49.5564 31 50.1164 29C50.6764 26.96 50.9564 24.36 50.9564 21.2C50.9564 18.04 50.6764 15.46 50.1164 13.46C49.5564 11.42 48.7164 9.92 47.5964 8.96C46.5164 7.96 45.1164 7.46 43.3964 7.46C41.6764 7.46 40.2564 7.96 39.1364 8.96C38.0164 9.92 37.1764 11.42 36.6164 13.46C36.0964 15.46 35.8364 18.04 35.8364 21.2C35.8364 24.36 36.0964 26.96 36.6164 29C37.1764 31 38.0164 32.5 39.1364 33.5C40.2564 34.46 41.6764 34.94 43.3964 34.94ZM66.3609 41V35.42C69.9609 32.98 73.0009 30.78 75.4809 28.82C78.0009 26.82 80.0209 24.98 81.5409 23.3C83.1009 21.58 84.2209 19.96 84.9009 18.44C85.6209 16.92 85.9809 15.4 85.9809 13.88C85.9809 12.04 85.4209 10.54 84.3009 9.38C83.1809 8.18 81.6009 7.58 79.5609 7.58C77.3209 7.58 75.5609 8.34 74.2809 9.86C73.0409 11.38 72.3609 13.54 72.2409 16.34L65.1009 13.64C65.3009 10.92 66.0209 8.62 67.2609 6.74C68.5409 4.82 70.2609 3.36 72.4209 2.36C74.6209 1.32 77.1409 0.799999 79.9809 0.799999C82.4209 0.799999 84.5209 1.14 86.2809 1.82C88.0809 2.5 89.5609 3.44 90.7209 4.64C91.9209 5.8 92.8209 7.14 93.4209 8.66C94.0209 10.18 94.3209 11.76 94.3209 13.4C94.3209 15.96 93.6809 18.38 92.4009 20.66C91.1609 22.94 89.2409 25.2 86.6409 27.44C84.0409 29.68 80.7409 32.04 76.7409 34.52V34.58C77.3409 34.54 78.0609 34.5 78.9009 34.46C79.7809 34.42 80.6809 34.4 81.6009 34.4C82.5209 34.36 83.3209 34.34 84.0009 34.34H94.9209V41H66.3609ZM117.206 25.16V41H114.206V32.744L114.374 28.112H114.326L109.934 41H107.222L102.854 28.112H102.806L102.974 32.744V41H99.9742V25.16H104.774L107.63 33.8L108.638 37.376H108.686L109.718 33.824L112.55 25.16H117.206ZM122.646 27.272C121.958 27.272 121.446 27.128 121.11 26.84C120.774 26.536 120.606 26.096 120.606 25.52C120.606 24.928 120.774 24.488 121.11 24.2C121.446 23.896 121.958 23.744 122.646 23.744C123.334 23.744 123.846 23.896 124.182 24.2C124.518 24.488 124.686 24.928 124.686 25.52C124.686 26.096 124.518 26.536 124.182 26.84C123.846 27.128 123.334 27.272 122.646 27.272ZM124.278 29V41H120.99V29H124.278ZM127.763 41V29H130.715L130.907 32.6L130.499 32.216C130.691 31.432 130.995 30.784 131.411 30.272C131.827 29.76 132.331 29.384 132.923 29.144C133.531 28.888 134.195 28.76 134.915 28.76C135.747 28.76 136.483 28.92 137.123 29.24C137.779 29.56 138.291 30.048 138.659 30.704C139.043 31.344 139.235 32.152 139.235 33.128V41H135.947V34.064C135.947 33.04 135.747 32.336 135.347 31.952C134.947 31.552 134.427 31.352 133.787 31.352C133.339 31.352 132.899 31.464 132.467 31.688C132.051 31.896 131.707 32.24 131.435 32.72C131.179 33.2 131.051 33.84 131.051 34.64V41H127.763ZM147.423 41.24C146.207 41.24 145.095 41.024 144.087 40.592C143.095 40.16 142.287 39.552 141.663 38.768L143.559 36.848C143.943 37.424 144.455 37.896 145.095 38.264C145.735 38.632 146.495 38.816 147.375 38.816C147.999 38.816 148.495 38.728 148.863 38.552C149.247 38.36 149.439 38.064 149.439 37.664C149.439 37.408 149.351 37.192 149.175 37.016C148.999 36.824 148.647 36.672 148.119 36.56L146.007 36.128C144.615 35.84 143.623 35.408 143.031 34.832C142.455 34.24 142.167 33.48 142.167 32.552C142.167 31.896 142.359 31.28 142.743 30.704C143.143 30.128 143.735 29.664 144.519 29.312C145.303 28.944 146.279 28.76 147.447 28.76C148.647 28.76 149.687 28.952 150.567 29.336C151.463 29.704 152.167 30.256 152.679 30.992L150.711 32.912C150.359 32.352 149.895 31.928 149.319 31.64C148.759 31.336 148.167 31.184 147.543 31.184C147.095 31.184 146.711 31.232 146.391 31.328C146.071 31.424 145.831 31.56 145.671 31.736C145.511 31.896 145.431 32.104 145.431 32.36C145.431 32.616 145.543 32.84 145.767 33.032C145.991 33.208 146.399 33.36 146.991 33.488L149.439 33.992C150.623 34.232 151.471 34.64 151.983 35.216C152.495 35.776 152.751 36.456 152.751 37.256C152.751 38.024 152.543 38.712 152.127 39.32C151.727 39.912 151.127 40.384 150.327 40.736C149.543 41.072 148.575 41.24 147.423 41.24Z" fill="url(#paint0_linear_182_54544)"/>
<defs>
<linearGradient id="paint0_linear_182_54544" x1="76.5" y1="29" x2="76.5" y2="45" gradientUnits="userSpaceOnUse">
<stop stop-color="white"/>
<stop offset="1" stop-color="white" stop-opacity="0"/>
</linearGradient>
</defs>
</svg>
