<svg width="199" height="42" viewBox="0 0 199 42" fill="none" xmlns="http://www.w3.org/2000/svg">
<path d="M15.326 41.6C11.846 41.6 8.90602 40.88 6.50602 39.44C4.14602 38 2.20602 35.8 0.686016 32.84L8.12602 29.12C8.64602 30.88 9.46602 32.3 10.586 33.38C11.706 34.46 13.346 35 15.506 35C16.986 35 18.246 34.74 19.286 34.22C20.326 33.7 21.126 32.94 21.686 31.94C22.286 30.94 22.586 29.72 22.586 28.28C22.586 26.84 22.306 25.64 21.746 24.68C21.226 23.68 20.466 22.94 19.466 22.46C18.466 21.94 17.206 21.68 15.686 21.68C14.646 21.68 13.666 21.78 12.746 21.98C11.866 22.18 11.066 22.5 10.346 22.94C9.62602 23.34 8.98602 23.88 8.42602 24.56L1.94602 23.36L4.40602 1.4H28.346V8.06H10.646L9.44602 17.72L9.26602 18.5H9.38602C10.226 17.54 11.366 16.8 12.806 16.28C14.286 15.76 15.966 15.5 17.846 15.5C20.446 15.5 22.666 16.02 24.506 17.06C26.346 18.1 27.766 19.56 28.766 21.44C29.766 23.28 30.266 25.4 30.266 27.8C30.266 30.08 29.886 32.1 29.126 33.86C28.366 35.58 27.286 37.02 25.886 38.18C24.526 39.3 22.946 40.16 21.146 40.76C19.346 41.32 17.406 41.6 15.326 41.6ZM52.1679 41.6C47.0879 41.6 43.1679 39.88 40.4079 36.44C37.6879 33 36.3279 27.92 36.3279 21.2C36.3279 14.48 37.6879 9.4 40.4079 5.96C43.1679 2.52 47.0879 0.799999 52.1679 0.799999C57.2479 0.799999 61.1479 2.52 63.8679 5.96C66.6279 9.4 68.0079 14.48 68.0079 21.2C68.0079 27.92 66.6279 33 63.8679 36.44C61.1479 39.88 57.2479 41.6 52.1679 41.6ZM52.1679 34.94C53.8879 34.94 55.2879 34.46 56.3679 33.5C57.4879 32.5 58.3279 31 58.8879 29C59.4479 26.96 59.7279 24.36 59.7279 21.2C59.7279 18.04 59.4479 15.46 58.8879 13.46C58.3279 11.42 57.4879 9.92 56.3679 8.96C55.2879 7.96 53.8879 7.46 52.1679 7.46C50.4479 7.46 49.0279 7.96 47.9079 8.96C46.7879 9.92 45.9479 11.42 45.3879 13.46C44.8679 15.46 44.6079 18.04 44.6079 21.2C44.6079 24.36 44.8679 26.96 45.3879 29C45.9479 31 46.7879 32.5 47.9079 33.5C49.0279 34.46 50.4479 34.94 52.1679 34.94ZM90.3124 41.6C85.2324 41.6 81.3124 39.88 78.5524 36.44C75.8324 33 74.4724 27.92 74.4724 21.2C74.4724 14.48 75.8324 9.4 78.5524 5.96C81.3124 2.52 85.2324 0.799999 90.3124 0.799999C95.3924 0.799999 99.2924 2.52 102.012 5.96C104.772 9.4 106.152 14.48 106.152 21.2C106.152 27.92 104.772 33 102.012 36.44C99.2924 39.88 95.3924 41.6 90.3124 41.6ZM90.3124 34.94C92.0324 34.94 93.4324 34.46 94.5124 33.5C95.6324 32.5 96.4724 31 97.0324 29C97.5924 26.96 97.8724 24.36 97.8724 21.2C97.8724 18.04 97.5924 15.46 97.0324 13.46C96.4724 11.42 95.6324 9.92 94.5124 8.96C93.4324 7.96 92.0324 7.46 90.3124 7.46C88.5924 7.46 87.1724 7.96 86.0524 8.96C84.9324 9.92 84.0924 11.42 83.5324 13.46C83.0124 15.46 82.7524 18.04 82.7524 21.2C82.7524 24.36 83.0124 26.96 83.5324 29C84.0924 31 84.9324 32.5 86.0524 33.5C87.1724 34.46 88.5924 34.94 90.3124 34.94ZM128.457 41.6C123.377 41.6 119.457 39.88 116.697 36.44C113.977 33 112.617 27.92 112.617 21.2C112.617 14.48 113.977 9.4 116.697 5.96C119.457 2.52 123.377 0.799999 128.457 0.799999C133.537 0.799999 137.437 2.52 140.157 5.96C142.917 9.4 144.297 14.48 144.297 21.2C144.297 27.92 142.917 33 140.157 36.44C137.437 39.88 133.537 41.6 128.457 41.6ZM128.457 34.94C130.177 34.94 131.577 34.46 132.657 33.5C133.777 32.5 134.617 31 135.177 29C135.737 26.96 136.017 24.36 136.017 21.2C136.017 18.04 135.737 15.46 135.177 13.46C134.617 11.42 133.777 9.92 132.657 8.96C131.577 7.96 130.177 7.46 128.457 7.46C126.737 7.46 125.317 7.96 124.197 8.96C123.077 9.92 122.237 11.42 121.677 13.46C121.157 15.46 120.897 18.04 120.897 21.2C120.897 24.36 121.157 26.96 121.677 29C122.237 31 123.077 32.5 124.197 33.5C125.317 34.46 126.737 34.94 128.457 34.94ZM166.817 25.16V41H163.817V32.744L163.985 28.112H163.937L159.545 41H156.833L152.465 28.112H152.417L152.585 32.744V41H149.585V25.16H154.385L157.241 33.8L158.249 37.376H158.297L159.329 33.824L162.161 25.16H166.817ZM184.689 41H181.257L179.937 37.136H173.865L172.545 41H169.161L174.945 25.16H178.905L184.689 41ZM174.609 34.688H179.193L176.889 27.776L174.609 34.688ZM186.703 41V23.744H189.991V31.04C190.375 30.272 190.903 29.704 191.575 29.336C192.247 28.952 193.007 28.76 193.855 28.76C194.687 28.76 195.423 28.92 196.063 29.24C196.719 29.56 197.231 30.048 197.599 30.704C197.983 31.344 198.175 32.152 198.175 33.128V41H194.887V34.088C194.887 33.048 194.687 32.336 194.287 31.952C193.887 31.552 193.375 31.352 192.751 31.352C192.287 31.352 191.839 31.464 191.407 31.688C190.991 31.896 190.647 32.248 190.375 32.744C190.119 33.224 189.991 33.864 189.991 34.664V41H186.703Z" fill="url(#paint0_linear_182_54545)"/>
<defs>
<linearGradient id="paint0_linear_182_54545" x1="99" y1="-6" x2="99" y2="18.5" gradientUnits="userSpaceOnUse">
<stop stop-color="white" stop-opacity="0"/>
<stop offset="1" stop-color="white"/>
</linearGradient>
</defs>
</svg>
