<svg width="18" height="18" viewBox="0 0 18 18" fill="none" xmlns="http://www.w3.org/2000/svg">
<path d="M4.90973 2.74146C5.44457 2.56957 6.00853 2.5136 6.565 2.57349L6.80328 2.60571C7.43653 2.71263 8.03575 2.9705 8.55035 3.35767C8.78711 3.53574 9.10277 3.55624 9.35699 3.41919L9.46149 3.35083C10.42 2.60579 11.8452 2.34247 13.0836 2.74146V2.74243C15.3055 3.46199 16.2578 5.88284 15.6177 8.22485L15.5504 8.45142L15.5494 8.45532C14.9531 10.361 13.2836 12.1245 11.6597 13.4524C10.8616 14.105 10.1016 14.6304 9.54156 14.9924C9.3288 15.13 9.14443 15.2418 8.99957 15.3293C8.85639 15.2432 8.67493 15.1332 8.46539 14.9983C7.90908 14.6402 7.15318 14.1203 6.35797 13.4709C4.84278 12.2336 3.27796 10.6045 2.57867 8.81177L2.45074 8.45044C1.68268 6.03853 2.61804 3.48469 4.91071 2.74243L4.90973 2.74146Z" stroke="#029FAE" stroke-width="1.5" stroke-linecap="round" stroke-linejoin="round"/>
</svg>
