<svg width="44" height="44" viewBox="0 0 44 44" fill="none" xmlns="http://www.w3.org/2000/svg">
<rect width="44" height="44" rx="22" fill="white"/>
<path d="M25.0769 14V15.2308H26.6769C27.2374 15.2322 27.7909 15.1059 28.2954 14.8615L28.3692 14.8246L14.8308 28.3631V28.3262C15.0867 27.8223 15.2235 27.2665 15.2308 26.7015V25.0769H14V30H18.9231V28.7692H17.2985C16.7539 28.7685 16.2159 28.8883 15.7231 29.12L15.6554 29.1508L29.1938 15.6123V15.6738C28.9257 16.183 28.7803 16.7478 28.7692 17.3231V18.9231H30V14H25.0769Z" fill="#029FAE"/>
<path d="M21.1385 20.3323L15.6615 14.8554H15.6985C16.1931 15.0973 16.7355 15.2256 17.2862 15.2308H18.9231V14H14V18.9231H15.2308V17.2862C15.2307 16.7483 15.1131 16.2169 14.8862 15.7292L14.8554 15.6615L20.3323 21.1385L21.1385 20.3323Z" fill="#029FAE"/>
<path d="M28.7692 25.0769V26.72C28.7693 27.2579 28.8869 27.7893 29.1138 28.2769L29.1384 28.3262L23.6677 22.8554L22.8615 23.6616L28.3323 29.1323H28.283C27.7949 28.8982 27.2613 28.7742 26.72 28.7693H25.0769V30H30V25.0769H28.7692Z" fill="#029FAE"/>
</svg>
