<svg width="22" height="21" viewBox="0 0 22 21" fill="none" xmlns="http://www.w3.org/2000/svg">
<g clip-path="url(#clip0_182_54277)">
<path d="M20.1036 10.7719C20.0191 10.5991 20.0191 10.4008 20.1036 10.228L20.8868 8.6257C21.3229 7.73357 20.9774 6.67025 20.1003 6.20484L18.5249 5.36895C18.3549 5.2788 18.2384 5.11835 18.2051 4.9289L17.897 3.17225C17.7254 2.1942 16.8207 1.53697 15.8377 1.67605L14.0719 1.92583C13.8813 1.95274 13.6928 1.89146 13.5545 1.75771L12.2728 0.517733C11.559 -0.17272 10.441 -0.172761 9.7273 0.517733L8.44549 1.75783C8.30718 1.89163 8.11872 1.95278 7.92816 1.92596L6.16233 1.67617C5.17898 1.53701 4.27459 2.19432 4.10303 3.17237L3.79492 4.92894C3.76165 5.11843 3.64513 5.27884 3.4752 5.36903L1.8998 6.20493C1.02265 6.67029 0.677133 7.73369 1.11321 8.62582L1.8964 10.228C1.98089 10.4009 1.98089 10.5992 1.8964 10.772L1.11317 12.3743C0.677092 13.2664 1.02261 14.3297 1.89976 14.7951L3.47516 15.631C3.64513 15.7212 3.76165 15.8816 3.79492 16.0711L4.10303 17.8277C4.25921 18.7181 5.02267 19.3425 5.90011 19.3424C5.98653 19.3424 6.07422 19.3363 6.16237 19.3239L7.9282 19.0741C8.11864 19.047 8.30723 19.1084 8.44553 19.2422L9.7273 20.4822C10.0842 20.8274 10.542 21 11 21C11.4579 21 11.916 20.8274 12.2727 20.4822L13.5545 19.2422C13.6928 19.1084 13.8813 19.0473 14.0719 19.0741L15.8377 19.3239C16.8212 19.463 17.7254 18.8057 17.897 17.8277L18.2051 16.0711C18.2384 15.8816 18.3549 15.7212 18.5249 15.631L20.1003 14.7951C20.9774 14.3297 21.3229 13.2663 20.8868 12.3742L20.1036 10.7719ZM19.5326 13.7251L17.9572 14.561C17.4549 14.8276 17.1104 15.3016 17.0122 15.8618L16.7041 17.6184C16.646 17.9493 16.3401 18.1715 16.0073 18.1246L14.2415 17.8748C13.6784 17.795 13.1211 17.9763 12.7124 18.3716L11.4306 19.6115C11.1892 19.8451 10.8109 19.8451 10.5694 19.6115L9.28762 18.3716C8.94218 18.0374 8.49061 17.8563 8.01917 17.8563C7.9328 17.8563 7.84572 17.8624 7.75852 17.8747L5.99269 18.1245C5.66022 18.1715 5.35404 17.9492 5.29596 17.6183L4.98781 15.8617C4.88954 15.3016 4.54509 14.8275 4.04277 14.561L2.46737 13.7251C2.17059 13.5676 2.05369 13.2079 2.20122 12.9061L2.98445 11.3038C3.23416 10.7929 3.23416 10.207 2.98445 9.69607L2.20122 8.09381C2.05369 7.79198 2.17059 7.43223 2.46737 7.27477L4.04277 6.43888C4.54505 6.17232 4.88954 5.69826 4.98777 5.13816L5.29588 3.38155C5.35395 3.05064 5.65985 2.82834 5.9926 2.87534L7.75844 3.12512C8.32138 3.20482 8.87882 3.02365 9.28753 2.6283L10.5693 1.38833C10.8108 1.15478 11.189 1.15478 11.4305 1.38833L12.7123 2.6283C13.121 3.02369 13.6784 3.20482 14.2414 3.12512L16.0072 2.87534C16.3398 2.82829 16.6459 3.05064 16.704 3.38155L17.0121 5.1382C17.1104 5.6983 17.4548 6.1724 17.9571 6.43888L19.5325 7.27477C19.8293 7.43223 19.9462 7.79198 19.7987 8.09381L19.0154 9.69603C18.7657 10.2069 18.7657 10.7929 19.0154 11.3038L19.7987 12.906C19.9462 13.2079 19.8293 13.5677 19.5326 13.7251Z" fill="#029FAE"/>
<path d="M15.4249 6.07508C15.1885 5.83858 14.805 5.83858 14.5685 6.07508L6.57502 14.0686C6.33852 14.3051 6.33852 14.6885 6.57502 14.925C6.69326 15.0433 6.84826 15.1024 7.00322 15.1024C7.15817 15.1024 7.31321 15.0433 7.43142 14.925L15.4249 6.93156C15.6614 6.69502 15.6614 6.31161 15.4249 6.07508Z" fill="#029FAE"/>
<path d="M8.57759 5.04968C7.3532 5.04968 6.35706 6.04582 6.35706 7.27022C6.35706 8.49461 7.3532 9.49075 8.57759 9.49075C9.80198 9.49075 10.7981 8.49461 10.7981 7.27022C10.7981 6.04582 9.80198 5.04968 8.57759 5.04968ZM8.57759 8.27952C8.02105 8.27952 7.56828 7.82675 7.56828 7.27017C7.56828 6.71364 8.02105 6.26087 8.57759 6.26087C9.13413 6.26087 9.58694 6.71364 9.58694 7.27017C9.58689 7.82675 9.13413 8.27952 8.57759 8.27952Z" fill="#029FAE"/>
<path d="M13.4224 11.5093C12.198 11.5093 11.2018 12.5054 11.2018 13.7298C11.2018 14.9542 12.198 15.9503 13.4224 15.9503C14.6468 15.9503 15.6429 14.9542 15.6429 13.7298C15.6429 12.5054 14.6468 11.5093 13.4224 11.5093ZM13.4224 14.7391C12.8658 14.7391 12.413 14.2863 12.413 13.7298C12.413 13.1733 12.8658 12.7205 13.4224 12.7205C13.9789 12.7205 14.4317 13.1733 14.4317 13.7298C14.4317 14.2863 13.9789 14.7391 13.4224 14.7391Z" fill="#029FAE"/>
</g>
<defs>
<clipPath id="clip0_182_54277">
<rect width="21" height="21" fill="white" transform="translate(0.5)"/>
</clipPath>
</defs>
</svg>
