<svg width="38" height="38" viewBox="0 0 38 38" fill="none" xmlns="http://www.w3.org/2000/svg">
<path d="M30.875 15.8608V8.55831L34.4375 4.99581V17.2188H35.625V3.5625H35.6197C35.6197 3.48591 35.6102 3.40872 35.5799 3.33509C35.4884 3.11303 35.2711 2.96875 35.0312 2.96875H6.53125C6.37331 2.96875 6.2225 3.03109 6.11147 3.14272L1.36206 7.89213C1.25459 7.99959 1.1875 8.14803 1.1875 8.3125V30.875C1.1875 31.2033 1.45291 31.4688 1.78125 31.4688H30.2812C30.6096 31.4688 30.875 31.2033 30.875 30.875V23.7738C31.6219 24.868 32.0625 26.1873 32.0625 27.6094C32.0625 31.3743 28.9993 34.4375 25.2344 34.4375C24.906 34.4375 24.6406 34.7029 24.6406 35.0312C24.6406 35.3596 24.906 35.625 25.2344 35.625H26.4219C32.151 35.625 36.8125 30.9635 36.8125 25.2344C36.8125 21.1001 34.3793 17.5322 30.875 15.8608ZM30.0354 7.71875H19.2458L22.8083 4.15625H33.5979L30.0354 7.71875ZM17.3927 7.89272C17.2811 8.00375 17.2188 8.15456 17.2188 8.3125V12.4688H14.8438V8.55831L19.2458 4.15625H21.1292L17.3927 7.89272ZM6.77706 4.15625H17.5667L14.0042 7.71875H3.21456L6.77706 4.15625ZM2.375 30.2812V8.90625H13.6562V13.0625C13.6562 13.3908 13.9217 13.6562 14.25 13.6562H17.8125C18.1408 13.6562 18.4062 13.3908 18.4062 13.0625V8.90625H29.6875V15.3775C28.6591 15.0355 27.5637 14.8438 26.4219 14.8438H25.5312V11.875C25.5312 11.6523 25.4072 11.4487 25.2094 11.3466C25.0105 11.2444 24.773 11.2617 24.5925 11.3917L16.28 17.3292C16.1239 17.4408 16.0312 17.6207 16.0312 17.8125C16.0312 18.0043 16.1239 18.1842 16.28 18.2952L24.5925 24.2327C24.773 24.3622 25.0105 24.3782 25.2094 24.2778C25.4072 24.1763 25.5312 23.9727 25.5312 23.75V20.7878C27.1154 20.8561 28.5612 21.4664 29.6875 22.4378V30.2812H2.375ZM30.9035 33.2708C32.3528 31.8197 33.25 29.8175 33.25 27.6094C33.25 23.1895 29.6542 19.5938 25.2344 19.5938H24.9375C24.6092 19.5938 24.3438 19.8592 24.3438 20.1875V22.5963L17.6468 17.8125L24.3438 13.0287V15.4375C24.3438 15.7658 24.6092 16.0312 24.9375 16.0312H26.4219C31.4967 16.0312 35.625 20.1596 35.625 25.2344C35.625 28.6835 33.7185 31.695 30.9035 33.2708Z" fill="#1E1E1E"/>
<path d="M3.5625 27.9062H10.6875V29.0938H3.5625V27.9062Z" fill="#1E1E1E"/>
<path d="M3.5625 25.5312H10.6875V26.7188H3.5625V25.5312Z" fill="#1E1E1E"/>
</svg>
