<svg width="41" height="40" viewBox="0 0 41 40" fill="none" xmlns="http://www.w3.org/2000/svg">
<path d="M38.4753 11.4282C38.3365 11.1358 37.9867 11.0115 37.6947 11.1504C37.4023 11.2892 37.2779 11.6387 37.4168 11.9311C38.619 14.4616 39.2285 17.1765 39.2285 20.0001C39.2285 25.0294 37.2701 29.7575 33.7139 33.3137C30.1578 36.8698 25.4296 38.8283 20.4004 38.8283C17.4178 38.8283 14.5654 38.1514 11.9228 36.8165C9.72081 35.7041 7.73151 34.1425 6.1162 32.2659L8.428 33.0365C8.73495 33.1389 9.06682 32.973 9.16917 32.6659C9.27151 32.3589 9.10557 32.0271 8.79854 31.9247L4.63838 30.538C4.44573 30.4739 4.23354 30.5139 4.07768 30.644C3.92182 30.7742 3.8444 30.9758 3.87307 31.1768L4.56643 36.0303C4.60823 36.3226 4.85885 36.5334 5.1458 36.5334C5.17338 36.5334 5.20127 36.5315 5.2294 36.5275C5.54979 36.4817 5.77237 36.1849 5.72659 35.8646L5.33971 33.1565C7.03495 35.0925 9.10589 36.7064 11.3945 37.8625C14.2025 39.2809 17.2325 40.0001 20.4004 40.0001C25.7425 40.0001 30.765 37.9198 34.5426 34.1423C38.32 30.3647 40.4004 25.3423 40.4004 20.0001C40.4004 17.0011 39.7527 14.1172 38.4753 11.4282Z" fill="#1E1E1E"/>
<path d="M36.9273 8.82344L36.2339 3.96992C36.1881 3.64953 35.8906 3.42711 35.571 3.47274C35.2506 3.51852 35.028 3.81531 35.0738 4.13563L35.4603 6.84094C31.6552 2.48125 26.2232 0 20.3999 0C15.0577 0 10.0353 2.08039 6.25772 5.85782C2.48029 9.6354 0.399902 14.6578 0.399902 20C0.399902 22.9991 1.04764 25.8831 2.32498 28.572C2.42529 28.7831 2.63545 28.9067 2.85467 28.9067C2.93889 28.9067 3.02451 28.8884 3.10568 28.8498C3.39795 28.711 3.52233 28.3614 3.3835 28.0691C2.18131 25.5387 1.57178 22.8238 1.57178 20C1.57178 14.9708 3.53022 10.2427 7.08639 6.68649C10.6426 3.13031 15.3707 1.17188 20.3999 1.17188C25.9355 1.17188 31.0955 3.55422 34.6824 7.73368L32.3723 6.96368C32.0652 6.86118 31.7334 7.02727 31.6312 7.3343C31.5289 7.64133 31.6947 7.97313 32.0017 8.07547L36.1619 9.46219C36.2225 9.48235 36.285 9.49227 36.3471 9.49227C36.4824 9.49227 36.6157 9.4454 36.7227 9.35618C36.8785 9.22602 36.9559 9.02446 36.9273 8.82344Z" fill="#1E1E1E"/>
<path d="M18.7716 26.303H12.8775C13.1129 24.2522 14.5701 22.8763 16.1053 21.4268C17.7042 19.9171 19.3575 18.356 19.3575 16.0118C19.3575 14.0893 17.6337 12.5253 15.515 12.5253C13.3962 12.5253 11.6725 14.0893 11.6725 16.0118C11.6725 16.3353 11.9348 16.5977 12.2584 16.5977C12.582 16.5977 12.8444 16.3353 12.8444 16.0118C12.8444 14.7355 14.0423 13.6971 15.515 13.6971C16.9876 13.6971 18.1856 14.7355 18.1856 16.0118C18.1856 17.8508 16.7843 19.1739 15.3008 20.5747C13.6001 22.1805 11.6725 24.0006 11.6725 26.8889C11.6725 27.2125 11.9348 27.4749 12.2584 27.4749H18.7716C19.0951 27.4749 19.3575 27.2125 19.3575 26.8889C19.3575 26.5654 19.0951 26.303 18.7716 26.303Z" fill="#1E1E1E"/>
<path d="M28.5415 22.5454H27.875V13.1112C27.875 12.7876 27.6127 12.5253 27.289 12.5253C26.9654 12.5253 26.7031 12.7876 26.7031 13.1112V22.5454H21.7325L23.4811 13.2193C23.5408 12.9012 23.3312 12.595 23.0132 12.5353C22.6954 12.476 22.389 12.6852 22.3293 13.0032L20.4506 23.0234C20.4185 23.1947 20.4643 23.3714 20.5756 23.5056C20.6869 23.6397 20.8522 23.7173 21.0265 23.7173H26.7031V26.8889C26.7031 27.2125 26.9654 27.4748 27.289 27.4748C27.6127 27.4748 27.875 27.2125 27.875 26.8889V23.7172H28.5415C28.8652 23.7172 29.1275 23.4549 29.1275 23.1313C29.1275 22.8077 28.8652 22.5454 28.5415 22.5454Z" fill="#1E1E1E"/>
<path d="M20.3999 3.13123C20.0763 3.13123 19.814 3.39357 19.814 3.71716V6.22216C19.814 6.54576 20.0763 6.8081 20.3999 6.8081C20.7236 6.8081 20.9858 6.54576 20.9858 6.22216V3.71716C20.9858 3.39357 20.7236 3.13123 20.3999 3.13123Z" fill="#1E1E1E"/>
<path d="M20.3999 33.1919C20.0763 33.1919 19.814 33.4542 19.814 33.7778V36.2828C19.814 36.6064 20.0763 36.8688 20.3999 36.8688C20.7236 36.8688 20.9858 36.6064 20.9858 36.2828V33.7778C20.9858 33.4542 20.7236 33.1919 20.3999 33.1919Z" fill="#1E1E1E"/>
<path d="M36.6824 19.4141H34.1774C33.8537 19.4141 33.5914 19.6764 33.5914 20C33.5914 20.3236 33.8537 20.5859 34.1774 20.5859H36.6824C37.006 20.5859 37.2683 20.3236 37.2683 20C37.2683 19.6764 37.006 19.4141 36.6824 19.4141Z" fill="#1E1E1E"/>
<path d="M6.62231 19.4141H4.11731C3.79372 19.4141 3.53137 19.6764 3.53137 20C3.53137 20.3236 3.79372 20.5859 4.11731 20.5859H6.62231C6.9459 20.5859 7.20825 20.3236 7.20825 20C7.20825 19.6764 6.9459 19.4141 6.62231 19.4141Z" fill="#1E1E1E"/>
</svg>
