<svg width="38" height="38" viewBox="0 0 38 38" fill="none" xmlns="http://www.w3.org/2000/svg">
<path d="M37.2061 5.28665C37.1931 5.04588 37.0266 4.84082 36.7935 4.77877L18.9294 0.0187588C18.8353 -0.00625292 18.7365 -0.00625292 18.6425 0.0187588L0.80614 4.77884C0.573539 4.84096 0.407141 5.04551 0.393782 5.2859C0.381387 5.50856 0.114868 10.8171 2.20241 17.5286C3.42932 21.473 5.22037 25.0744 7.52589 28.2328C10.4099 32.1838 14.1089 35.4457 18.5202 37.9284C18.6049 37.9761 18.699 38 18.7932 38C18.8828 38 18.9726 37.9783 19.0543 37.935C23.4729 35.5879 27.1782 32.4086 30.0668 28.4855C32.3749 25.3508 34.168 21.7388 35.3962 17.75C37.4848 10.9662 37.2185 5.51546 37.2061 5.28665ZM34.3205 17.4599C33.1271 21.3224 31.3895 24.8162 29.1562 27.8446C26.5512 31.3767 23.2571 34.2841 19.3567 36.4979V33.6342C24.4131 30.442 28.2266 25.9231 30.6918 20.1971C32.7216 15.4825 33.3831 11.0071 33.5805 8.08291C33.5984 7.8172 33.4257 7.57599 33.1683 7.50749L32.0332 7.20505C31.7362 7.12593 31.4311 7.3025 31.3519 7.59967C31.2728 7.89669 31.4494 8.2018 31.7465 8.28092L32.4358 8.46461C32.2074 11.2995 31.5338 15.4258 29.6692 19.7568C27.3078 25.2418 23.6668 29.5753 18.844 32.6426C18.3599 32.3225 17.8838 31.9884 17.425 31.6469C17.1785 31.4633 16.8297 31.5142 16.646 31.7609C16.4624 32.0074 16.5134 32.3563 16.76 32.5399C17.2394 32.8969 17.7373 33.2449 18.2432 33.5789V36.4798C14.341 34.1454 11.0461 31.161 8.44026 27.597C6.20755 24.5433 4.47068 21.0577 3.27784 17.2373C1.56094 11.738 1.477 7.10211 1.49481 5.7474L18.2432 1.27765V3.82031L4.43944 7.50422C4.18145 7.5731 4.00867 7.81542 4.02767 8.08179C4.17143 10.0936 4.57607 13.2236 5.68779 16.711C7.52567 22.4765 10.6124 27.2864 14.8623 31.0072C14.9679 31.0997 15.0986 31.145 15.2288 31.145C15.3837 31.145 15.5378 31.0807 15.6479 30.955C15.8505 30.7237 15.8271 30.3719 15.5958 30.1695C11.5007 26.5843 8.52406 21.9424 6.7486 16.373C5.75125 13.2443 5.34053 10.4123 5.1742 8.46068L18.7869 4.82783L29.3404 7.6399C29.6375 7.71894 29.9425 7.54245 30.0216 7.24528C30.1007 6.94825 29.9242 6.64314 29.627 6.56402L19.3566 3.82736V1.28485L36.1049 5.74762C36.1233 7.12549 36.043 11.8855 34.3205 17.4599Z" fill="#1E1E1E"/>
<path d="M27.1752 13.0074C26.8455 12.6771 26.4068 12.4954 25.9399 12.4954C25.473 12.4954 25.0343 12.6771 24.7049 13.0071L17.6098 20.1019L13.7363 16.2287C13.4067 15.8986 12.9679 15.7167 12.5011 15.7167C12.0342 15.7167 11.5955 15.8985 11.2662 16.2283C10.9362 16.5582 10.7543 16.9969 10.7543 17.4636C10.7543 17.9302 10.936 18.3688 11.266 18.6986L16.3744 23.807C16.7042 24.1371 17.1428 24.319 17.6097 24.319C18.0766 24.319 18.5152 24.1372 18.8448 23.8072L27.1748 15.4772C27.5048 15.1475 27.6867 14.7088 27.6867 14.2421C27.6867 13.7754 27.5049 13.3368 27.1752 13.0074ZM26.3876 14.6898L18.0572 23.0202C17.9379 23.1396 17.779 23.2055 17.6097 23.2055C17.4404 23.2055 17.2815 23.1396 17.1619 23.0199L12.0532 17.9111C11.9336 17.7916 11.8677 17.6327 11.8677 17.4635C11.8677 17.2943 11.9336 17.1354 12.0535 17.0154C12.1729 16.8959 12.3319 16.8301 12.5011 16.8301C12.6702 16.8301 12.8291 16.8959 12.9488 17.0156L17.2162 21.2827C17.4336 21.5001 17.7861 21.5 18.0034 21.2827L25.4925 13.794C25.6118 13.6745 25.7708 13.6086 25.94 13.6086C26.1092 13.6086 26.268 13.6745 26.3878 13.7943C26.5074 13.9138 26.5733 14.0728 26.5733 14.2419C26.5733 14.4111 26.5073 14.5701 26.3876 14.6898Z" fill="#1E1E1E"/>
</svg>
