<svg width="45" height="26" viewBox="0 0 45 26" fill="none" xmlns="http://www.w3.org/2000/svg">
<path d="M10.3877 20.4807C9.66359 20.4807 9.07452 21.0698 9.07452 21.7939C9.07452 22.5181 9.66359 23.1071 10.3877 23.1071C11.1119 23.1071 11.7009 22.5181 11.7009 21.7939C11.7009 21.0698 11.1119 20.4807 10.3877 20.4807Z" fill="#1E1E1E"/>
<path d="M37.526 20.4807C36.8019 20.4807 36.2128 21.0698 36.2128 21.7939C36.2128 22.5181 36.8019 23.1071 37.526 23.1071C38.2502 23.1071 38.8393 22.5181 38.8393 21.7939C38.8393 21.0698 38.2502 20.4807 37.526 20.4807Z" fill="#1E1E1E"/>
<path d="M42.9049 12.0624L38.0177 10.4333L35.7335 4.15181C35.4483 3.36766 34.6962 2.8408 33.8617 2.8408H27.9839V1.44016C27.9839 0.716019 27.3949 0.126953 26.6707 0.126953H2.24644C1.52229 0.126953 0.933228 0.716103 0.933228 1.44025V19.7585C0.933228 20.4826 1.52229 21.0717 2.24644 21.0717H6.42694C6.38428 21.3061 6.36084 21.5473 6.36084 21.7938C6.36084 24.0143 8.16739 25.8209 10.3879 25.8209C12.6084 25.8209 14.415 24.0143 14.415 21.7938C14.415 21.5472 14.3915 21.3061 14.3489 21.0717H33.5652C33.5225 21.3061 33.4991 21.5473 33.4991 21.7938C33.4991 24.0143 35.3056 25.8209 37.5261 25.8209C39.7466 25.8209 41.5532 24.0143 41.5532 21.7938C41.5532 21.4802 41.5159 21.1751 41.4478 20.882L42.7911 20.2104C43.7012 19.7551 44.2668 18.8399 44.2668 17.822V13.9519C44.2668 13.0933 43.7195 12.334 42.9049 12.0624ZM2.20277 1.44025C2.20277 1.41613 2.22232 1.39649 2.24644 1.39649H26.6707C26.6949 1.39649 26.7144 1.41604 26.7144 1.44016V15.0529H2.20277V1.44025ZM10.3878 24.5513C8.86733 24.5513 7.63029 23.3143 7.63029 21.7938C7.63029 20.2733 8.86733 19.0363 10.3878 19.0363C11.9083 19.0363 13.1453 20.2733 13.1453 21.7938C13.1454 23.3143 11.9084 24.5513 10.3878 24.5513ZM26.7144 19.8021H13.8857C13.1915 18.5876 11.8841 17.7668 10.3878 17.7668C8.89154 17.7668 7.58425 18.5876 6.88998 19.8021H2.24644C2.22232 19.8021 2.20277 19.7825 2.20277 19.7584V16.3224H26.7144V19.8021ZM35.3545 6.82419L36.6198 10.3038H35.2568L33.9915 6.82419H35.3545ZM27.9839 4.11034H33.8617C34.1643 4.11034 34.437 4.30136 34.5404 4.58565L34.8928 5.55457H27.9839V4.11034ZM27.9839 6.82419H32.6406L33.9059 10.3038H27.9839V6.82419ZM37.526 24.5513C36.0055 24.5513 34.7684 23.3143 34.7684 21.7938C34.7684 20.2733 36.0055 19.0363 37.526 19.0363C39.0464 19.0363 40.2835 20.2733 40.2835 21.7938C40.2835 23.3143 39.0464 24.5513 37.526 24.5513ZM42.9972 15.0528H42.2751C41.9246 15.0528 41.6404 15.337 41.6404 15.6876C41.6404 16.0382 41.9246 16.3224 42.2751 16.3224H42.9972V17.8219C42.9972 18.356 42.7006 18.836 42.2231 19.0748L40.9665 19.7031C40.2589 18.543 38.9814 17.7668 37.526 17.7668C36.0297 17.7668 34.7224 18.5876 34.0281 19.8021H27.9839V16.3224H39.5614C39.9119 16.3224 40.1961 16.0382 40.1961 15.6877C40.1961 15.3371 39.9119 15.0529 39.5614 15.0529H27.9839V11.5733H37.423L42.5035 13.2668C42.7989 13.3652 42.9972 13.6405 42.9972 13.9518V15.0528Z" fill="#1E1E1E"/>
<path d="M22.2365 7.67347L17.4873 4.95971C17.1831 4.78578 16.7953 4.89157 16.6212 5.19592C16.4473 5.50036 16.553 5.88808 16.8575 6.062L19.5313 7.58993H6.99561C6.64505 7.58993 6.36084 7.87414 6.36084 8.2247C6.36084 8.57526 6.64505 8.85939 6.99561 8.85939H19.5313L16.8575 10.3873C16.5531 10.5612 16.4473 10.949 16.6212 11.2534C16.7384 11.4584 16.9526 11.5733 17.173 11.5733C17.2798 11.5733 17.388 11.5463 17.4873 11.4895L22.2365 8.77577C22.4342 8.66278 22.5563 8.45246 22.5563 8.22462C22.5563 7.99678 22.4343 7.78654 22.2365 7.67347Z" fill="#1E1E1E"/>
</svg>
