<svg width="39" height="42" viewBox="0 0 39 42" fill="none" xmlns="http://www.w3.org/2000/svg">
<path d="M37.8644 9.67539L19.4581 0.789618C19.295 0.710915 19.1049 0.710915 18.9418 0.789618L0.535523 9.67539C0.330295 9.77444 0.19989 9.98228 0.19989 10.2102V31.7899C0.19989 32.0178 0.330295 32.2256 0.535523 32.3247L18.9417 41.2104C19.0233 41.2498 19.1117 41.2695 19.1999 41.2695C19.2882 41.2695 19.3765 41.2498 19.4581 41.2104L37.8644 32.3247C38.0696 32.2256 38.2 32.0178 38.2 31.7899V10.2102C38.2 9.9822 38.0695 9.77452 37.8644 9.67539ZM19.1999 1.98385L36.2403 10.2102L31.3006 12.5948C31.2694 12.571 31.2363 12.549 31.2001 12.5315L14.2755 4.36115L19.1999 1.98385ZM12.9344 5.03258L29.9499 13.2469L26.465 14.9294L9.45645 6.71835L12.9344 5.03258ZM30.3481 14.3735V20.5925L27.0928 22.164V15.945L30.3481 14.3735ZM37.0123 31.4173L19.7938 39.7295V19.4686L23.9009 17.4858C24.1963 17.3432 24.3201 16.9883 24.1775 16.6929C24.0349 16.3976 23.68 16.2736 23.3846 16.4163L19.1999 18.4365L17.5534 17.6416C17.258 17.4988 16.903 17.6228 16.7604 17.9182C16.6178 18.2135 16.7416 18.5685 17.037 18.7111L18.6061 19.4686V39.7295L1.38755 31.4171V11.1562L14.4993 17.4861C14.5826 17.5263 14.6705 17.5453 14.7571 17.5453C14.9778 17.5453 15.1898 17.4216 15.2922 17.2095C15.4348 16.9142 15.311 16.5592 15.0157 16.4166L2.15961 10.2102L8.05873 7.3623L25.8969 15.9739C25.8995 15.9775 25.9025 15.9808 25.9052 15.9843V23.1102C25.9052 23.3146 26.0102 23.5045 26.1833 23.6132C26.2794 23.6736 26.3891 23.704 26.4991 23.704C26.5871 23.704 26.6754 23.6845 26.7572 23.645L31.2001 21.5001C31.4053 21.4011 31.5357 21.1933 31.5357 20.9654V13.8002L37.0123 11.1563V31.4173Z" fill="#1E1E1E"/>
<path d="M5.9302 30.2556L3.01841 28.8499C2.69988 28.696 2.31733 28.8297 2.16361 29.148C2.00989 29.4664 2.14339 29.8491 2.46175 30.0028L5.37354 31.4085C5.46324 31.4519 5.55807 31.4723 5.65136 31.4723C5.88932 31.4723 6.11789 31.339 6.22825 31.1104C6.38206 30.7919 6.24857 30.4094 5.9302 30.2556Z" fill="#1E1E1E"/>
<path d="M8.61033 28.5113L3.02276 25.8138C2.70431 25.6601 2.32167 25.7936 2.16795 26.112C2.01432 26.4304 2.14781 26.8131 2.46617 26.9668L8.05375 29.6643C8.14345 29.7076 8.23828 29.7282 8.33157 29.7282C8.56953 29.7282 8.7981 29.5948 8.90846 29.3662C9.06218 29.0476 8.92869 28.6649 8.61033 28.5113Z" fill="#1E1E1E"/>
</svg>
