<svg width="18" height="18" viewBox="0 0 18 18" fill="none" xmlns="http://www.w3.org/2000/svg">
<path d="M13.3672 11.7623C12.5965 11.7623 11.9021 12.0934 11.4202 12.62L7.08563 9.94958C7.20136 9.65491 7.26554 9.33484 7.26554 9C7.26554 8.66504 7.20136 8.34497 7.08563 8.05042L11.4202 5.37988C11.9021 5.90649 12.5965 6.23767 13.3672 6.23767C14.8189 6.23767 16 5.06287 16 3.61877C16 2.17468 14.8189 1 13.3672 1C11.9154 1 10.7343 2.1748 10.7343 3.6189C10.7343 3.95374 10.7986 4.2738 10.9142 4.56848L6.57978 7.23889C6.09786 6.71228 5.40351 6.3811 4.63283 6.3811C3.18106 6.3811 2 7.55603 2 9C2 10.4441 3.18106 11.6189 4.63283 11.6189C5.40351 11.6189 6.09786 11.2878 6.57978 10.7611L10.9142 13.4315C10.7986 13.7262 10.7343 14.0463 10.7343 14.3812C10.7343 15.8252 11.9154 17 13.3672 17C14.8189 17 16 15.8252 16 14.3812C16 12.9371 14.8189 11.7623 13.3672 11.7623ZM11.6944 3.6189C11.6944 2.70142 12.4448 1.95496 13.3672 1.95496C14.2895 1.95496 15.04 2.70142 15.04 3.6189C15.04 4.53638 14.2895 5.28284 13.3672 5.28284C12.4448 5.28284 11.6944 4.53638 11.6944 3.6189ZM4.63283 10.6639C3.71035 10.6639 2.95991 9.91748 2.95991 9C2.95991 8.08252 3.71035 7.33606 4.63283 7.33606C5.55519 7.33606 6.3055 8.08252 6.3055 9C6.3055 9.91748 5.55519 10.6639 4.63283 10.6639ZM11.6944 14.3811C11.6944 13.4636 12.4448 12.7172 13.3672 12.7172C14.2895 12.7172 15.04 13.4636 15.04 14.3811C15.04 15.2986 14.2895 16.045 13.3672 16.045C12.4448 16.045 11.6944 15.2986 11.6944 14.3811Z" fill="#029FAE" stroke="#029FAE" stroke-width="0.3"/>
</svg>
