<svg width="44" height="44" viewBox="0 0 44 44" fill="none" xmlns="http://www.w3.org/2000/svg">
<rect x="0.5" y="0.5" width="43" height="43" rx="9.5" fill="white" stroke="#029FAE"/>
<path d="M12.75 13.25L14.83 13.61L15.793 25.083C15.83 25.5345 16.0358 25.9554 16.3695 26.2618C16.7031 26.5682 17.14 26.7375 17.593 26.736H28.503C28.9367 26.7365 29.3561 26.5803 29.6838 26.2963C30.0116 26.0122 30.2258 25.6194 30.287 25.19L31.237 18.632C31.2623 18.4576 31.253 18.2799 31.2096 18.1091C31.1662 17.9383 31.0896 17.7777 30.9841 17.6365C30.8786 17.4954 30.7463 17.3764 30.5947 17.2864C30.4432 17.1964 30.2754 17.1371 30.101 17.112C30.037 17.105 15.164 17.1 15.164 17.1" stroke="#029FAE" stroke-width="1.5" stroke-linecap="round" stroke-linejoin="round"/>
<path d="M24.125 20.795H26.898" stroke="#029FAE" stroke-width="1.5" stroke-linecap="round" stroke-linejoin="round"/>
<path fill-rule="evenodd" clip-rule="evenodd" d="M17.1545 30.203C17.2278 30.1999 17.301 30.2116 17.3697 30.2375C17.4384 30.2634 17.5011 30.3029 17.5541 30.3537C17.6071 30.4045 17.6493 30.4655 17.6781 30.533C17.7069 30.6005 17.7218 30.6731 17.7218 30.7465C17.7218 30.8199 17.7069 30.8926 17.6781 30.9601C17.6493 31.0276 17.6071 31.0886 17.5541 31.1393C17.5011 31.1901 17.4384 31.2296 17.3697 31.2555C17.301 31.2814 17.2278 31.2932 17.1545 31.29C17.0144 31.284 16.882 31.2241 16.785 31.1228C16.6879 31.0216 16.6338 30.8868 16.6338 30.7465C16.6338 30.6063 16.6879 30.4715 16.785 30.3702C16.882 30.2689 17.0144 30.209 17.1545 30.203Z" fill="#029FAE" stroke="#029FAE" stroke-width="1.5" stroke-linecap="round" stroke-linejoin="round"/>
<path fill-rule="evenodd" clip-rule="evenodd" d="M28.4346 30.203C28.5792 30.203 28.7178 30.2604 28.82 30.3626C28.9222 30.4648 28.9796 30.6035 28.9796 30.748C28.9796 30.8925 28.9222 31.0312 28.82 31.1334C28.7178 31.2356 28.5792 31.293 28.4346 31.293C28.2901 31.293 28.1515 31.2356 28.0493 31.1334C27.9471 31.0312 27.8896 30.8925 27.8896 30.748C27.8896 30.6035 27.9471 30.4648 28.0493 30.3626C28.1515 30.2604 28.2901 30.203 28.4346 30.203Z" fill="#029FAE" stroke="#029FAE" stroke-width="1.5" stroke-linecap="round" stroke-linejoin="round"/>
</svg>
