<svg width="80" height="80" viewBox="0 0 80 80" fill="none" xmlns="http://www.w3.org/2000/svg">
<g clip-path="url(#clip0_182_10508)">
<rect width="80" height="80" rx="40" fill="white"/>
<path opacity="0.3" d="M40 0C17.9427 0 0 17.9444 0 40C0 62.0556 17.9427 80 40 80C62.0573 80 80 62.0556 80 40C80 17.9444 62.0573 0 40 0ZM55.9017 41.4014L32.5684 56.4014C32.295 56.5788 31.9792 56.6667 31.6667 56.6667C31.3933 56.6667 31.1166 56.5983 30.8692 56.4633C30.332 56.1703 30 55.6103 30 55V25C30 24.3897 30.332 23.8297 30.8692 23.5367C31.3966 23.247 32.0573 23.2648 32.5684 23.5986L55.9017 38.5986C56.377 38.9045 56.6667 39.4336 56.6667 40C56.6667 40.5664 56.377 41.0953 55.9017 41.4014Z" fill="#029FAE"/>
<path opacity="0.3" d="M39.9997 9.3335C23.089 9.3335 9.33301 23.0908 9.33301 40.0002C9.33301 56.9095 23.089 70.6668 39.9997 70.6668C56.9103 70.6668 70.6663 56.9095 70.6663 40.0002C70.6663 23.0908 56.9103 9.3335 39.9997 9.3335ZM52.191 41.0746L34.3021 52.5746C34.0925 52.7105 33.8504 52.778 33.6108 52.778C33.4012 52.778 33.189 52.7255 32.9994 52.622C32.5876 52.3974 32.333 51.9681 32.333 51.5002V28.5002C32.333 28.0323 32.5876 27.6029 32.9994 27.3783C33.4037 27.1562 33.9103 27.1699 34.3021 27.4258L52.191 38.9258C52.5554 39.1603 52.7775 39.5659 52.7775 40.0002C52.7775 40.4344 52.5554 40.8399 52.191 41.0746Z" fill="#029FAE"/>
<path d="M40.0003 18.6665C28.2364 18.6665 18.667 28.2368 18.667 39.9998C18.667 51.7628 28.2364 61.3332 40.0003 61.3332C51.7642 61.3332 61.3337 51.7628 61.3337 39.9998C61.3337 28.2368 51.7642 18.6665 40.0003 18.6665ZM48.4812 40.7473L36.0368 48.7473C35.891 48.8418 35.7226 48.8888 35.5559 48.8888C35.4101 48.8888 35.2625 48.8523 35.1306 48.7803C34.8441 48.624 34.667 48.3253 34.667 47.9998V31.9998C34.667 31.6743 34.8441 31.3757 35.1306 31.2194C35.4118 31.0649 35.7642 31.0744 36.0368 31.2524L48.4812 39.2524C48.7347 39.4156 48.8892 39.6978 48.8892 39.9998C48.8892 40.3019 48.7347 40.584 48.4812 40.7473Z" fill="#029FAE"/>
</g>
<defs>
<clipPath id="clip0_182_10508">
<rect width="80" height="80" rx="40" fill="white"/>
</clipPath>
</defs>
</svg>
