<svg width="31" height="24" viewBox="0 0 31 24" fill="none" xmlns="http://www.w3.org/2000/svg">
<path d="M19.9471 20.5719C20.1621 20.7697 20.4944 20.8736 20.8575 20.8835C21.2176 20.8933 21.6111 20.8108 21.9564 20.6335C22.6497 20.2775 22.9074 19.6591 22.5179 19.242L20.6433 17.2344C20.2423 16.1607 20.6575 14.8574 21.7927 13.8033L25.5219 11.7978C26.3751 11.339 26.757 10.4227 26.3565 9.72969C25.9398 9.00873 24.8465 8.81079 23.9352 9.31154L19.9566 11.4976C19.0886 11.7207 18.161 11.7787 17.2484 11.6579C16.2912 11.5312 15.3695 11.2108 14.5621 10.7219L11.1897 7.11036C10.3227 6.18188 8.74408 5.89611 7.70973 6.50937C6.68323 7.11794 6.65345 8.34086 7.59456 9.20679L11.261 12.5801C12.0575 13.9686 11.8649 15.4311 10.8218 16.5167L7.19753 18.508C6.39471 18.9491 6.37637 19.7036 7.12622 20.1792C7.4909 20.4105 7.96984 20.5326 8.44975 20.5457C8.92474 20.5586 9.40566 20.4647 9.78519 20.2606L13.2038 18.4222C14.0003 18.2052 14.8548 18.1145 15.6798 18.161C16.511 18.2079 17.2734 18.3918 17.8968 18.6856L19.9471 20.5719Z" fill="#029FAE"/>
<path d="M22.6889 16.0515C22.145 16.004 21.5775 16.3044 21.4307 16.7161C21.2864 17.1204 21.6062 17.4728 22.1362 17.5093C23.9759 17.636 24.9317 18.791 24.3711 20.0219C23.8417 21.1841 22.107 22.0655 20.4172 22.0432C18.6562 22.0199 17.4567 21.0277 17.8317 19.7653C17.9409 19.3978 17.5798 19.0739 17.017 19.0474C16.4468 19.0206 15.9018 19.309 15.8082 19.6859C15.3156 21.6684 17.2866 23.1487 19.9981 23.1487C22.5453 23.1487 25.159 21.8326 26.0246 20.0867C26.9695 18.1813 25.5914 16.3046 22.6889 16.0515Z" fill="#1E1E1E"/>
<path d="M13.9263 18.9017C13.3148 18.8729 12.7567 19.1719 12.6887 19.5634C12.4555 20.9052 10.5551 21.9128 8.34875 21.8836C6.03575 21.853 4.03375 20.6989 3.98641 19.2219C3.93554 17.6346 6.12929 16.4073 8.7468 16.5875C9.4544 16.6362 10.059 16.3026 10.1075 15.8345C10.157 15.3566 9.61127 14.9107 8.8776 14.8467C4.57297 14.4712 1.00009 16.5077 1.25056 19.1145C1.4737 21.4374 4.71547 23.1485 8.25371 23.1485C11.5486 23.1485 14.4038 21.6531 14.8561 19.6483C14.942 19.2671 14.5297 18.9301 13.9263 18.9017Z" fill="#1E1E1E"/>
<path d="M19.2698 10.7942C19.9231 10.8894 20.5749 10.5299 20.7375 9.98209C21.3486 7.92527 23.8385 6.53252 26.1186 7.00486C28.2726 7.45107 29.2205 9.3743 28.3926 11.1918C27.6203 12.8876 25.5061 14.0083 23.5496 13.7806C22.9845 13.7149 22.3869 14.0351 22.2251 14.4886C22.0663 14.9337 22.3913 15.3316 22.9415 15.3843C25.8757 15.6652 29.0378 14.0092 30.2864 11.4911C31.6739 8.69277 30.3703 5.56672 26.9713 4.75563C23.2437 3.86617 19.1597 6.19335 18.3137 9.59897C18.1727 10.1667 18.6062 10.6975 19.2698 10.7942Z" fill="#1E1E1E"/>
<path d="M8.93774 14.0437C9.68339 14.1151 10.3223 13.757 10.3764 13.2346C10.4317 12.7008 9.85866 12.1875 9.08407 12.0973C6.2089 11.7627 3.68031 9.67365 3.60343 7.27428C3.51913 4.64339 6.36086 2.91207 9.72204 3.60829C12.8597 4.25822 14.9172 6.74139 14.5246 9.00018C14.4204 9.59948 14.9314 10.1619 15.653 10.2671C16.363 10.3706 17.0338 9.99452 17.1641 9.41731C17.9461 5.95095 14.9591 1.88932 9.94123 0.691926C4.3244 -0.648325 -0.365763 2.29363 0.0589537 6.71412C0.424888 10.5231 4.5588 13.6246 8.93774 14.0437Z" fill="#1E1E1E"/>
</svg>
