<svg width="60" height="60" viewBox="0 0 60 60" fill="none" xmlns="http://www.w3.org/2000/svg">
<rect width="60" height="60" rx="30" fill="white"/>
<path d="M25.4519 44.8602C25.1333 45.2365 24.6825 44.7893 24.8062 44.2684L27.1499 34.4107C27.3349 33.6704 27.0456 32.8925 26.4218 32.4529L21.2376 29.0541C20.9564 28.8167 20.9182 28.3974 21.1518 28.113L32.6827 15.1297C33.0074 14.763 33.4665 15.2371 33.3105 15.7665L30.4801 25.3608C30.2409 26.1234 30.523 26.9532 31.1775 27.4121L36.3618 30.8397C36.6384 31.0735 36.6798 31.4845 36.4554 31.7687L25.4519 44.8602Z" fill="#029FAE"/>
<path d="M43.8029 37.8017C43.8029 38.796 42.9968 39.6022 42.0024 39.6022H31.4395L37.3769 32.5388C37.7157 32.1278 37.8629 31.5917 37.7814 31.0654C37.7164 30.5668 37.4417 30.1197 37.0264 29.8362L31.8398 26.4111C31.632 26.2388 31.55 25.9574 31.6327 25.7004L33.1955 20.3968H42.0024C42.9968 20.3968 43.8029 21.2029 43.8029 22.1973V37.8017Z" fill="#029FAE"/>
<path d="M47.4046 33.0003C47.4046 33.3317 47.1359 33.6005 46.8044 33.6005H45.0039V26.3984H46.8044C47.1359 26.3984 47.4046 26.6671 47.4046 26.9986L47.4046 33.0003Z" fill="#029FAE"/>
<path d="M24.6823 39.6022L24.3942 40.8025H20.3971C20.0656 40.8025 19.7969 40.5338 19.7969 40.2023C19.7969 39.8708 20.0656 39.6021 20.3971 39.6021H24.6823V39.6022Z" fill="#029FAE"/>
<path d="M17.9964 40.8025H16.1959C15.8645 40.8025 15.5957 40.5338 15.5957 40.2023C15.5957 39.8708 15.8644 39.6021 16.1959 39.6021H17.9964C18.3279 39.6021 18.5966 39.8708 18.5966 40.2023C18.5966 40.5338 18.3279 40.8025 17.9964 40.8025Z" fill="#029FAE"/>
<path d="M21.3992 30.5996H13.1949C12.8635 30.5996 12.5947 30.3309 12.5947 29.9994C12.5947 29.668 12.8634 29.3992 13.1949 29.3992H20.0008C20.1303 29.6669 20.3293 29.8949 20.577 30.0594L21.3992 30.5996Z" fill="#029FAE"/>
<path d="M27.4659 19.1964L26.4036 20.3967H21.5963C21.2648 20.3967 20.9961 20.1281 20.9961 19.7965C20.9961 19.465 21.2648 19.1964 21.5963 19.1964L27.4659 19.1964Z" fill="#029FAE"/>
<path d="M19.1965 20.3967H17.3961C17.0647 20.3967 16.7959 20.1281 16.7959 19.7965C16.7959 19.465 17.0646 19.1964 17.3961 19.1964H19.1966C19.5281 19.1964 19.7968 19.465 19.7968 19.7965C19.7968 20.1281 19.5281 20.3967 19.1965 20.3967Z" fill="#029FAE"/>
<path d="M24.2681 22.7974L23.1998 23.9978H14.3953C14.0638 23.9978 13.7951 23.7291 13.7951 23.3976C13.7951 23.0661 14.0638 22.7974 14.3953 22.7974H24.2681V22.7974Z" fill="#029FAE"/>
<path d="M21.6034 25.7982L20.5351 26.9985H19.1967C18.8653 26.9985 18.5965 26.7299 18.5965 26.3984C18.5965 26.0668 18.8652 25.7982 19.1967 25.7982H21.6034V25.7982Z" fill="#029FAE"/>
<path d="M16.7956 26.9985H15.5953C15.2639 26.9985 14.9951 26.7299 14.9951 26.3984C14.9951 26.0668 15.2638 25.7982 15.5953 25.7982H16.7956C17.1271 25.7982 17.3958 26.0668 17.3958 26.3984C17.3958 26.7299 17.1271 26.9985 16.7956 26.9985Z" fill="#029FAE"/>
<path d="M25.54 36.0011L25.2519 37.2014H13.7947C13.4633 37.2014 13.1945 36.9327 13.1945 36.6012C13.1945 36.2697 13.4632 36.001 13.7947 36.001H25.54V36.0011Z" fill="#029FAE"/>
<path d="M25.9842 34.1346L25.9662 34.2006H20.9968C20.6654 34.2006 20.3966 33.9319 20.3966 33.6004C20.3966 33.2689 20.6653 33.0002 20.9968 33.0002H25.066L25.7622 33.4563C25.961 33.6206 26.0474 33.8846 25.9842 34.1346Z" fill="#029FAE"/>
<path d="M18.5965 34.2006H16.1959C15.8645 34.2006 15.5957 33.9319 15.5957 33.6004C15.5957 33.2689 15.8644 33.0002 16.1959 33.0002H18.5965C18.928 33.0002 19.1967 33.2689 19.1967 33.6004C19.1967 33.9319 18.928 34.2006 18.5965 34.2006Z" fill="#029FAE"/>
</svg>
