<svg width="211" height="71" viewBox="0 0 211 71" fill="none" xmlns="http://www.w3.org/2000/svg">
<g opacity="0.4">
<mask id="path-1-outside-1_182_384" maskUnits="userSpaceOnUse" x="0" y="0" width="211" height="71" fill="black">
<rect fill="white" width="211" height="71"/>
<path d="M54.5255 15.773H20.0845V29.913H47.5565V43.346H20.0845V69H2.71253V2.34H54.5255V15.773ZM100.107 55.567H133.538V69H82.7353V2.34H100.107V55.567ZM206.628 2.34L183.095 44.659V69H165.723V44.659L142.19 2.34H160.168L169.561 20.621L174.51 31.731L179.56 20.621L188.953 2.34H206.628Z"/>
</mask>
<path d="M54.5255 15.773V17.773H56.5255V15.773H54.5255ZM20.0845 15.773V13.773H18.0845V15.773H20.0845ZM20.0845 29.913H18.0845V31.913H20.0845V29.913ZM47.5565 29.913H49.5565V27.913H47.5565V29.913ZM47.5565 43.346V45.346H49.5565V43.346H47.5565ZM20.0845 43.346V41.346H18.0845V43.346H20.0845ZM20.0845 69V71H22.0845V69H20.0845ZM2.71253 69H0.712532V71H2.71253V69ZM2.71253 2.34V0.339997H0.712532V2.34H2.71253ZM54.5255 2.34H56.5255V0.339997H54.5255V2.34ZM54.5255 13.773H20.0845V17.773H54.5255V13.773ZM18.0845 15.773V29.913H22.0845V15.773H18.0845ZM20.0845 31.913H47.5565V27.913H20.0845V31.913ZM45.5565 29.913V43.346H49.5565V29.913H45.5565ZM47.5565 41.346H20.0845V45.346H47.5565V41.346ZM18.0845 43.346V69H22.0845V43.346H18.0845ZM20.0845 67H2.71253V71H20.0845V67ZM4.71253 69V2.34H0.712532V69H4.71253ZM2.71253 4.34H54.5255V0.339997H2.71253V4.34ZM52.5255 2.34V15.773H56.5255V2.34H52.5255ZM100.107 55.567H98.1073V57.567H100.107V55.567ZM133.538 55.567H135.538V53.567H133.538V55.567ZM133.538 69V71H135.538V69H133.538ZM82.7353 69H80.7353V71H82.7353V69ZM82.7353 2.34V0.339997H80.7353V2.34H82.7353ZM100.107 2.34H102.107V0.339997H100.107V2.34ZM100.107 57.567H133.538V53.567H100.107V57.567ZM131.538 55.567V69H135.538V55.567H131.538ZM133.538 67H82.7353V71H133.538V67ZM84.7353 69V2.34H80.7353V69H84.7353ZM82.7353 4.34H100.107V0.339997H82.7353V4.34ZM98.1073 2.34V55.567H102.107V2.34H98.1073ZM206.628 2.34L208.376 3.31199L210.028 0.339997H206.628V2.34ZM183.095 44.659L181.347 43.687L181.095 44.1403V44.659H183.095ZM183.095 69V71H185.095V69H183.095ZM165.723 69H163.723V71H165.723V69ZM165.723 44.659H167.723V44.1403L167.471 43.687L165.723 44.659ZM142.19 2.34V0.339997H138.789L140.442 3.31199L142.19 2.34ZM160.168 2.34L161.947 1.42597L161.389 0.339997H160.168V2.34ZM169.561 20.621L171.388 19.8072L171.365 19.7564L171.339 19.707L169.561 20.621ZM174.51 31.731L172.683 32.5448L174.491 36.6047L176.33 32.5586L174.51 31.731ZM179.56 20.621L177.781 19.707L177.759 19.7497L177.739 19.7934L179.56 20.621ZM188.953 2.34V0.339997H187.732L187.174 1.42597L188.953 2.34ZM204.88 1.368L181.347 43.687L184.842 45.631L208.376 3.31199L204.88 1.368ZM181.095 44.659V69H185.095V44.659H181.095ZM183.095 67H165.723V71H183.095V67ZM167.723 69V44.659H163.723V69H167.723ZM167.471 43.687L143.938 1.368L140.442 3.31199L163.975 45.631L167.471 43.687ZM142.19 4.34H160.168V0.339997H142.19V4.34ZM158.389 3.25403L167.782 21.535L171.339 19.707L161.947 1.42597L158.389 3.25403ZM167.734 21.4348L172.683 32.5448L176.337 30.9172L171.388 19.8072L167.734 21.4348ZM176.33 32.5586L181.38 21.4486L177.739 19.7934L172.689 30.9034L176.33 32.5586ZM181.339 21.535L190.732 3.25403L187.174 1.42597L177.781 19.707L181.339 21.535ZM188.953 4.34H206.628V0.339997H188.953V4.34Z" fill="url(#paint0_linear_182_384)" mask="url(#path-1-outside-1_182_384)"/>
</g>
<defs>
<linearGradient id="paint0_linear_182_384" x1="101.5" y1="-6" x2="101.5" y2="75" gradientUnits="userSpaceOnUse">
<stop stop-color="#029FAE"/>
<stop offset="1" stop-color="#029FAE" stop-opacity="0"/>
</linearGradient>
</defs>
</svg>
