<svg width="140" height="124" viewBox="0 0 140 124" fill="none" xmlns="http://www.w3.org/2000/svg">
<path d="M126.833 25.5452C139.793 42.9462 144.835 69.6385 134.363 89.7534C123.924 109.868 98.0042 123.406 71.0176 123.981C44.0635 124.555 16.0751 112.231 5.34509 91.9565C-5.38487 71.6819 1.14359 43.4571 15.1378 25.5133C29.132 7.53755 50.5919 -0.157211 71.761 0.00243103C92.9624 0.162073 113.841 8.17612 126.833 25.5452Z" fill="white"/>
<path d="M40.7273 90C38.6473 90 36.6793 89.776 34.8233 89.328C32.9993 88.848 31.3353 88.192 29.8313 87.36C28.3273 86.528 27.0633 85.568 26.0393 84.48L29.9273 79.104C30.6953 80.16 31.6873 81.056 32.9033 81.792C34.1513 82.528 35.4953 83.088 36.9353 83.472C38.4073 83.856 39.8153 84.048 41.1593 84.048C42.8553 84.048 44.1833 83.792 45.1433 83.28C46.1033 82.768 46.5833 82 46.5833 80.976C46.5833 80.304 46.2953 79.744 45.7193 79.296C45.1433 78.848 44.1513 78.464 42.7433 78.144L36.2633 76.608C34.5353 76.192 32.9993 75.632 31.6553 74.928C30.3433 74.224 29.3033 73.328 28.5353 72.24C27.7993 71.12 27.4313 69.808 27.4313 68.304C27.4313 66.352 27.9593 64.624 29.0153 63.12C30.0713 61.616 31.5913 60.448 33.5753 59.616C35.5593 58.752 37.9433 58.32 40.7273 58.32C43.5753 58.32 46.0873 58.752 48.2633 59.616C50.4713 60.48 52.3753 61.792 53.9753 63.552L50.2313 68.4C48.9193 66.992 47.4473 65.936 45.8153 65.232C44.2153 64.496 42.3753 64.128 40.2953 64.128C39.0153 64.128 37.9753 64.272 37.1753 64.56C36.3753 64.816 35.7833 65.184 35.3993 65.664C35.0153 66.112 34.8233 66.624 34.8233 67.2C34.8233 67.68 34.9353 68.112 35.1593 68.496C35.4153 68.88 35.8793 69.232 36.5513 69.552C37.2553 69.84 38.2793 70.144 39.6233 70.464L44.8553 71.616C47.8953 72.288 50.1353 73.28 51.5753 74.592C53.0153 75.872 53.7353 77.648 53.7353 79.92C53.7353 82.096 53.1753 83.936 52.0553 85.44C50.9353 86.944 49.3833 88.08 47.3993 88.848C45.4473 89.616 43.2233 90 40.7273 90ZM38.2313 94.224V54.096H43.2713V94.224H38.2313ZM70.8053 57.936C73.2053 57.936 75.2853 58.288 77.0453 58.992C78.8053 59.696 80.1653 60.704 81.1252 62.016C82.1173 63.296 82.6133 64.832 82.6133 66.624C82.6133 68.32 82.1973 69.776 81.3653 70.992C80.5333 72.208 79.3013 73.136 77.6693 73.776V73.824C79.5893 74.464 81.0773 75.408 82.1333 76.656C83.1893 77.872 83.7173 79.44 83.7173 81.36C83.7173 83.216 83.1893 84.832 82.1333 86.208C81.1093 87.552 79.6373 88.608 77.7173 89.376C75.7973 90.112 73.4933 90.48 70.8053 90.48C68.1493 90.48 65.8613 90.112 63.9413 89.376C62.0213 88.608 60.5333 87.552 59.4773 86.208C58.4533 84.832 57.9413 83.216 57.9413 81.36C57.9413 79.44 58.4693 77.872 59.5253 76.656C60.5813 75.408 62.0693 74.464 63.9893 73.824V73.776C62.3893 73.168 61.1573 72.256 60.2933 71.04C59.4293 69.792 58.9973 68.32 58.9973 66.624C58.9973 64.832 59.4773 63.296 60.4373 62.016C61.4293 60.704 62.8213 59.696 64.6133 58.992C66.4053 58.288 68.4693 57.936 70.8053 57.936ZM70.8533 63.936C69.5733 63.936 68.5493 64.256 67.7812 64.896C67.0133 65.536 66.6293 66.432 66.6293 67.584C66.6293 68.704 67.0133 69.6 67.7812 70.272C68.5493 70.912 69.5733 71.232 70.8533 71.232C72.1333 71.232 73.1413 70.912 73.8773 70.272C74.6453 69.6 75.0293 68.704 75.0293 67.584C75.0293 66.432 74.6453 65.536 73.8773 64.896C73.1413 64.256 72.1333 63.936 70.8533 63.936ZM70.8533 84.48C71.8773 84.48 72.7413 84.336 73.4453 84.048C74.1813 83.728 74.7413 83.264 75.1253 82.656C75.5093 82.048 75.7013 81.344 75.7013 80.544C75.7013 79.712 75.5093 79.008 75.1253 78.432C74.7413 77.824 74.1813 77.376 73.4453 77.088C72.7093 76.768 71.8453 76.608 70.8533 76.608C69.8613 76.608 68.9813 76.768 68.2133 77.088C67.4773 77.376 66.9173 77.824 66.5333 78.432C66.1493 79.008 65.9573 79.712 65.9573 80.544C65.9573 81.344 66.1493 82.048 66.5333 82.656C66.9173 83.264 67.4773 83.728 68.2133 84.048C68.9493 84.336 69.8293 84.48 70.8533 84.48ZM100.899 57.936C103.299 57.936 105.379 58.288 107.139 58.992C108.899 59.696 110.259 60.704 111.219 62.016C112.211 63.296 112.707 64.832 112.707 66.624C112.707 68.32 112.291 69.776 111.459 70.992C110.627 72.208 109.395 73.136 107.763 73.776V73.824C109.683 74.464 111.171 75.408 112.227 76.656C113.283 77.872 113.811 79.44 113.811 81.36C113.811 83.216 113.283 84.832 112.227 86.208C111.203 87.552 109.731 88.608 107.811 89.376C105.891 90.112 103.587 90.48 100.899 90.48C98.243 90.48 95.955 90.112 94.035 89.376C92.115 88.608 90.627 87.552 89.571 86.208C88.547 84.832 88.035 83.216 88.035 81.36C88.035 79.44 88.563 77.872 89.619 76.656C90.675 75.408 92.163 74.464 94.083 73.824V73.776C92.483 73.168 91.251 72.256 90.387 71.04C89.523 69.792 89.091 68.32 89.091 66.624C89.091 64.832 89.571 63.296 90.531 62.016C91.523 60.704 92.915 59.696 94.707 58.992C96.499 58.288 98.563 57.936 100.899 57.936ZM100.947 63.936C99.667 63.936 98.643 64.256 97.875 64.896C97.107 65.536 96.723 66.432 96.723 67.584C96.723 68.704 97.107 69.6 97.875 70.272C98.643 70.912 99.667 71.232 100.947 71.232C102.227 71.232 103.235 70.912 103.971 70.272C104.739 69.6 105.123 68.704 105.123 67.584C105.123 66.432 104.739 65.536 103.971 64.896C103.235 64.256 102.227 63.936 100.947 63.936ZM100.947 84.48C101.971 84.48 102.835 84.336 103.539 84.048C104.275 83.728 104.835 83.264 105.219 82.656C105.603 82.048 105.795 81.344 105.795 80.544C105.795 79.712 105.603 79.008 105.219 78.432C104.835 77.824 104.275 77.376 103.539 77.088C102.803 76.768 101.939 76.608 100.947 76.608C99.955 76.608 99.075 76.768 98.307 77.088C97.571 77.376 97.011 77.824 96.627 78.432C96.243 79.008 96.051 79.712 96.051 80.544C96.051 81.344 96.243 82.048 96.627 82.656C97.011 83.264 97.571 83.728 98.307 84.048C99.043 84.336 99.923 84.48 100.947 84.48Z" fill="#029FAE"/>
<path d="M31.5472 46.14C30.6792 46.14 29.9279 45.9487 29.2932 45.566C28.6586 45.1833 28.1639 44.642 27.8092 43.942C27.4546 43.2327 27.2772 42.3787 27.2772 41.38C27.2772 40.4 27.4592 39.5553 27.8232 38.846C28.1966 38.1367 28.7192 37.5907 29.3912 37.208C30.0726 36.816 30.8519 36.62 31.7292 36.62C32.6906 36.62 33.4652 36.7973 34.0532 37.152C34.6506 37.5067 35.1266 38.0573 35.4812 38.804L34.0952 39.462C33.9179 38.9487 33.6239 38.566 33.2132 38.314C32.8119 38.0527 32.3219 37.922 31.7432 37.922C31.1646 37.922 30.6559 38.0573 30.2172 38.328C29.7879 38.5987 29.4519 38.9953 29.2092 39.518C28.9666 40.0313 28.8452 40.652 28.8452 41.38C28.8452 42.1173 28.9526 42.7473 29.1672 43.27C29.3819 43.7833 29.7039 44.1753 30.1332 44.446C30.5719 44.7167 31.1086 44.852 31.7432 44.852C32.0886 44.852 32.4106 44.81 32.7092 44.726C33.0079 44.6327 33.2692 44.502 33.4932 44.334C33.7172 44.1567 33.8899 43.9373 34.0112 43.676C34.1419 43.4053 34.2072 43.088 34.2072 42.724V42.458H31.5192V41.24H35.5372V46H34.4172L34.3332 44.138L34.6132 44.278C34.3892 44.866 34.0159 45.3233 33.4932 45.65C32.9799 45.9767 32.3312 46.14 31.5472 46.14ZM37.9961 46V39H39.2701L39.4101 40.26C39.5968 39.8027 39.8721 39.4573 40.2361 39.224C40.6094 38.9813 41.0668 38.86 41.6081 38.86C41.7481 38.86 41.8881 38.874 42.0281 38.902C42.1681 38.9207 42.2848 38.9533 42.3781 39L42.1681 40.316C42.0654 40.2787 41.9488 40.2507 41.8181 40.232C41.6968 40.204 41.5288 40.19 41.3141 40.19C41.0248 40.19 40.7401 40.2693 40.4601 40.428C40.1801 40.5773 39.9468 40.806 39.7601 41.114C39.5828 41.422 39.4941 41.814 39.4941 42.29V46H37.9961ZM47.9686 41.506C47.9686 41.0393 47.8379 40.68 47.5766 40.428C47.3246 40.1667 46.9746 40.036 46.5266 40.036C46.1066 40.036 45.7473 40.134 45.4486 40.33C45.1499 40.526 44.9306 40.8433 44.7906 41.282L43.5306 40.75C43.7079 40.1807 44.0533 39.7233 44.5666 39.378C45.0893 39.0327 45.7613 38.86 46.5826 38.86C47.1426 38.86 47.6373 38.9533 48.0666 39.14C48.4959 39.3173 48.8319 39.588 49.0746 39.952C49.3266 40.316 49.4526 40.7827 49.4526 41.352V44.474C49.4526 44.8193 49.6253 44.992 49.9706 44.992C50.1386 44.992 50.3019 44.9687 50.4606 44.922L50.3766 45.958C50.1619 46.0607 49.8913 46.112 49.5646 46.112C49.2659 46.112 48.9953 46.0607 48.7526 45.958C48.5193 45.846 48.3326 45.6827 48.1926 45.468C48.0619 45.244 47.9966 44.9687 47.9966 44.642V44.544L48.3046 44.53C48.2206 44.894 48.0479 45.1973 47.7866 45.44C47.5253 45.6733 47.2219 45.8507 46.8766 45.972C46.5313 46.084 46.1813 46.14 45.8266 46.14C45.3879 46.14 44.9913 46.07 44.6366 45.93C44.2913 45.79 44.0159 45.58 43.8106 45.3C43.6146 45.0107 43.5166 44.656 43.5166 44.236C43.5166 43.7133 43.6846 43.284 44.0206 42.948C44.3659 42.612 44.8513 42.3833 45.4766 42.262L48.1926 41.73L48.1786 42.78L46.2046 43.186C45.8126 43.2607 45.5186 43.368 45.3226 43.508C45.1266 43.648 45.0286 43.8533 45.0286 44.124C45.0286 44.3853 45.1266 44.5953 45.3226 44.754C45.5279 44.9033 45.7986 44.978 46.1346 44.978C46.3679 44.978 46.5919 44.95 46.8066 44.894C47.0306 44.838 47.2313 44.7493 47.4086 44.628C47.5859 44.4973 47.7213 44.334 47.8146 44.138C47.9173 43.9327 47.9686 43.69 47.9686 43.41V41.506ZM55.939 46.14C55.5283 46.14 55.1503 46.0607 54.805 45.902C54.469 45.7433 54.1843 45.524 53.951 45.244C53.7176 44.9547 53.545 44.6327 53.433 44.278L53.615 44.04L53.503 46H52.187V35.85H53.685V40.764L53.517 40.526C53.6943 40.0407 53.9976 39.644 54.427 39.336C54.8563 39.0187 55.3743 38.86 55.981 38.86C56.541 38.86 57.0543 39.0047 57.521 39.294C57.997 39.5833 58.3703 39.9987 58.641 40.54C58.9116 41.0813 59.047 41.7393 59.047 42.514C59.047 43.27 58.907 43.9187 58.627 44.46C58.3563 45.0013 57.983 45.4167 57.507 45.706C57.0403 45.9953 56.5176 46.14 55.939 46.14ZM55.617 44.936C56.2236 44.936 56.695 44.7213 57.031 44.292C57.3763 43.8533 57.549 43.256 57.549 42.5C57.549 41.744 57.381 41.1513 57.045 40.722C56.709 40.2927 56.2376 40.078 55.631 40.078C55.239 40.078 54.8983 40.1807 54.609 40.386C54.3196 40.582 54.091 40.862 53.923 41.226C53.7643 41.59 53.685 42.024 53.685 42.528C53.685 43.0227 53.7643 43.452 53.923 43.816C54.0816 44.1707 54.3056 44.446 54.595 44.642C54.8936 44.838 55.2343 44.936 55.617 44.936ZM73.861 36.76V46H72.083L68.513 40.176L67.617 38.538H67.603L67.659 40.036V46H66.287V36.76H68.051L71.607 42.57L72.517 44.236H72.531L72.475 42.724V36.76H73.861ZM79.6079 38.86C80.2893 38.86 80.8913 39.0047 81.4139 39.294C81.9366 39.5833 82.3426 40.0033 82.6319 40.554C82.9306 41.0953 83.0799 41.744 83.0799 42.5C83.0799 43.256 82.9306 43.9093 82.6319 44.46C82.3426 45.0013 81.9366 45.4167 81.4139 45.706C80.8913 45.9953 80.2893 46.14 79.6079 46.14C78.9266 46.14 78.3246 45.9953 77.8019 45.706C77.2793 45.4167 76.8686 45.0013 76.5699 44.46C76.2713 43.9093 76.1219 43.256 76.1219 42.5C76.1219 41.744 76.2713 41.0953 76.5699 40.554C76.8686 40.0033 77.2793 39.5833 77.8019 39.294C78.3246 39.0047 78.9266 38.86 79.6079 38.86ZM79.6079 40.036C79.1879 40.036 78.8286 40.134 78.5299 40.33C78.2406 40.5167 78.0166 40.792 77.8579 41.156C77.6993 41.52 77.6199 41.968 77.6199 42.5C77.6199 43.0227 77.6993 43.4707 77.8579 43.844C78.0166 44.208 78.2406 44.488 78.5299 44.684C78.8286 44.8707 79.1879 44.964 79.6079 44.964C80.0279 44.964 80.3826 44.8707 80.6719 44.684C80.9613 44.488 81.1853 44.208 81.3439 43.844C81.5026 43.4707 81.5819 43.0227 81.5819 42.5C81.5819 41.968 81.5026 41.52 81.3439 41.156C81.1853 40.792 80.9613 40.5167 80.6719 40.33C80.3826 40.134 80.0279 40.036 79.6079 40.036ZM93.9434 39H95.5674L93.2154 46H91.5774L89.8134 40.806L88.1474 46H86.5094L84.1714 39H85.7814L87.3774 44.53L89.1134 39H90.6114L92.3474 44.53L93.9434 39ZM105.86 41.506C105.86 41.0393 105.73 40.68 105.468 40.428C105.216 40.1667 104.866 40.036 104.418 40.036C103.998 40.036 103.639 40.134 103.34 40.33C103.042 40.526 102.822 40.8433 102.682 41.282L101.422 40.75C101.6 40.1807 101.945 39.7233 102.458 39.378C102.981 39.0327 103.653 38.86 104.474 38.86C105.034 38.86 105.529 38.9533 105.958 39.14C106.388 39.3173 106.724 39.588 106.966 39.952C107.218 40.316 107.344 40.7827 107.344 41.352V44.474C107.344 44.8193 107.517 44.992 107.862 44.992C108.03 44.992 108.194 44.9687 108.352 44.922L108.268 45.958C108.054 46.0607 107.783 46.112 107.456 46.112C107.158 46.112 106.887 46.0607 106.644 45.958C106.411 45.846 106.224 45.6827 106.084 45.468C105.954 45.244 105.888 44.9687 105.888 44.642V44.544L106.196 44.53C106.112 44.894 105.94 45.1973 105.678 45.44C105.417 45.6733 105.114 45.8507 104.768 45.972C104.423 46.084 104.073 46.14 103.718 46.14C103.28 46.14 102.883 46.07 102.528 45.93C102.183 45.79 101.908 45.58 101.702 45.3C101.506 45.0107 101.408 44.656 101.408 44.236C101.408 43.7133 101.576 43.284 101.912 42.948C102.258 42.612 102.743 42.3833 103.368 42.262L106.084 41.73L106.07 42.78L104.096 43.186C103.704 43.2607 103.41 43.368 103.214 43.508C103.018 43.648 102.92 43.8533 102.92 44.124C102.92 44.3853 103.018 44.5953 103.214 44.754C103.42 44.9033 103.69 44.978 104.026 44.978C104.26 44.978 104.484 44.95 104.698 44.894C104.922 44.838 105.123 44.7493 105.3 44.628C105.478 44.4973 105.613 44.334 105.706 44.138C105.809 43.9327 105.86 43.69 105.86 43.41V41.506ZM111.849 36.942V43.9C111.849 44.2453 111.938 44.4973 112.115 44.656C112.302 44.8147 112.549 44.894 112.857 44.894C113.109 44.894 113.328 44.8567 113.515 44.782C113.702 44.698 113.874 44.586 114.033 44.446L114.369 45.538C114.154 45.7247 113.888 45.874 113.571 45.986C113.263 46.0887 112.918 46.14 112.535 46.14C112.134 46.14 111.765 46.0747 111.429 45.944C111.093 45.8133 110.832 45.6033 110.645 45.314C110.458 45.0153 110.36 44.628 110.351 44.152V37.362L111.849 36.942ZM114.257 39V40.176H109.007V39H114.257Z" fill="#1E1E1E"/>
</svg>
