<svg width="300" height="73" viewBox="0 0 300 73" fill="none" xmlns="http://www.w3.org/2000/svg">
<g opacity="0.4">
<mask id="path-1-outside-1_182_385" maskUnits="userSpaceOnUse" x="0" y="0" width="300" height="74" fill="black">
<rect fill="white" width="300" height="74"/>
<path d="M62.7668 3.34V70H45.3948V3.34H62.7668ZM19.9428 3.34V70H2.57077V3.34H19.9428ZM54.6868 29.701V43.134H11.0548V29.701H54.6868ZM113.084 3.34V70H95.7117V3.34H113.084ZM173.619 71.01C167.694 71.01 162.408 69.697 157.762 67.071C153.183 64.445 149.615 60.5733 147.056 55.456C144.497 50.3387 143.218 44.1103 143.218 36.771C143.218 29.5663 144.565 23.4053 147.258 18.288C149.951 13.1707 153.789 9.23167 158.772 6.471C163.822 3.71033 169.747 2.33 176.548 2.33C184.089 2.33 190.183 3.71033 194.829 6.471C199.475 9.16433 203.077 13.4737 205.636 19.399L189.577 25.762C188.702 22.328 187.153 19.8367 184.931 18.288C182.709 16.7393 179.948 15.965 176.649 15.965C173.35 15.965 170.522 16.773 168.165 18.389C165.808 19.9377 164.024 22.2607 162.812 25.358C161.6 28.388 160.994 32.1587 160.994 36.67C160.994 41.3833 161.6 45.3223 162.812 48.487C164.091 51.6517 165.943 54.0083 168.367 55.557C170.858 57.0383 173.922 57.779 177.558 57.779C179.511 57.779 181.295 57.5433 182.911 57.072C184.527 56.6007 185.941 55.9273 187.153 55.052C188.365 54.1093 189.308 52.9647 189.981 51.618C190.654 50.204 190.991 48.5543 190.991 46.669V45.659H175.74V34.044H205.737V70H193.92L192.607 54.345L195.435 56.769C194.021 61.3477 191.462 64.8827 187.759 67.374C184.123 69.798 179.41 71.01 173.619 71.01ZM297.41 3.34V70H280.038V3.34H297.41ZM254.586 3.34V70H237.214V3.34H254.586ZM289.33 29.701V43.134H245.698V29.701H289.33Z"/>
</mask>
<path d="M62.7668 3.34H64.7668V1.34H62.7668V3.34ZM62.7668 70V72H64.7668V70H62.7668ZM45.3948 70H43.3948V72H45.3948V70ZM45.3948 3.34V1.34H43.3948V3.34H45.3948ZM19.9428 3.34H21.9428V1.34H19.9428V3.34ZM19.9428 70V72H21.9428V70H19.9428ZM2.57077 70H0.57077V72H2.57077V70ZM2.57077 3.34V1.34H0.57077V3.34H2.57077ZM54.6868 29.701H56.6868V27.701H54.6868V29.701ZM54.6868 43.134V45.134H56.6868V43.134H54.6868ZM11.0548 43.134H9.05477V45.134H11.0548V43.134ZM11.0548 29.701V27.701H9.05477V29.701H11.0548ZM60.7668 3.34V70H64.7668V3.34H60.7668ZM62.7668 68H45.3948V72H62.7668V68ZM47.3948 70V3.34H43.3948V70H47.3948ZM45.3948 5.34H62.7668V1.34H45.3948V5.34ZM17.9428 3.34V70H21.9428V3.34H17.9428ZM19.9428 68H2.57077V72H19.9428V68ZM4.57077 70V3.34H0.57077V70H4.57077ZM2.57077 5.34H19.9428V1.34H2.57077V5.34ZM52.6868 29.701V43.134H56.6868V29.701H52.6868ZM54.6868 41.134H11.0548V45.134H54.6868V41.134ZM13.0548 43.134V29.701H9.05477V43.134H13.0548ZM11.0548 31.701H54.6868V27.701H11.0548V31.701ZM113.084 3.34H115.084V1.34H113.084V3.34ZM113.084 70V72H115.084V70H113.084ZM95.7117 70H93.7117V72H95.7117V70ZM95.7117 3.34V1.34H93.7117V3.34H95.7117ZM111.084 3.34V70H115.084V3.34H111.084ZM113.084 68H95.7117V72H113.084V68ZM97.7117 70V3.34H93.7117V70H97.7117ZM95.7117 5.34H113.084V1.34H95.7117V5.34ZM157.762 67.071L156.767 68.8059L156.778 68.8121L157.762 67.071ZM147.258 18.288L145.488 17.3565L147.258 18.288ZM158.772 6.471L157.813 4.71607L157.803 4.72157L158.772 6.471ZM194.829 6.471L193.807 8.19037L193.817 8.19587L193.826 8.20128L194.829 6.471ZM205.636 19.399L206.373 21.2584L208.289 20.4989L207.472 18.6061L205.636 19.399ZM189.577 25.762L187.639 26.256L188.2 28.4587L190.314 27.6214L189.577 25.762ZM184.931 18.288L186.075 16.6472H186.075L184.931 18.288ZM168.165 18.389L169.263 20.0604L169.28 20.0496L169.296 20.0385L168.165 18.389ZM162.812 25.358L164.669 26.1008L164.672 26.0938L164.674 26.0868L162.812 25.358ZM162.812 48.487L160.944 49.2023L160.951 49.2195L160.958 49.2366L162.812 48.487ZM168.367 55.557L167.29 57.2424L167.317 57.2597L167.345 57.2761L168.367 55.557ZM182.911 57.072L182.351 55.152L182.911 57.072ZM187.153 55.052L188.324 56.6734L188.353 56.6525L188.381 56.6307L187.153 55.052ZM189.981 51.618L191.77 52.5124L191.778 52.4952L191.787 52.4779L189.981 51.618ZM190.991 45.659H192.991V43.659H190.991V45.659ZM175.74 45.659H173.74V47.659H175.74V45.659ZM175.74 34.044V32.044H173.74V34.044H175.74ZM205.737 34.044H207.737V32.044H205.737V34.044ZM205.737 70V72H207.737V70H205.737ZM193.92 70L191.927 70.1672L192.081 72H193.92V70ZM192.607 54.345L193.909 52.8265L190.206 49.6533L190.614 54.5122L192.607 54.345ZM195.435 56.769L197.346 57.3591L197.733 56.1048L196.737 55.2505L195.435 56.769ZM187.759 67.374L188.868 69.0381L188.875 69.0334L187.759 67.374ZM173.619 69.01C168 69.01 163.06 67.768 158.746 65.3299L156.778 68.8121C161.756 71.626 167.388 73.01 173.619 73.01V69.01ZM158.757 65.3361C154.549 62.9225 151.243 59.3576 148.845 54.5616L145.267 56.3504C147.986 61.7891 151.818 65.9675 156.767 68.8059L158.757 65.3361ZM148.845 54.5616C146.459 49.7892 145.218 43.8849 145.218 36.771H141.218C141.218 44.3358 142.536 50.8882 145.267 56.3504L148.845 54.5616ZM145.218 36.771C145.218 29.8126 146.518 23.9875 149.028 19.2195L145.488 17.3565C142.611 22.8232 141.218 29.3201 141.218 36.771H145.218ZM149.028 19.2195C151.543 14.4414 155.105 10.7892 159.741 8.22043L157.803 4.72157C152.474 7.6741 148.36 11.8999 145.488 17.3565L149.028 19.2195ZM159.731 8.22589C164.438 5.65296 170.022 4.33 176.548 4.33V0.329998C169.473 0.329998 163.206 1.76771 157.813 4.7161L159.731 8.22589ZM176.548 4.33C183.865 4.33 189.569 5.6721 193.807 8.19037L195.851 4.75163C190.797 1.74857 184.313 0.329998 176.548 0.329998V4.33ZM193.826 8.20128C198.031 10.6389 201.376 14.5787 203.8 20.1919L207.472 18.6061C204.779 12.3687 200.919 7.68978 195.832 4.74072L193.826 8.20128ZM204.899 17.5396L188.84 23.9026L190.314 27.6214L206.373 21.2584L204.899 17.5396ZM191.515 25.268C190.558 21.5148 188.799 18.5458 186.075 16.6472L183.787 19.9288C185.507 21.1275 186.845 23.1412 187.639 26.256L191.515 25.268ZM186.075 16.6472C183.45 14.8178 180.267 13.965 176.649 13.965V17.965C179.63 17.965 181.968 18.6609 183.787 19.9288L186.075 16.6472ZM176.649 13.965C173.01 13.965 169.773 14.8614 167.034 16.7395L169.296 20.0385C171.27 18.6846 173.689 17.965 176.649 17.965V13.965ZM167.067 16.7176C164.305 18.5324 162.285 21.2172 160.95 24.6292L164.674 26.0868C165.763 23.3041 167.312 21.343 169.263 20.0604L167.067 16.7176ZM160.955 24.6152C159.62 27.9531 158.994 31.9949 158.994 36.67H162.994C162.994 32.3225 163.58 28.8229 164.669 26.1008L160.955 24.6152ZM158.994 36.67C158.994 41.5392 159.618 45.739 160.944 49.2023L164.68 47.7717C163.582 44.9057 162.994 41.2275 162.994 36.67H158.994ZM160.958 49.2366C162.363 52.7126 164.455 55.4308 167.29 57.2424L169.444 53.8716C167.431 52.5859 165.82 50.5907 164.666 47.7374L160.958 49.2366ZM167.345 57.2761C170.215 58.9826 173.653 59.779 177.558 59.779V55.779C174.191 55.779 171.502 55.094 169.389 53.8379L167.345 57.2761ZM177.558 59.779C179.671 59.779 181.647 59.5241 183.471 58.992L182.351 55.152C180.943 55.5626 179.351 55.779 177.558 55.779V59.779ZM183.471 58.992C185.279 58.4647 186.905 57.6981 188.324 56.6734L185.982 53.4306C184.977 54.1566 183.775 54.7366 182.351 55.152L183.471 58.992ZM188.381 56.6307C189.824 55.5084 190.96 54.1316 191.77 52.5124L188.192 50.7236C187.655 51.7977 186.906 52.7102 185.925 53.4733L188.381 56.6307ZM191.787 52.4779C192.611 50.7461 192.991 48.7921 192.991 46.669H188.991C188.991 48.3166 188.697 49.6619 188.175 50.7581L191.787 52.4779ZM192.991 46.669V45.659H188.991V46.669H192.991ZM190.991 43.659H175.74V47.659H190.991V43.659ZM177.74 45.659V34.044H173.74V45.659H177.74ZM175.74 36.044H205.737V32.044H175.74V36.044ZM203.737 34.044V70H207.737V34.044H203.737ZM205.737 68H193.92V72H205.737V68ZM195.913 69.8328L194.6 54.1778L190.614 54.5122L191.927 70.1672L195.913 69.8328ZM191.305 55.8635L194.133 58.2875L196.737 55.2505L193.909 52.8265L191.305 55.8635ZM193.524 56.1789C192.234 60.3552 189.938 63.4978 186.643 65.7146L188.875 69.0334C192.987 66.2675 195.808 62.3401 197.346 57.3591L193.524 56.1789ZM186.65 65.7099C183.433 67.8541 179.141 69.01 173.619 69.01V73.01C179.678 73.01 184.813 71.7419 188.868 69.0381L186.65 65.7099ZM297.41 3.34H299.41V1.34H297.41V3.34ZM297.41 70V72H299.41V70H297.41ZM280.038 70H278.038V72H280.038V70ZM280.038 3.34V1.34H278.038V3.34H280.038ZM254.586 3.34H256.586V1.34H254.586V3.34ZM254.586 70V72H256.586V70H254.586ZM237.214 70H235.214V72H237.214V70ZM237.214 3.34V1.34H235.214V3.34H237.214ZM289.33 29.701H291.33V27.701H289.33V29.701ZM289.33 43.134V45.134H291.33V43.134H289.33ZM245.698 43.134H243.698V45.134H245.698V43.134ZM245.698 29.701V27.701H243.698V29.701H245.698ZM295.41 3.34V70H299.41V3.34H295.41ZM297.41 68H280.038V72H297.41V68ZM282.038 70V3.34H278.038V70H282.038ZM280.038 5.34H297.41V1.34H280.038V5.34ZM252.586 3.34V70H256.586V3.34H252.586ZM254.586 68H237.214V72H254.586V68ZM239.214 70V3.34H235.214V70H239.214ZM237.214 5.34H254.586V1.34H237.214V5.34ZM287.33 29.701V43.134H291.33V29.701H287.33ZM289.33 41.134H245.698V45.134H289.33V41.134ZM247.698 43.134V29.701H243.698V43.134H247.698ZM245.698 31.701H289.33V27.701H245.698V31.701Z" fill="url(#paint0_linear_182_385)" mask="url(#path-1-outside-1_182_385)"/>
</g>
<defs>
<linearGradient id="paint0_linear_182_385" x1="150" y1="76" x2="150" y2="-5" gradientUnits="userSpaceOnUse">
<stop stop-color="#029FAE"/>
<stop offset="1" stop-color="#029FAE" stop-opacity="0"/>
</linearGradient>
</defs>
</svg>
