<svg width="14" height="14" viewBox="0 0 14 14" fill="none" xmlns="http://www.w3.org/2000/svg">
<path fill-rule="evenodd" clip-rule="evenodd" d="M10 0.432007H4C1.92893 0.432007 0.25 2.11094 0.25 4.18201V10.182C0.25 12.2531 1.92893 13.932 4 13.932H10C12.071 13.932 13.75 12.2531 13.75 10.182V4.18201C13.75 2.11094 12.071 0.432007 10 0.432007ZM12.4375 10.182C12.4334 11.5265 11.3445 12.6154 10 12.6195H4C2.65551 12.6154 1.56662 11.5265 1.5625 10.182V4.18201C1.56662 2.83752 2.65551 1.74862 4 1.74451H10C11.3445 1.74862 12.4334 2.83752 12.4375 4.18201V10.182ZM10.5625 4.36951C10.9767 4.36951 11.3125 4.03372 11.3125 3.61951C11.3125 3.2053 10.9767 2.86951 10.5625 2.86951C10.1483 2.86951 9.8125 3.2053 9.8125 3.61951C9.8125 4.03372 10.1483 4.36951 10.5625 4.36951ZM7 3.80701C5.13604 3.80701 3.625 5.31805 3.625 7.18201C3.625 9.04598 5.13604 10.557 7 10.557C8.86398 10.557 10.375 9.04598 10.375 7.18201C10.377 6.28628 10.0221 5.42668 9.38868 4.79332C8.7553 4.15995 7.89573 3.80501 7 3.80701ZM4.9375 7.18201C4.9375 8.32111 5.8609 9.24451 7 9.24451C8.1391 9.24451 9.0625 8.32111 9.0625 7.18201C9.0625 6.04291 8.1391 5.11951 7 5.11951C5.8609 5.11951 4.9375 6.04291 4.9375 7.18201Z" fill="white"/>
</svg>
