<svg width="14" height="14" viewBox="0 0 14 14" fill="none" xmlns="http://www.w3.org/2000/svg">
<path fill-rule="evenodd" clip-rule="evenodd" d="M1.375 0.432007C0.753678 0.432007 0.25 0.935684 0.25 1.55701V12.807C0.25 13.4283 0.753678 13.932 1.375 13.932H12.625C13.2463 13.932 13.75 13.4283 13.75 12.807V1.55701C13.75 0.935684 13.2463 0.432007 12.625 0.432007H1.375ZM4.39057 3.43405C4.39479 4.15123 3.85796 4.59315 3.22092 4.58998C2.6208 4.58682 2.09768 4.10905 2.10084 3.4351C2.10401 2.80123 2.60498 2.29182 3.25573 2.30659C3.91596 2.32135 4.39479 2.80546 4.39057 3.43405ZM7.20978 5.50333H5.31978H5.31872V11.9232H7.31627V11.7734C7.31627 11.4885 7.31605 11.2035 7.31582 10.9184C7.31522 10.1581 7.31455 9.39691 7.31845 8.63678C7.3195 8.45221 7.3279 8.26028 7.37537 8.08411C7.55357 7.42598 8.14533 7.00096 8.80555 7.10543C9.22953 7.17181 9.51002 7.41758 9.62815 7.81733C9.70097 8.06723 9.73368 8.33618 9.73683 8.59673C9.74538 9.38243 9.74417 10.1681 9.74297 10.9539C9.74252 11.2313 9.74208 11.5088 9.74208 11.7861V11.9222H11.746V11.7682C11.746 11.4292 11.7458 11.0903 11.7456 10.7513C11.7452 9.90421 11.7448 9.05708 11.747 8.20966C11.7481 7.82678 11.707 7.44923 11.6131 7.07903C11.4729 6.52846 11.1828 6.07283 10.7114 5.74381C10.377 5.50965 10.01 5.35883 9.59973 5.34196C9.553 5.34001 9.5059 5.33747 9.45858 5.33491C9.2488 5.32357 9.03558 5.31205 8.83503 5.3525C8.26128 5.46746 7.7572 5.73008 7.37642 6.19306C7.33217 6.24616 7.2889 6.30008 7.22432 6.38056L7.20978 6.39878V5.50333ZM2.26123 11.9253H4.24932V5.5075H2.26123V11.9253Z" fill="white"/>
</svg>
