<svg width="57" height="32" viewBox="0 0 57 32" fill="none" xmlns="http://www.w3.org/2000/svg">
<g clip-path="url(#clip0_182_15703)">
<rect width="57" height="32" rx="4" fill="white"/>
<path d="M18.1133 17.3737C18.1133 17.6418 18.2473 17.7758 18.5154 17.7758C18.9846 17.7758 19.2526 17.3737 19.3197 16.7705C19.1856 16.7705 19.1856 16.7705 19.0516 16.7705C18.4484 16.7705 18.1133 16.9716 18.1133 17.3737Z" fill="#1E1E1E"/>
<path d="M35.2716 17.3737C35.2716 17.6418 35.4056 17.7758 35.6737 17.7758C36.1428 17.7758 36.4109 17.3737 36.4779 16.7705C36.3439 16.7705 36.3439 16.7705 36.2099 16.7705C35.5397 16.7705 35.2716 16.9716 35.2716 17.3737Z" fill="#1E1E1E"/>
<path d="M27.096 15.3633C26.7609 15.3633 26.4928 15.6313 26.4258 16.1005H27.6321C27.6321 15.9664 27.7662 15.3633 27.096 15.3633Z" fill="#1E1E1E"/>
<path d="M41.6388 15.4971C41.1697 15.4971 40.7676 16.1002 40.7676 16.9045C40.7676 17.4406 40.9686 17.7087 41.3037 17.7087C41.8399 17.7087 42.175 17.1055 42.175 16.3013C42.242 15.7652 42.0409 15.4971 41.6388 15.4971Z" fill="#1E1E1E"/>
<path d="M34.6684 5.98047C32.1217 5.98047 29.776 6.91873 27.9665 8.5272C26.224 6.91873 23.8783 5.98047 21.3316 5.98047C15.836 5.98047 11.3457 10.4708 11.3457 15.9664C11.3457 21.462 15.836 25.9522 21.3316 25.9522C23.8783 25.9522 26.224 25.014 27.9665 23.4055C29.709 25.014 32.0547 25.9522 34.6684 25.9522C40.164 25.9522 44.6544 21.462 44.6544 15.9664C44.6544 10.4708 40.164 5.98047 34.6684 5.98047ZM15.5679 18.6472L16.1711 14.76L14.7637 18.6472H14.0265L13.9595 14.76L13.2893 18.6472H12.284L13.1552 13.5537H14.6967L14.7637 16.7036L15.836 13.5537H17.5115L16.6403 18.6472H15.5679ZM19.187 18.6472V18.245C18.9189 18.5801 18.5168 18.7142 18.0476 18.7142C17.4445 18.7142 17.0424 18.245 17.0424 17.5748C17.0424 16.5695 17.7125 15.9664 18.9189 15.9664H19.388C19.4551 15.8323 19.455 15.7653 19.455 15.6983C19.455 15.4302 19.254 15.2962 18.7848 15.2962C18.2487 15.2962 17.8466 15.4302 17.6455 15.4972C17.6455 15.4302 17.7795 14.5589 17.7795 14.5589C18.3157 14.4249 18.6508 14.3579 19.0529 14.3579C19.9912 14.3579 20.4603 14.76 20.4603 15.5642C20.4603 15.7653 20.4603 16.0334 20.3933 16.3685C20.3263 16.9717 20.1252 18.245 20.0582 18.5801C19.9242 18.6471 19.187 18.6472 19.187 18.6472ZM22.4039 16.1674C22.9401 16.4355 23.1411 16.7706 23.1411 17.3068C23.1411 18.245 22.6049 18.7142 21.4656 18.7142C20.7954 18.7142 20.5944 18.6471 20.3263 18.5801C20.3263 18.5131 20.4603 17.6419 20.4603 17.6419C20.7954 17.7759 21.1305 17.7759 21.4656 17.7759C21.8677 17.7759 22.0688 17.6418 22.0688 17.3738C22.0688 17.1727 22.0018 17.1057 21.5327 16.9046C20.9295 16.6365 20.7284 16.3014 20.7284 15.7653C20.7284 15.0281 21.1306 14.3579 22.3369 14.3579C22.605 14.3579 23.0071 14.4249 23.2751 14.4249L23.1411 15.3632C22.873 15.2962 22.605 15.2962 22.3369 15.2962C22.0018 15.2962 21.8007 15.4302 21.8007 15.6313C21.8677 15.8994 21.9348 15.9664 22.4039 16.1674ZM24.7496 17.7089C24.8836 17.7089 24.9507 17.7089 25.0177 17.6419L24.8836 18.5801C24.6156 18.6471 24.3475 18.7142 24.0794 18.7142C23.5432 18.7142 23.2081 18.379 23.2081 17.7759C23.2081 17.5748 23.2752 17.1057 23.3422 16.7036C23.4092 16.3015 23.8113 13.8888 23.8113 13.8888H24.8836L24.7496 14.4919H25.2857L25.1517 15.4972H24.6155C24.4815 16.3015 24.2804 17.2397 24.2804 17.3738C24.4145 17.5748 24.5485 17.7089 24.7496 17.7089ZM27.2963 17.7759C27.6984 17.7759 28.0335 17.7089 28.4357 17.5078L28.2346 18.5131C27.8325 18.6471 27.4974 18.6472 27.0953 18.6472C25.8889 18.6472 25.2857 18.044 25.2857 16.8376C25.2857 15.4302 26.09 14.3579 27.1623 14.3579C28.0335 14.3579 28.6367 14.9611 28.6367 15.8323C28.6367 16.1674 28.5697 16.4355 28.5027 16.8376H26.3581C26.291 17.5078 26.6931 17.7759 27.2963 17.7759ZM29.709 18.6472H28.6367L28.7037 18.3791C28.9048 17.1057 29.1059 15.8323 29.2399 14.5589H30.2452C30.2452 14.76 30.1781 14.9611 30.1781 15.1621C30.5132 14.693 30.7813 14.4249 31.2505 14.4919C31.1164 14.693 30.9154 15.1621 30.8483 15.6983C30.1781 15.6313 30.1112 16.1004 29.709 18.6472ZM33.8642 18.5801C33.4621 18.7141 33.194 18.7142 32.926 18.7142C31.7866 18.7142 31.0494 17.8429 31.0494 16.5025C31.0494 14.693 32.0547 13.4196 33.5291 13.4196C33.9982 13.4196 34.5344 13.6207 34.7355 13.6877L34.5344 14.76C34.1323 14.5589 33.8642 14.4919 33.5962 14.4919C32.7919 14.4919 32.1887 15.2962 32.1887 16.3685C32.1887 17.1057 32.5908 17.5748 33.194 17.5748C33.4621 17.5748 33.7302 17.5078 34.1323 17.3068L33.8642 18.5801ZM37.2152 18.6472C37.0811 18.6472 36.3439 18.6472 36.3439 18.6472V18.245C36.0759 18.5801 35.6737 18.7142 35.2046 18.7142C34.6014 18.7142 34.1993 18.245 34.1993 17.5748C34.1993 16.5695 34.8695 15.9664 36.0759 15.9664H36.545C36.612 15.8323 36.612 15.7653 36.612 15.6983C36.612 15.4302 36.411 15.2962 35.9418 15.2962C35.4057 15.2962 35.0036 15.4302 34.8025 15.4972C34.8025 15.4302 34.9365 14.5589 34.9365 14.5589C35.4727 14.4249 35.8078 14.3579 36.2099 14.3579C37.1482 14.3579 37.6173 14.76 37.6173 15.5642C37.6173 15.7653 37.6173 16.0334 37.5503 16.3685C37.4162 17.0387 37.2152 18.3121 37.2152 18.6472ZM38.6896 18.6472H37.6173L37.6843 18.3791C37.8854 17.1057 38.0864 15.8323 38.2205 14.5589H39.2258C39.2258 14.76 39.1588 14.9611 39.1588 15.1621C39.4939 14.693 39.7619 14.4249 40.231 14.4919C40.097 14.693 39.896 15.1621 39.8289 15.6983C39.1588 15.6313 39.0247 16.1004 38.6896 18.6472ZM41.9065 18.6472L41.9736 18.245C41.7055 18.5801 41.3704 18.7142 40.9683 18.7142C40.1641 18.7142 39.6279 18.044 39.6279 16.9717C39.6279 15.6313 40.4321 14.4249 41.3704 14.4249C41.7725 14.4249 42.1076 14.626 42.3757 14.9611L42.6438 13.4866H43.7161L42.9118 18.5801H41.9065V18.6472Z" fill="#1E1E1E"/>
</g>
<rect x="0.5" y="0.5" width="56" height="31" rx="3.5" stroke="#1E1E1E" stroke-opacity="0.1"/>
<defs>
<clipPath id="clip0_182_15703">
<rect width="57" height="32" rx="4" fill="white"/>
</clipPath>
</defs>
</svg>
