<svg width="61" height="31" viewBox="0 0 61 31" fill="none" xmlns="http://www.w3.org/2000/svg">
<rect width="61" height="31" rx="10" fill="#01AD5A"/>
<path d="M23.946 10.76V20H22.168L18.598 14.176L17.702 12.538H17.688L17.744 14.036V20H16.372V10.76H18.136L21.692 16.57L22.602 18.236H22.616L22.56 16.724V10.76H23.946ZM29.4549 20.14C28.7549 20.14 28.1389 19.9953 27.6069 19.706C27.0749 19.4167 26.6596 19.0013 26.3609 18.46C26.0716 17.9093 25.9269 17.256 25.9269 16.5C25.9269 15.744 26.0716 15.0953 26.3609 14.554C26.6596 14.0033 27.0702 13.5833 27.5929 13.294C28.1156 13.0047 28.7082 12.86 29.3709 12.86C30.0522 12.86 30.6309 13 31.1069 13.28C31.5829 13.56 31.9469 13.9427 32.1989 14.428C32.4509 14.9133 32.5769 15.464 32.5769 16.08C32.5769 16.248 32.5722 16.4067 32.5629 16.556C32.5536 16.7053 32.5396 16.836 32.5209 16.948H26.8929V15.8H31.8629L31.1209 16.024C31.1209 15.3893 30.9622 14.904 30.6449 14.568C30.3276 14.2227 29.8936 14.05 29.3429 14.05C28.9416 14.05 28.5916 14.1433 28.2929 14.33C27.9942 14.5167 27.7656 14.7967 27.6069 15.17C27.4482 15.534 27.3689 15.982 27.3689 16.514C27.3689 17.0367 27.4529 17.48 27.6209 17.844C27.7889 18.208 28.0269 18.4833 28.3349 18.67C28.6429 18.8567 29.0069 18.95 29.4269 18.95C29.8936 18.95 30.2716 18.8613 30.5609 18.684C30.8502 18.5067 31.0789 18.2593 31.2469 17.942L32.4369 18.502C32.2689 18.838 32.0402 19.132 31.7509 19.384C31.4709 19.6267 31.1349 19.8133 30.7429 19.944C30.3509 20.0747 29.9216 20.14 29.4549 20.14ZM43.1949 13H44.8189L42.4669 20H40.8289L39.0649 14.806L37.3989 20H35.7609L33.4229 13H35.0329L36.6289 18.53L38.3649 13H39.8629L41.5989 18.53L43.1949 13Z" fill="white"/>
</svg>
