<svg width="1149" height="156" viewBox="0 0 1149 156" fill="none" xmlns="http://www.w3.org/2000/svg">
<path opacity="0.05" d="M1141.73 214.301C1138.21 213.351 1134.7 212.403 1131.18 211.453C1122.75 209.172 1114.3 206.897 1105.86 204.617C1095.66 201.863 1085.45 199.103 1075.25 196.35C1066.47 193.983 1057.7 191.616 1048.93 189.242C1044.65 188.087 1040.38 186.773 1036.08 185.772C1036.02 185.761 1035.96 185.741 1035.9 185.723C1034.38 185.314 1032.7 186.636 1032.55 188.246C1032.39 190.034 1033.44 191.487 1035.07 191.926C1038.58 192.876 1042.1 193.825 1045.61 194.775C1054.05 197.055 1062.5 199.33 1070.93 201.61C1081.14 204.364 1091.35 207.125 1101.55 209.877C1110.32 212.244 1119.1 214.612 1127.87 216.986C1129.28 217.367 1130.68 217.762 1132.09 218.164C1062.75 243.506 991.335 264.235 917.526 271.822C879.822 275.693 841.44 276.33 803.41 271.957C765.303 267.575 726.067 257.275 693.699 233.174C683.887 225.869 674.638 217.304 666.515 207.708C697.106 202.503 728.214 193.456 750.614 170.635C772.605 148.239 786.341 111.522 772.07 79.1426C760.141 52.0766 731.87 36.9913 705.125 36.5602C674.474 36.0647 649.366 56.8771 637.516 85.6405C624.685 116.785 627.577 152.947 643.299 183.585C646.878 190.561 650.857 197.049 655.183 203.092C651.818 203.584 648.45 204.048 645.085 204.492C625.701 207.056 606.27 209.431 586.787 211.311C513.414 218.375 435.769 216.713 368.335 176.36C339.606 159.17 313.96 135.309 296.383 105.371C284.442 85.0221 277.204 61.8777 274.97 38.4058C303.125 35.018 331.063 29.2483 357.827 20.5272C385.501 11.5082 420.62 -7.57176 421.255 -43.1356C421.881 -78.4383 387.567 -101.989 357.39 -99.7751C324.94 -97.3938 297.55 -73.3428 282.955 -43.9721C271.483 -20.892 267.006 6.09391 268.626 32.7183C200.006 40.4636 129.444 33.7218 62.0843 12.8365C44.1508 7.27833 26.4907 0.659885 9.13768 -6.88068C5.56906 -8.42889 3.19162 -2.76628 6.77937 -1.2143C81.8581 31.3945 162.84 45.8871 242.372 41.3045C251.289 40.7936 260.219 40.0498 269.133 39.0813C269.582 43.6753 270.205 48.248 271.01 52.7805C277.138 87.2146 293.952 118.109 317.371 143.2C372.118 201.84 450.94 220.903 524.35 220.968C567.302 221.004 610.132 215.853 652.424 209.891C654.773 209.558 657.136 209.215 659.502 208.851C703.199 264.142 777.848 278.901 842.012 280.941C924.007 283.551 1004.58 266.849 1081.81 242.171C1099.58 236.493 1117.22 230.365 1134.75 223.955C1129.74 234.249 1124.74 244.536 1119.75 254.831C1113.46 267.757 1107.18 280.691 1100.9 293.618C1097.37 300.881 1093.84 308.136 1090.31 315.399C1089.61 316.839 1090.41 318.97 1091.85 319.612C1093.42 320.324 1095 319.7 1095.74 318.158C1102.03 305.232 1108.31 292.297 1114.59 279.371C1120.88 266.445 1127.16 253.51 1133.44 240.584C1136.97 233.321 1140.5 226.065 1144.03 218.802C1144.95 216.901 1143.49 214.801 1141.73 214.322L1141.73 214.301ZM274.614 11.5808C276.758 -19.3324 288.012 -49.8534 309.618 -70.4087C333.249 -92.8897 372.504 -104.849 399.799 -78.6485C412.189 -66.7581 418.54 -48.9378 413.687 -32.1577C409.227 -16.7465 396.842 -5.86757 384.19 1.82398C369.993 10.4494 354.161 15.368 338.267 19.6173C320.221 24.4454 301.879 28.1632 283.358 30.8283C280.409 31.25 277.45 31.6422 274.487 32.0128C274.101 25.196 274.141 18.3665 274.606 11.5931L274.614 11.5808ZM637.415 149.968C630.989 118.686 638.731 84.0047 659.847 62.0726C680.089 41.0408 711.258 37.3408 737.439 51.0311C765.565 65.7349 777.996 97.8759 768.778 128.584C758.295 163.499 729.053 184.14 697.267 194.099C685.733 197.713 673.886 200.145 661.952 202.061C650.214 186.776 641.362 169.162 637.421 149.976L637.415 149.968Z" fill="#029FAE" stroke="#029FAE" stroke-width="9.2507"/>
</svg>
