<svg width="96" height="32" viewBox="0 0 96 32" fill="none" xmlns="http://www.w3.org/2000/svg">
<rect width="96" height="32" rx="4" fill="white"/>
<rect x="0.5" y="0.5" width="95" height="31" rx="3.5" stroke="#1E1E1E" stroke-opacity="0.1"/>
<path d="M69.8396 11.1108H65.5221C65.2681 11.1108 65.0142 11.3648 64.8872 11.6188L63.1094 22.7935C63.1094 23.0475 63.2364 23.1745 63.4903 23.1745H65.7761C66.03 23.1745 66.157 23.0475 66.157 22.7935L66.665 19.6189C66.665 19.3649 66.9189 19.1109 67.2999 19.1109H68.6967C71.6174 19.1109 73.2682 17.7141 73.6492 14.9204C73.9032 13.7775 73.6492 12.7617 73.1412 12.1267C72.3793 11.4918 71.2365 11.1108 69.8396 11.1108ZM70.3476 15.3014C70.0936 16.8252 68.9507 16.8252 67.8078 16.8252H67.0459L67.5539 13.9045C67.5539 13.7775 67.6809 13.6506 67.9348 13.6506H68.1888C68.9507 13.6506 69.7126 13.6506 70.0936 14.1585C70.3476 14.2855 70.3476 14.6664 70.3476 15.3014Z" fill="#404040"/>
<path d="M38.7284 11.1108H34.4109C34.1569 11.1108 33.903 11.3648 33.776 11.6188L31.9982 22.7935C31.9982 23.0475 32.1252 23.1745 32.3791 23.1745H34.4109C34.6649 23.1745 34.9188 22.9205 35.0458 22.6665L35.5538 19.6189C35.5538 19.3649 35.8077 19.1109 36.1887 19.1109H37.5855C40.5062 19.1109 42.157 17.7141 42.538 14.9204C42.792 13.7775 42.538 12.7617 42.03 12.1267C41.2681 11.4918 40.2522 11.1108 38.7284 11.1108ZM39.2364 15.3014C38.9824 16.8252 37.8395 16.8252 36.6966 16.8252H36.0617L36.5697 13.9045C36.5697 13.7775 36.6966 13.6506 36.9506 13.6506H37.2046C37.9665 13.6506 38.7284 13.6506 39.1094 14.1585C39.2364 14.2855 39.3633 14.6664 39.2364 15.3014Z" fill="#1E1E1E"/>
<path d="M51.8087 15.1744H49.777C49.65 15.1744 49.396 15.3014 49.396 15.4284L49.269 16.0633L49.1421 15.8093C48.6341 15.1744 47.7452 14.9204 46.7293 14.9204C44.4436 14.9204 42.4118 16.6982 42.0308 19.1109C41.7769 20.3808 42.1578 21.5237 42.7928 22.2856C43.4277 23.0475 44.3166 23.3015 45.4595 23.3015C47.3642 23.3015 48.3801 22.1586 48.3801 22.1586L48.2531 22.7935C48.2531 23.0475 48.3801 23.1745 48.6341 23.1745H50.5389C50.7929 23.1745 51.0468 22.9205 51.1738 22.6665L52.3167 15.5553C52.1897 15.4284 51.9357 15.1744 51.8087 15.1744ZM48.8881 19.2379C48.6341 20.3808 47.7452 21.2697 46.4753 21.2697C45.8404 21.2697 45.3325 21.0157 45.0785 20.7618C44.8245 20.3808 44.6975 19.8729 44.6975 19.2379C44.8245 18.0951 45.8404 17.2062 46.9833 17.2062C47.6182 17.2062 47.9992 17.4601 48.3801 17.7141C48.7611 18.0951 48.8881 18.73 48.8881 19.2379Z" fill="#1E1E1E"/>
<path d="M82.791 15.1744H80.7593C80.6323 15.1744 80.3783 15.3014 80.3783 15.4284L80.2513 16.0633L80.1243 15.8093C79.6164 15.1744 78.7275 14.9204 77.7116 14.9204C75.4259 14.9204 73.3941 16.6982 73.0131 19.1109C72.7592 20.3808 73.1401 21.5237 73.7751 22.2856C74.41 23.0475 75.2989 23.3015 76.4418 23.3015C78.3465 23.3015 79.3624 22.1586 79.3624 22.1586L79.2354 22.7935C79.2354 23.0475 79.3624 23.1745 79.6164 23.1745H81.5212C81.7752 23.1745 82.0291 22.9205 82.1561 22.6665L83.299 15.5553C83.172 15.4284 83.045 15.1744 82.791 15.1744ZM79.8704 19.2379C79.6164 20.3808 78.7275 21.2697 77.4576 21.2697C76.8227 21.2697 76.3148 21.0157 76.0608 20.7618C75.8068 20.3808 75.6798 19.8729 75.6798 19.2379C75.8068 18.0951 76.8227 17.2062 77.9656 17.2062C78.6005 17.2062 78.9815 17.4601 79.3624 17.7141C79.8704 18.0951 79.9974 18.73 79.8704 19.2379Z" fill="#404040"/>
<path d="M62.8562 15.1743H60.6974C60.4434 15.1743 60.3164 15.3013 60.1894 15.4283L57.3958 19.7458L56.1259 15.6823C55.9989 15.4283 55.8719 15.3013 55.491 15.3013H53.4592C53.2052 15.3013 53.0782 15.5553 53.0782 15.8092L55.364 22.5395L53.2052 25.5871C53.0782 25.8411 53.2052 26.2221 53.4592 26.2221H55.491C55.7449 26.2221 55.8719 26.0951 55.9989 25.9681L62.9831 15.9362C63.3641 15.5553 63.1101 15.1743 62.8562 15.1743Z" fill="#1E1E1E"/>
<path d="M85.2055 11.4923L83.4277 22.921C83.4277 23.175 83.5547 23.3019 83.8087 23.3019H85.5865C85.8405 23.3019 86.0944 23.048 86.2214 22.794L87.9992 11.6192C87.9992 11.3653 87.8722 11.2383 87.6183 11.2383H85.5865C85.4595 11.1113 85.3325 11.2383 85.2055 11.4923Z" fill="#404040"/>
<path d="M22.6014 7.30166C21.7125 6.28577 20.0617 5.77783 17.7759 5.77783H11.4267C11.0457 5.77783 10.6647 6.15879 10.5378 6.53974L7.99805 23.1749C7.99805 23.5558 8.25202 23.8098 8.50599 23.8098H12.4425L13.4584 17.5875V17.8415C13.5854 17.4605 13.9664 17.0796 14.3473 17.0796H16.2521C19.9347 17.0796 22.7284 15.5557 23.6173 11.3652C23.6173 11.2382 23.6173 11.1112 23.6173 10.9842C23.4903 10.9842 23.4903 10.9842 23.6173 10.9842C23.7443 9.33343 23.4903 8.31755 22.6014 7.30166Z" fill="#1E1E1E"/>
<path d="M23.4893 10.9844C23.4893 11.1114 23.4893 11.2383 23.4893 11.3653C22.6004 15.6828 19.8067 17.0797 16.1241 17.0797H14.2193C13.8383 17.0797 13.4574 17.4607 13.3304 17.8416L12.0605 25.5877C12.0605 25.8417 12.1875 26.0957 12.5685 26.0957H15.8701C16.2511 26.0957 16.632 25.8417 16.632 25.4608V25.3338L17.267 21.3972V21.1432C17.267 20.7623 17.6479 20.5083 18.0289 20.5083H18.5368C21.7115 20.5083 24.2512 19.2384 24.8861 15.4289C25.1401 13.905 25.0131 12.5082 24.2512 11.6193C24.1242 11.3653 23.8702 11.1114 23.4893 10.9844Z" fill="#1E1E1E"/>
<path d="M22.602 10.6031C22.475 10.6031 22.348 10.4761 22.221 10.4761C22.094 10.4761 21.967 10.4761 21.84 10.3492C21.3321 10.2222 20.8242 10.2222 20.1892 10.2222H15.2368C15.1098 10.2222 14.9828 10.2222 14.8558 10.3492C14.6019 10.4761 14.4749 10.7301 14.4749 10.9841L13.459 17.5873V17.8413C13.586 17.4604 13.9669 17.0794 14.3479 17.0794H16.2527C19.9353 17.0794 22.7289 15.5556 23.6178 11.365C23.6178 11.2381 23.6178 11.1111 23.7448 10.9841C23.4909 10.8571 23.3639 10.7301 23.1099 10.7301C22.7289 10.6031 22.7289 10.6031 22.602 10.6031Z" fill="#404040"/>
</svg>
