<svg width="17" height="20" viewBox="0 0 17 20" fill="none" xmlns="http://www.w3.org/2000/svg">
<path d="M8.21679 9.63402C9.54033 9.63402 10.6864 9.15932 11.6228 8.22275C12.5593 7.28632 13.034 6.14055 13.034 4.81686C13.034 3.49363 12.5593 2.3477 11.6227 1.41097C10.6861 0.474697 9.54018 0 8.21679 0C6.89311 0 5.74733 0.474697 4.81091 1.41112C3.87448 2.34755 3.39963 3.49347 3.39963 4.81686C3.39963 6.14055 3.87448 7.28647 4.81106 8.2229C5.74764 9.15917 6.89356 9.63402 8.21679 9.63402Z" fill="#1E1E1E"/>
<path d="M16.6455 15.3789C16.6185 14.9892 16.5639 14.5641 16.4835 14.1152C16.4023 13.6629 16.2978 13.2354 16.1727 12.8446C16.0434 12.4407 15.8676 12.0418 15.6504 11.6596C15.4248 11.2629 15.1599 10.9174 14.8627 10.6332C14.5519 10.3358 14.1713 10.0967 13.7313 9.92226C13.2927 9.74877 12.8068 9.66088 12.2869 9.66088C12.0827 9.66088 11.8853 9.74465 11.504 9.9929C11.2693 10.1459 10.9948 10.3229 10.6884 10.5187C10.4264 10.6856 10.0715 10.842 9.63311 10.9837C9.2054 11.122 8.77114 11.1922 8.34253 11.1922C7.91391 11.1922 7.4798 11.122 7.05164 10.9837C6.61372 10.8422 6.2588 10.6858 5.99712 10.5189C5.69362 10.3249 5.41896 10.1479 5.18078 9.99275C4.79992 9.74449 4.60232 9.66072 4.39816 9.66072C3.87814 9.66072 3.39231 9.74877 2.95393 9.92241C2.51417 10.0965 2.13347 10.3356 1.82234 10.6333C1.52526 10.9177 1.26021 11.263 1.035 11.6596C0.817865 12.0418 0.642085 12.4405 0.512691 12.8448C0.387723 13.2355 0.283201 13.6629 0.202025 14.1152C0.121612 14.5635 0.0669856 14.9887 0.0399777 15.3794C0.0134276 15.7621 0 16.1592 0 16.5604C0 17.6044 0.331876 18.4496 0.986321 19.0729C1.63268 19.688 2.48793 20 3.52796 20H13.158C14.198 20 15.053 19.6881 15.6995 19.0729C16.3541 18.45 16.686 17.6047 16.686 16.5602C16.6858 16.1573 16.6722 15.7598 16.6455 15.3789Z" fill="#1E1E1E"/>
</svg>
