<svg width="60" height="31" viewBox="0 0 60 31" fill="none" xmlns="http://www.w3.org/2000/svg">
<rect width="60" height="31" rx="10" fill="#F5813F"/>
<path d="M19.522 10.62C20.3527 10.62 21.0713 10.7787 21.678 11.096C22.2847 11.404 22.798 11.8613 23.218 12.468L22.21 13.434C21.8553 12.8927 21.454 12.5053 21.006 12.272C20.5673 12.0293 20.0447 11.908 19.438 11.908C18.99 11.908 18.6213 11.9687 18.332 12.09C18.0427 12.2113 17.828 12.3747 17.688 12.58C17.5573 12.776 17.492 13 17.492 13.252C17.492 13.5413 17.59 13.7933 17.786 14.008C17.9913 14.2227 18.3693 14.3907 18.92 14.512L20.796 14.932C21.692 15.128 22.3267 15.4267 22.7 15.828C23.0733 16.2293 23.26 16.738 23.26 17.354C23.26 17.9233 23.106 18.418 22.798 18.838C22.49 19.258 22.0607 19.58 21.51 19.804C20.9687 20.028 20.3293 20.14 19.592 20.14C18.9387 20.14 18.3507 20.056 17.828 19.888C17.3053 19.72 16.848 19.4913 16.456 19.202C16.064 18.9127 15.742 18.5813 15.49 18.208L16.526 17.172C16.722 17.4987 16.9693 17.7927 17.268 18.054C17.5667 18.306 17.912 18.502 18.304 18.642C18.7053 18.782 19.1487 18.852 19.634 18.852C20.0633 18.852 20.432 18.8007 20.74 18.698C21.0573 18.5953 21.2953 18.446 21.454 18.25C21.622 18.0447 21.706 17.802 21.706 17.522C21.706 17.2513 21.6127 17.0133 21.426 16.808C21.2487 16.6027 20.9127 16.444 20.418 16.332L18.388 15.87C17.828 15.7487 17.366 15.576 17.002 15.352C16.638 15.128 16.3673 14.8573 16.19 14.54C16.0127 14.2133 15.924 13.8493 15.924 13.448C15.924 12.9253 16.064 12.454 16.344 12.034C16.6333 11.6047 17.0487 11.264 17.59 11.012C18.1313 10.7507 18.7753 10.62 19.522 10.62ZM29.081 15.506C29.081 15.0393 28.9504 14.68 28.689 14.428C28.437 14.1667 28.087 14.036 27.639 14.036C27.219 14.036 26.8597 14.134 26.561 14.33C26.2624 14.526 26.043 14.8433 25.903 15.282L24.643 14.75C24.8204 14.1807 25.1657 13.7233 25.679 13.378C26.2017 13.0327 26.8737 12.86 27.695 12.86C28.255 12.86 28.7497 12.9533 29.179 13.14C29.6084 13.3173 29.9444 13.588 30.187 13.952C30.439 14.316 30.565 14.7827 30.565 15.352V18.474C30.565 18.8193 30.7377 18.992 31.083 18.992C31.251 18.992 31.4144 18.9687 31.573 18.922L31.489 19.958C31.2744 20.0607 31.0037 20.112 30.677 20.112C30.3784 20.112 30.1077 20.0607 29.865 19.958C29.6317 19.846 29.445 19.6827 29.305 19.468C29.1744 19.244 29.109 18.9687 29.109 18.642V18.544L29.417 18.53C29.333 18.894 29.1604 19.1973 28.899 19.44C28.6377 19.6733 28.3344 19.8507 27.989 19.972C27.6437 20.084 27.2937 20.14 26.939 20.14C26.5004 20.14 26.1037 20.07 25.749 19.93C25.4037 19.79 25.1284 19.58 24.923 19.3C24.727 19.0107 24.629 18.656 24.629 18.236C24.629 17.7133 24.797 17.284 25.133 16.948C25.4784 16.612 25.9637 16.3833 26.589 16.262L29.305 15.73L29.291 16.78L27.317 17.186C26.925 17.2607 26.631 17.368 26.435 17.508C26.239 17.648 26.141 17.8533 26.141 18.124C26.141 18.3853 26.239 18.5953 26.435 18.754C26.6404 18.9033 26.911 18.978 27.247 18.978C27.4804 18.978 27.7044 18.95 27.919 18.894C28.143 18.838 28.3437 18.7493 28.521 18.628C28.6984 18.4973 28.8337 18.334 28.927 18.138C29.0297 17.9327 29.081 17.69 29.081 17.41V15.506ZM34.4754 9.85V18.04C34.4754 18.3853 34.5361 18.6233 34.6574 18.754C34.7788 18.8847 34.9794 18.95 35.2594 18.95C35.4274 18.95 35.5674 18.9407 35.6794 18.922C35.8008 18.894 35.9501 18.8473 36.1274 18.782L35.9594 19.902C35.8008 19.9767 35.6188 20.0327 35.4134 20.07C35.2081 20.1167 35.0028 20.14 34.7974 20.14C34.1721 20.14 33.7101 19.9813 33.4114 19.664C33.1221 19.3373 32.9774 18.838 32.9774 18.166V9.85H34.4754ZM40.4608 20.14C39.7608 20.14 39.1448 19.9953 38.6128 19.706C38.0808 19.4167 37.6654 19.0013 37.3668 18.46C37.0774 17.9093 36.9328 17.256 36.9328 16.5C36.9328 15.744 37.0774 15.0953 37.3668 14.554C37.6654 14.0033 38.0761 13.5833 38.5988 13.294C39.1214 13.0047 39.7141 12.86 40.3768 12.86C41.0581 12.86 41.6368 13 42.1128 13.28C42.5888 13.56 42.9528 13.9427 43.2048 14.428C43.4568 14.9133 43.5828 15.464 43.5828 16.08C43.5828 16.248 43.5781 16.4067 43.5688 16.556C43.5594 16.7053 43.5454 16.836 43.5268 16.948H37.8988V15.8H42.8688L42.1268 16.024C42.1268 15.3893 41.9681 14.904 41.6508 14.568C41.3334 14.2227 40.8994 14.05 40.3488 14.05C39.9474 14.05 39.5974 14.1433 39.2988 14.33C39.0001 14.5167 38.7714 14.7967 38.6128 15.17C38.4541 15.534 38.3748 15.982 38.3748 16.514C38.3748 17.0367 38.4588 17.48 38.6268 17.844C38.7948 18.208 39.0328 18.4833 39.3408 18.67C39.6488 18.8567 40.0128 18.95 40.4328 18.95C40.8994 18.95 41.2774 18.8613 41.5668 18.684C41.8561 18.5067 42.0848 18.2593 42.2528 17.942L43.4428 18.502C43.2748 18.838 43.0461 19.132 42.7568 19.384C42.4768 19.6267 42.1408 19.8133 41.7488 19.944C41.3568 20.0747 40.9274 20.14 40.4608 20.14Z" fill="white"/>
</svg>
