<svg width="16" height="16" viewBox="0 0 16 16" fill="none" xmlns="http://www.w3.org/2000/svg">
<path opacity="0.6" d="M11.3188 10.25C12.5948 11.5273 13.8585 12.791 15.1204 14.056C15.2094 14.1457 15.302 14.236 15.3723 14.3398C15.5744 14.6395 15.5316 15.0265 15.2791 15.2787C15.0184 15.5397 14.6201 15.5754 14.3172 15.3561C14.2229 15.2881 14.1408 15.2025 14.0582 15.1198C12.8701 13.9322 11.6826 12.7435 10.4969 11.5537C10.4213 11.478 10.3609 11.3871 10.2783 11.2857C8.52021 12.5483 6.63671 12.913 4.6044 12.2439C3.22004 11.7882 2.14266 10.9145 1.38223 9.66712C-0.148006 7.15601 0.354066 3.91714 2.56506 1.97663C4.71805 0.0877294 7.9701 0.012666 10.228 1.74206C12.3839 3.39287 13.644 7.07391 11.3182 10.2506L11.3188 10.25ZM2.00147 6.54143C2.01436 9.05898 4.04374 11.0722 6.55527 11.0587C9.07794 11.0452 11.0833 9.01735 11.0628 6.50096C11.0423 3.98458 9.03752 1.99422 6.5295 1.9995C4.01269 2.00478 1.98917 4.03501 2.00147 6.54201V6.54143Z" fill="#1E1E1E"/>
</svg>
