<svg width="61" height="60" viewBox="0 0 61 60" fill="none" xmlns="http://www.w3.org/2000/svg">
<rect x="0.333313" width="60" height="60" rx="30" fill="white"/>
<path d="M37.6218 18.5645C37.5082 18.5753 37.3918 18.5578 37.2871 18.5104C34.427 17.3625 32.0131 16.9892 29.1872 17.2568C26.3752 17.5231 23.7683 18.4434 21.4665 20.0083C21.143 20.2254 20.7048 20.1378 20.4738 19.8157C20.2568 19.4922 20.343 19.04 20.6665 18.823C23.172 17.1387 25.9994 16.1258 29.0527 15.8367C32.0778 15.5502 34.7828 15.9674 37.8211 17.1843C38.1936 17.3354 38.3619 17.7494 38.2094 18.1076C38.1057 18.3753 37.8778 18.5404 37.6222 18.5646L37.6218 18.5645ZM18.0044 27.9454C17.8625 27.9588 17.7163 27.9297 17.5805 27.8565C17.2323 27.6601 17.1195 27.2267 17.3159 26.8785C18.5338 24.757 20.1752 23.0254 22.202 21.73C26.4436 19.0068 32.1518 18.4521 36.8434 20.329C39.0773 21.2208 41.0132 22.5993 42.6063 24.4403C42.8632 24.7312 42.8352 25.1926 42.53 25.4506C42.2249 25.7088 41.7778 25.6794 41.5198 25.3742C40.0721 23.7059 38.3198 22.4531 36.3097 21.6546C32.036 19.9528 26.8236 20.4464 22.9611 22.9331C21.1236 24.1101 19.6392 25.6838 18.5305 27.5942C18.4356 27.8037 18.232 27.9233 18.0047 27.9448L18.0044 27.9454ZM28.504 44.2468C28.3193 44.2643 28.128 44.2107 27.9867 44.0808C26.634 42.9622 25.8913 42.2301 24.7771 40.6016C23.6316 38.9476 22.9186 36.8657 22.7021 34.5788C22.3026 30.3607 25.5845 26.582 30.0158 26.1623C34.4472 25.7427 38.38 28.8379 38.7795 33.0563C38.8172 33.4541 38.5343 33.7961 38.1366 33.8338C37.7388 33.8714 37.3968 33.5886 37.3591 33.1908C37.0336 29.754 33.8004 27.2373 30.1506 27.583C26.5007 27.9286 23.7975 31.0074 24.123 34.4443C24.3166 36.4895 24.9499 38.3353 25.9615 39.787C27.0252 41.3341 27.7159 41.9709 28.9145 42.975C29.2113 43.2336 29.2529 43.6737 29.01 43.9834C28.8672 44.1401 28.6892 44.2287 28.5047 44.2462L28.504 44.2468ZM38.4382 40.6549C36.7482 40.815 35.2166 40.5301 33.9159 39.8079C31.664 38.5739 30.1793 36.3645 29.9452 33.8934C29.9076 33.4956 30.1904 33.1536 30.5882 33.116C30.986 33.0783 31.328 33.3611 31.3656 33.7589C31.5553 35.7613 32.7568 37.5535 34.5996 38.554C35.6725 39.1401 36.8823 39.3552 38.3025 39.2207C38.6434 39.1884 39.2074 39.092 39.766 38.9389C40.1428 38.8314 40.5363 39.0523 40.645 39.4431C40.7524 39.8199 40.5315 40.2134 40.1407 40.3221C39.3459 40.555 38.6373 40.6365 38.4384 40.6553L38.4382 40.6549ZM35.8605 43.8509C35.8037 43.8563 35.7312 43.8488 35.6731 43.8401C33.3556 43.4291 31.7993 42.7309 30.1073 41.358C27.932 39.5721 26.5897 37.0482 26.3234 34.2362C26.1055 31.9354 27.8878 29.875 30.3023 29.6464C32.7168 29.4177 34.8542 31.1069 35.072 33.4077C35.2159 34.9273 36.6537 36.0379 38.2871 35.8832C39.9203 35.7285 41.1243 34.3678 40.9804 32.8482C40.4734 27.494 35.4461 23.5849 29.7649 24.1229C25.7315 24.5049 22.2516 27.0986 20.9194 30.7356C20.4744 31.9383 20.3182 33.3145 20.4581 34.7915C20.563 35.8992 20.8278 37.6366 21.8952 39.8284C22.0721 40.1842 21.9266 40.6135 21.5694 40.7764C21.2136 40.9533 20.783 40.7936 20.6215 40.4507C19.7493 38.6562 19.2336 36.8422 19.052 34.9249C18.8906 33.2206 19.0707 31.6416 19.582 30.2318C21.0958 26.0903 25.0419 23.1233 29.6291 22.6889C36.0913 22.0769 41.818 26.5642 42.3991 32.6997C42.6169 35.0005 40.8346 37.0609 38.4202 37.2895C36.0057 37.5182 33.8683 35.829 33.6504 33.5282C33.5065 32.0087 32.0687 30.8981 30.4353 31.0528C28.8021 31.2074 27.5981 32.5682 27.742 34.0877C27.972 36.5162 29.1245 38.7 31.0044 40.2412C32.4801 41.4485 33.8423 42.0646 35.8974 42.4289C36.2904 42.492 36.5411 42.8696 36.4767 43.2482C36.4365 43.5817 36.1587 43.8227 35.8605 43.8509Z" fill="#029FAE"/>
</svg>
