<svg width="65" height="38" viewBox="0 0 65 38" fill="none" xmlns="http://www.w3.org/2000/svg">
<path d="M14.6301 30.0869C13.5606 30.0869 12.6906 30.9569 12.6906 32.0264C12.6906 33.0959 13.5606 33.9659 14.6301 33.9659C15.6996 33.9659 16.5696 33.0959 16.5696 32.0264C16.5696 30.9569 15.6996 30.0869 14.6301 30.0869Z" fill="#1E1E1E"/>
<path d="M54.7112 30.0869C53.6417 30.0869 52.7717 30.9569 52.7717 32.0264C52.7717 33.0959 53.6417 33.9659 54.7112 33.9659C55.7807 33.9659 56.6507 33.0959 56.6507 32.0264C56.6507 30.9569 55.7807 30.0869 54.7112 30.0869Z" fill="#1E1E1E"/>
<path d="M62.6553 17.6537L55.4373 15.2477L52.0637 5.9705C51.6425 4.81237 50.5317 4.03425 49.2993 4.03425H40.6183V1.96562C40.6183 0.896123 39.7483 0.026123 38.6788 0.026123H2.60616C1.53666 0.026123 0.666656 0.896248 0.666656 1.96575V29.0202C0.666656 30.0897 1.53666 30.9597 2.60616 30.9597H8.78041C8.71741 31.306 8.68278 31.6621 8.68278 32.0262C8.68278 35.3057 11.3509 37.9739 14.6304 37.9739C17.9099 37.9739 20.578 35.3057 20.578 32.0262C20.578 31.662 20.5434 31.306 20.4804 30.9597H48.8613C48.7983 31.306 48.7637 31.6621 48.7637 32.0262C48.7637 35.3057 51.4318 37.9739 54.7113 37.9739C57.9908 37.9739 60.6589 35.3057 60.6589 32.0262C60.6589 31.563 60.6039 31.1125 60.5033 30.6795L62.4872 29.6876C63.8314 29.0152 64.6667 27.6636 64.6667 26.1602V20.4444C64.6667 19.1764 63.8584 18.0549 62.6553 17.6537ZM2.54166 1.96575C2.54166 1.93012 2.57053 1.90112 2.60616 1.90112H38.6788C38.7144 1.90112 38.7433 1.93 38.7433 1.96562V22.0705H2.54166V1.96575ZM14.6303 36.0989C12.3847 36.0989 10.5577 34.2719 10.5577 32.0262C10.5577 29.7806 12.3847 27.9536 14.6303 27.9536C16.8759 27.9536 18.7029 29.7806 18.7029 32.0262C18.703 34.2719 16.876 36.0989 14.6303 36.0989ZM38.7433 29.0846H19.7964C18.771 27.291 16.8402 26.0786 14.6303 26.0786C12.4204 26.0786 10.4897 27.291 9.46428 29.0846H2.60616C2.57053 29.0846 2.54166 29.0557 2.54166 29.0201V23.9455H38.7433V29.0846ZM51.5039 9.91737L53.3727 15.0565H51.3597L49.4909 9.91737H51.5039ZM40.6183 5.90925H49.2993C49.7462 5.90925 50.1489 6.19137 50.3017 6.61125L50.822 8.04225H40.6183V5.90925ZM40.6183 9.91737H47.4958L49.3645 15.0565H40.6183V9.91737ZM54.711 36.0989C52.4654 36.0989 50.6384 34.2719 50.6384 32.0262C50.6384 29.7806 52.4654 27.9536 54.711 27.9536C56.9567 27.9536 58.7837 29.7806 58.7837 32.0262C58.7837 34.2719 56.9567 36.0989 54.711 36.0989ZM62.7917 22.0704H61.7252C61.2074 22.0704 60.7877 22.4901 60.7877 23.0079C60.7877 23.5256 61.2074 23.9454 61.7252 23.9454H62.7917V26.1601C62.7917 26.9489 62.3535 27.6577 61.6483 28.0105L59.7924 28.9384C58.7474 27.225 56.8607 26.0786 54.711 26.0786C52.5012 26.0786 50.5704 27.291 49.545 29.0846H40.6183V23.9455H57.7172C58.2349 23.9455 58.6547 23.5257 58.6547 23.008C58.6547 22.4902 58.2349 22.0705 57.7172 22.0705H40.6183V16.9314H54.5589L62.0624 19.4325C62.4987 19.5779 62.7917 19.9845 62.7917 20.4442V22.0704Z" fill="#1E1E1E"/>
<path d="M32.1299 11.1718L25.1157 7.16382C24.6664 6.90695 24.0936 7.0632 23.8366 7.5127C23.5797 7.96232 23.7359 8.53495 24.1855 8.79182L28.1345 11.0484H9.62036C9.10261 11.0484 8.68286 11.4682 8.68286 11.9859C8.68286 12.5037 9.10261 12.9233 9.62036 12.9233H28.1345L24.1855 15.1799C23.736 15.4368 23.5797 16.0094 23.8366 16.4591C24.0096 16.7618 24.326 16.9316 24.6515 16.9316C24.8092 16.9316 24.9691 16.8917 25.1157 16.8078L32.1299 12.7998C32.4219 12.6329 32.6022 12.3223 32.6022 11.9858C32.6022 11.6493 32.422 11.3388 32.1299 11.1718Z" fill="#1E1E1E"/>
</svg>
