<svg width="46" height="46" viewBox="0 0 46 46" fill="none" xmlns="http://www.w3.org/2000/svg">
<g clip-path="url(#clip0_182_15719)">
<path d="M44.1788 10.1497L23.293 0.0669175C23.1078 -0.0223872 22.8922 -0.0223872 22.7071 0.0669175L1.82124 10.1497C1.58836 10.2621 1.44039 10.498 1.44039 10.7565V35.2433C1.44039 35.5019 1.58836 35.7378 1.82124 35.8502L22.707 45.933C22.7996 45.9776 22.8998 46 23 46C23.1002 46 23.2004 45.9776 23.293 45.933L44.1788 35.8502C44.4117 35.7378 44.5596 35.5019 44.5596 35.2433V10.7566C44.5596 10.4979 44.4116 10.2622 44.1788 10.1497ZM23 1.42203L42.3359 10.7565L36.7308 13.4624C36.6954 13.4354 36.6579 13.4104 36.6167 13.3906L17.4122 4.11959L23 1.42203ZM15.8904 4.88146L35.1982 14.2024L31.2437 16.1115L11.9439 6.79433L15.8904 4.88146ZM35.6499 15.4807V22.5376L31.9562 24.3208V17.2639L35.6499 15.4807ZM43.212 34.8205L23.6738 44.2525V21.2622L28.3343 19.0124C28.6694 18.8505 28.8099 18.4478 28.6481 18.1126C28.4863 17.7775 28.0836 17.6369 27.7484 17.7987L23 20.0911L21.1316 19.1891C20.7964 19.0271 20.3937 19.1678 20.2318 19.5029C20.07 19.838 20.2106 20.2409 20.5457 20.4027L22.3262 21.2622V44.2525L2.78805 34.8204V11.8301L17.6662 19.0126C17.7606 19.0583 17.8604 19.0798 17.9586 19.0798C18.2091 19.0798 18.4497 18.9395 18.5659 18.6988C18.7277 18.3637 18.5872 17.9608 18.252 17.799L3.66411 10.7565L10.3579 7.52503L30.5992 17.2967C30.6021 17.3008 30.6055 17.3045 30.6085 17.3086V25.3944C30.6085 25.6263 30.7277 25.8418 30.9241 25.9652C31.0332 26.0336 31.1577 26.0682 31.2824 26.0682C31.3824 26.0682 31.4825 26.046 31.5753 26.0012L36.6167 23.5674C36.8496 23.455 36.9976 23.2193 36.9976 22.9606V14.8302L43.212 11.8302V34.8205Z" fill="#1E1E1E"/>
<path d="M8.34839 32.207L5.28337 30.7274C4.94807 30.5654 4.54539 30.7061 4.38359 31.0412C4.22178 31.3764 4.36229 31.7792 4.69741 31.941L7.76243 33.4206C7.85686 33.4663 7.95667 33.4879 8.05487 33.4879C8.30536 33.4879 8.54596 33.3475 8.66213 33.1068C8.82403 32.7716 8.68351 32.3689 8.34839 32.207Z" fill="#1E1E1E"/>
<path d="M11.1696 30.371L5.28798 27.5315C4.95277 27.3697 4.55 27.5102 4.38819 27.8454C4.22647 28.1806 4.36699 28.5834 4.70211 28.7452L10.5837 31.5847C10.6782 31.6302 10.778 31.6519 10.8762 31.6519C11.1267 31.6519 11.3673 31.5115 11.4834 31.2708C11.6452 30.9355 11.5047 30.5327 11.1696 30.371Z" fill="#1E1E1E"/>
</g>
<defs>
<clipPath id="clip0_182_15719">
<rect width="46" height="46" fill="white"/>
</clipPath>
</defs>
</svg>
