<svg width="51" height="50" viewBox="0 0 51 50" fill="none" xmlns="http://www.w3.org/2000/svg">
<g clip-path="url(#clip0_182_15751)">
<path d="M47.9274 14.2852C47.7539 13.9197 47.3167 13.7643 46.9516 13.9379C46.5862 14.1114 46.4307 14.5483 46.6043 14.9138C48.107 18.077 48.8689 21.4705 48.8689 25.0001C48.8689 31.2866 46.4209 37.1968 41.9757 41.642C37.5305 46.0872 31.6203 48.5353 25.3337 48.5353C21.6055 48.5353 18.0401 47.6892 14.7368 46.0205C11.9843 44.6301 9.4977 42.678 7.47856 40.3323L10.3683 41.2956C10.752 41.4235 11.1668 41.2161 11.2948 40.8323C11.4227 40.4485 11.2153 40.0338 10.8315 39.9059L5.63129 38.1725C5.39047 38.0923 5.12524 38.1423 4.93041 38.305C4.73559 38.4677 4.63881 38.7196 4.67465 38.9709L5.54135 45.0378C5.5936 45.4031 5.90688 45.6667 6.26557 45.6667C6.30004 45.6667 6.3349 45.6643 6.37006 45.6593C6.77055 45.602 7.04877 45.2311 6.99155 44.8307L6.50795 41.4456C8.627 43.8655 11.2157 45.8829 14.0764 47.328C17.5864 49.1011 21.3739 50.0001 25.3337 50.0001C32.0115 50.0001 38.2896 47.3996 43.0115 42.6778C47.7333 37.9559 50.3338 31.6778 50.3338 25.0001C50.3338 21.2514 49.5242 17.6464 47.9274 14.2852Z" fill="#1E1E1E"/>
<path d="M45.9925 11.0293L45.1258 4.9624C45.0686 4.56191 44.6967 4.28389 44.2972 4.34092C43.8967 4.39814 43.6185 4.76914 43.6757 5.16953L44.1588 8.55117C39.4025 3.10156 32.6124 0 25.3333 0C18.6556 0 12.3776 2.60049 7.65558 7.32227C2.9338 12.0442 0.333313 18.3223 0.333313 25C0.333313 28.7488 1.14298 32.3539 2.73966 35.7149C2.86505 35.9789 3.12775 36.1333 3.40177 36.1333C3.50704 36.1333 3.61407 36.1105 3.71554 36.0622C4.08087 35.8887 4.23634 35.4518 4.0628 35.0863C2.56007 31.9233 1.79816 28.5298 1.79816 25C1.79816 18.7135 4.2462 12.8033 8.69142 8.35811C13.1366 3.91289 19.0468 1.46484 25.3333 1.46484C32.2528 1.46484 38.7027 4.44277 43.1864 9.66709L40.2988 8.70459C39.9149 8.57646 39.5002 8.78408 39.3724 9.16787C39.2445 9.55166 39.4518 9.96641 39.8356 10.0943L45.0358 11.8277C45.1115 11.8529 45.1897 11.8653 45.2673 11.8653C45.4364 11.8653 45.603 11.8067 45.7367 11.6952C45.9316 11.5325 46.0283 11.2806 45.9925 11.0293Z" fill="#1E1E1E"/>
<path d="M23.2979 32.8787H15.9303C16.2246 30.3152 18.0461 28.5953 19.9651 26.7834C21.9637 24.8963 24.0303 22.9449 24.0303 20.0147C24.0303 17.6116 21.8756 15.6566 19.2272 15.6566C16.5788 15.6566 14.4241 17.6116 14.4241 20.0147C14.4241 20.4192 14.752 20.7471 15.1565 20.7471C15.561 20.7471 15.8889 20.4192 15.8889 20.0147C15.8889 18.4193 17.3864 17.1214 19.2272 17.1214C21.068 17.1214 22.5655 18.4193 22.5655 20.0147C22.5655 22.3135 20.8138 23.9674 18.9594 25.7184C16.8335 27.7256 14.4241 30.0007 14.4241 33.6111C14.4241 34.0156 14.752 34.3436 15.1565 34.3436H23.2979C23.7024 34.3436 24.0303 34.0156 24.0303 33.6111C24.0303 33.2067 23.7024 32.8787 23.2979 32.8787Z" fill="#1E1E1E"/>
<path d="M35.5103 28.1816H34.6771V16.3889C34.6771 15.9844 34.3493 15.6565 33.9447 15.6565C33.5401 15.6565 33.2123 15.9844 33.2123 16.3889V28.1817H26.999L29.1847 16.524C29.2593 16.1264 28.9974 15.7436 28.5999 15.6691C28.2027 15.595 27.8197 15.8564 27.7451 16.254L25.3966 28.7792C25.3565 28.9933 25.4137 29.2142 25.5529 29.3819C25.6921 29.5496 25.8986 29.6465 26.1165 29.6465H33.2123V33.6111C33.2123 34.0155 33.5401 34.3434 33.9447 34.3434C34.3493 34.3434 34.6771 34.0155 34.6771 33.611V29.6464H35.5103C35.9149 29.6464 36.2427 29.3185 36.2427 28.914C36.2427 28.5095 35.9149 28.1816 35.5103 28.1816Z" fill="#1E1E1E"/>
<path d="M25.3333 3.91412C24.9288 3.91412 24.6009 4.24205 24.6009 4.64655V7.77779C24.6009 8.18229 24.9288 8.51022 25.3333 8.51022C25.7379 8.51022 26.0657 8.18229 26.0657 7.77779V4.64655C26.0657 4.24205 25.7379 3.91412 25.3333 3.91412Z" fill="#1E1E1E"/>
<path d="M25.3333 41.4897C24.9288 41.4897 24.6009 41.8177 24.6009 42.2222V45.3534C24.6009 45.7579 24.9288 46.0858 25.3333 46.0858C25.7379 46.0858 26.0657 45.7579 26.0657 45.3534V42.2222C26.0657 41.8177 25.7379 41.4897 25.3333 41.4897Z" fill="#1E1E1E"/>
<path d="M45.6862 24.2676H42.555C42.1504 24.2676 41.8226 24.5955 41.8226 25C41.8226 25.4045 42.1504 25.7324 42.555 25.7324H45.6862C46.0908 25.7324 46.4187 25.4045 46.4187 25C46.4187 24.5955 46.0908 24.2676 45.6862 24.2676Z" fill="#1E1E1E"/>
<path d="M8.11111 24.2676H4.97986C4.57537 24.2676 4.24744 24.5955 4.24744 25C4.24744 25.4045 4.57537 25.7324 4.97986 25.7324H8.11111C8.5156 25.7324 8.84353 25.4045 8.84353 25C8.84353 24.5955 8.5156 24.2676 8.11111 24.2676Z" fill="#1E1E1E"/>
</g>
<defs>
<clipPath id="clip0_182_15751">
<rect width="50" height="50" fill="white" transform="translate(0.333313)"/>
</clipPath>
</defs>
</svg>
