<svg width="20" height="20" viewBox="0 0 20 20" fill="none" xmlns="http://www.w3.org/2000/svg">
<circle cx="10" cy="10" r="10" fill="#029FAE"/>
<path d="M10.0015 14.12C8.98555 14.12 8.20155 13.776 7.64955 13.088C7.10555 12.4 6.83355 11.384 6.83355 10.04C6.83355 8.696 7.10555 7.68 7.64955 6.992C8.20155 6.304 8.98555 5.96 10.0015 5.96C11.0175 5.96 11.7975 6.304 12.3415 6.992C12.8935 7.68 13.1695 8.696 13.1695 10.04C13.1695 11.384 12.8935 12.4 12.3415 13.088C11.7975 13.776 11.0175 14.12 10.0015 14.12ZM10.0015 12.788C10.3455 12.788 10.6255 12.692 10.8415 12.5C11.0655 12.3 11.2335 12 11.3455 11.6C11.4575 11.192 11.5135 10.672 11.5135 10.04C11.5135 9.408 11.4575 8.892 11.3455 8.492C11.2335 8.084 11.0655 7.784 10.8415 7.592C10.6255 7.392 10.3455 7.292 10.0015 7.292C9.65755 7.292 9.37355 7.392 9.14955 7.592C8.92555 7.784 8.75755 8.084 8.64555 8.492C8.54155 8.892 8.48955 9.408 8.48955 10.04C8.48955 10.672 8.54155 11.192 8.64555 11.6C8.75755 12 8.92555 12.3 9.14955 12.5C9.37355 12.692 9.65755 12.788 10.0015 12.788Z" fill="white"/>
</svg>
