<svg width="22" height="20" viewBox="0 0 22 20" fill="none" xmlns="http://www.w3.org/2000/svg">
<path fill-rule="evenodd" clip-rule="evenodd" d="M21.0837 17.3922C20.6035 13.73 19.4968 5.28862 19.0667 2.00763C18.9161 0.859077 17.9371 0 16.7785 0C13.9027 0 7.20065 0 4.32483 0C3.16643 0 2.18748 0.859077 2.03683 2.00763C1.60656 5.28862 0.499848 13.73 0.0196019 17.3922C-0.0667981 18.051 0.135048 18.7151 0.573202 19.2143C1.01136 19.7137 1.64348 20 2.30785 20H18.7957C19.4601 20 20.0922 19.7137 20.5304 19.2143C20.9685 18.7151 21.1701 18.051 21.0837 17.3922ZM5.93369 3.84714C5.93369 6.39434 8.00163 8.46252 10.5491 8.46252C13.0963 8.46252 15.1645 6.39434 15.1645 3.84714C15.1645 3.42252 14.8196 3.07791 14.3952 3.07791C13.9706 3.07791 13.626 3.42252 13.626 3.84714C13.626 5.54535 12.2473 6.92406 10.5491 6.92406C8.85086 6.92406 7.47216 5.54535 7.47216 3.84714C7.47216 3.42252 7.12729 3.07791 6.70292 3.07791C6.27831 3.07791 5.93369 3.42252 5.93369 3.84714Z" fill="#1E1E1E"/>
</svg>
