<svg width="61" height="60" viewBox="0 0 61 60" fill="none" xmlns="http://www.w3.org/2000/svg">
<rect x="0.666687" width="60" height="60" rx="30" fill="white"/>
<g clip-path="url(#clip0_182_94)">
<path d="M30.1204 17.0598C26.7324 17.2543 23.5552 18.5708 21.0192 20.831L24.9413 24.753C26.4172 23.5242 28.2094 22.7817 30.1204 22.6071V17.0598Z" fill="#029FAE"/>
<path d="M23.6986 25.9955L19.7766 22.0735C17.5146 24.6088 16.1964 27.7863 16.0007 31.1751H21.5482C21.7239 29.2637 22.4681 27.4714 23.6986 25.9955Z" fill="#029FAE"/>
<path d="M40.4519 31.1751H45.9994C45.8037 27.7863 44.4856 24.6088 42.2234 22.0735L38.3015 25.9955C39.532 27.4713 40.2761 29.2637 40.4519 31.1751Z" fill="#029FAE"/>
<path d="M40.4499 32.9329C40.3266 34.2866 39.9403 35.4157 39.4834 36.3214C39.9291 37.0088 40.3007 37.5897 40.5463 37.9754C41.2148 39.0261 41.0668 40.3749 40.1863 41.2555C39.9724 41.4693 39.7282 41.6415 39.4636 41.7689L40.377 42.6823C40.5489 42.8543 40.7742 42.9402 40.9995 42.9402C41.2249 42.9402 41.4502 42.8543 41.622 42.6823C44.2543 40.0504 45.7892 36.6159 45.9992 32.9329H40.4499Z" fill="#029FAE"/>
<path d="M21.5491 32.9329H15.9997C16.2098 36.6159 17.7446 40.0504 20.3768 42.6824C20.5487 42.8543 20.774 42.9403 20.9993 42.9403C21.2246 42.9403 21.45 42.8543 21.6219 42.6824L24.2886 40.0155C24.6324 39.6717 24.6324 39.1142 24.2886 38.7704C23.5927 38.0745 21.8397 36.1261 21.5491 32.9329Z" fill="#029FAE"/>
<path d="M40.9798 20.831C38.4438 18.5708 35.2666 17.2543 31.8786 17.0598V22.6071C33.7896 22.7817 35.5818 23.5242 37.0578 24.753L40.9798 20.831Z" fill="#029FAE"/>
<path d="M32.9522 30.1159C31.8754 29.0391 30.1233 29.0391 29.0465 30.1159C27.9698 31.1926 27.9698 32.9447 29.0465 34.0215C30.4068 35.3818 37.0921 39.6504 37.85 40.1326C38.1975 40.3538 38.652 40.3039 38.9433 40.0126C39.2346 39.7213 39.2845 39.2668 39.0633 38.9192C38.581 38.1614 34.3125 31.4761 32.9522 30.1159Z" fill="#029FAE"/>
</g>
<defs>
<clipPath id="clip0_182_94">
<rect width="30" height="30" fill="white" transform="translate(15.9997 15)"/>
</clipPath>
</defs>
</svg>
