<svg width="74" height="32" viewBox="0 0 74 32" fill="none" xmlns="http://www.w3.org/2000/svg">
<rect width="74" height="32" rx="4" fill="white"/>
<rect x="0.5" y="0.5" width="73" height="31" rx="3.5" stroke="#1E1E1E" stroke-opacity="0.1"/>
<path fill-rule="evenodd" clip-rule="evenodd" d="M63.4332 16.3673C63.4332 12.6077 61.6122 9.64111 58.1316 9.64111C54.6363 9.64111 52.5215 12.6077 52.5215 16.338C52.5215 20.7586 55.0182 22.9908 58.6015 22.9908C60.3491 22.9908 61.6709 22.5943 62.6695 22.0362V19.0989C61.6708 19.5983 60.5254 19.9066 59.0714 19.9066C57.6469 19.9066 56.3838 19.4072 56.2223 17.6743H63.4038C63.4039 17.4834 63.4332 16.7197 63.4332 16.3673ZM56.1784 14.9721C56.1784 13.3125 57.1917 12.6224 58.1169 12.6224C59.0128 12.6224 59.9674 13.3126 59.9674 14.9721H56.1784Z" fill="#1E1E1E"/>
<path fill-rule="evenodd" clip-rule="evenodd" d="M46.8551 9.64062C45.4159 9.64062 44.4906 10.3162 43.9765 10.7862L43.7856 9.87564H40.5547V26.9997L44.2262 26.2213L44.2409 22.0651C44.7696 22.447 45.5479 22.9903 46.8403 22.9903C49.4691 22.9903 51.863 20.8755 51.863 16.22C51.8484 11.961 49.4251 9.64062 46.8551 9.64062ZM45.9739 19.7594C45.1073 19.7594 44.5934 19.4509 44.2409 19.0691L44.2262 13.6206C44.6081 13.1947 45.1368 12.901 45.9739 12.901C47.3103 12.901 48.2355 14.3989 48.2355 16.3228C48.2355 18.2908 47.325 19.7594 45.9739 19.7594Z" fill="#1E1E1E"/>
<path fill-rule="evenodd" clip-rule="evenodd" d="M35.5 8.77438L39.1862 7.98136V5L35.5 5.77846V8.77438Z" fill="#1E1E1E"/>
<path d="M39.1862 9.89062H35.5V22.7409H39.1862V9.89062Z" fill="#1E1E1E"/>
<path fill-rule="evenodd" clip-rule="evenodd" d="M31.5517 10.9773L31.3167 9.89052H28.1445V22.7408H31.8161V14.032C32.6825 12.9011 34.1511 13.1068 34.6064 13.2683V9.89052C34.1365 9.71436 32.4182 9.39127 31.5517 10.9773Z" fill="#1E1E1E"/>
<path fill-rule="evenodd" clip-rule="evenodd" d="M24.2076 6.70361L20.6242 7.46731L20.6095 19.2308C20.6095 21.4044 22.2396 23.0052 24.4132 23.0052C25.6175 23.0052 26.4986 22.785 26.9833 22.5205V19.5393C26.5134 19.7302 24.193 20.4057 24.193 18.2322V13.0186H26.9833V9.89056H24.193L24.2076 6.70361Z" fill="#1E1E1E"/>
<path fill-rule="evenodd" clip-rule="evenodd" d="M14.2801 13.6206C14.2801 13.0478 14.75 12.8276 15.5284 12.8276C16.6445 12.8276 18.0544 13.1653 19.1706 13.7675V10.3162C17.9516 9.83165 16.7473 9.64062 15.5284 9.64062C12.5471 9.64063 10.5645 11.1974 10.5645 13.7968C10.5645 17.8502 16.1452 17.204 16.1452 18.9517C16.1452 19.6272 15.5578 19.8475 14.7353 19.8475C13.5164 19.8475 11.9597 19.3482 10.7261 18.6727V22.168C12.0918 22.7554 13.4724 23.0051 14.7353 23.0051C17.79 23.0051 19.8902 21.4923 19.8902 18.8636C19.8755 14.4871 14.2801 15.2655 14.2801 13.6206Z" fill="#1E1E1E"/>
</svg>
