<svg width="6" height="13" viewBox="0 0 6 13" fill="none" xmlns="http://www.w3.org/2000/svg">
<path d="M3.00234 0.259999C3.64234 0.259999 4.14634 0.435999 4.51434 0.787999C4.89834 1.14 5.09034 1.612 5.09034 2.204C5.09034 2.812 4.89834 3.292 4.51434 3.644C4.14634 3.98 3.64234 4.148 3.00234 4.148C2.36234 4.148 1.85034 3.98 1.46634 3.644C1.09834 3.292 0.914344 2.812 0.914344 2.204C0.914344 1.612 1.09834 1.14 1.46634 0.787999C1.85034 0.435999 2.36234 0.259999 3.00234 0.259999ZM3.00234 8.828C3.64234 8.828 4.14634 9.004 4.51434 9.356C4.89834 9.708 5.09034 10.18 5.09034 10.772C5.09034 11.38 4.89834 11.86 4.51434 12.212C4.14634 12.548 3.64234 12.716 3.00234 12.716C2.36234 12.716 1.85034 12.548 1.46634 12.212C1.09834 11.86 0.914344 11.38 0.914344 10.772C0.914344 10.18 1.09834 9.708 1.46634 9.356C1.85034 9.004 2.36234 8.828 3.00234 8.828Z" fill="white"/>
</svg>
