<svg width="98" height="34" viewBox="0 0 98 34" fill="none" xmlns="http://www.w3.org/2000/svg">
<rect width="98" height="34" rx="10" fill="#01AD5A"/>
<path d="M24.424 11.44V12.912H20.808V22H19.096V12.912H15.48V11.44H24.424ZM25.1561 22V14H26.6121L26.7721 15.44C26.9855 14.9173 27.3001 14.5227 27.7161 14.256C28.1428 13.9787 28.6655 13.84 29.2841 13.84C29.4441 13.84 29.6041 13.856 29.7641 13.888C29.9241 13.9093 30.0575 13.9467 30.1641 14L29.9241 15.504C29.8068 15.4613 29.6735 15.4293 29.5241 15.408C29.3855 15.376 29.1935 15.36 28.9481 15.36C28.6175 15.36 28.2921 15.4507 27.9721 15.632C27.6521 15.8027 27.3855 16.064 27.1721 16.416C26.9695 16.768 26.8681 17.216 26.8681 17.76V22H25.1561ZM35.098 22.16C34.298 22.16 33.594 21.9947 32.986 21.664C32.378 21.3333 31.9033 20.8587 31.562 20.24C31.2313 19.6107 31.066 18.864 31.066 18C31.066 17.136 31.2313 16.3947 31.562 15.776C31.9033 15.1467 32.3727 14.6667 32.97 14.336C33.5673 14.0053 34.2447 13.84 35.002 13.84C35.7807 13.84 36.442 14 36.986 14.32C37.53 14.64 37.946 15.0773 38.234 15.632C38.522 16.1867 38.666 16.816 38.666 17.52C38.666 17.712 38.6607 17.8933 38.65 18.064C38.6393 18.2347 38.6233 18.384 38.602 18.512H32.17V17.2H37.85L37.002 17.456C37.002 16.7307 36.8207 16.176 36.458 15.792C36.0953 15.3973 35.5993 15.2 34.97 15.2C34.5113 15.2 34.1113 15.3067 33.77 15.52C33.4287 15.7333 33.1673 16.0533 32.986 16.48C32.8047 16.896 32.714 17.408 32.714 18.016C32.714 18.6133 32.81 19.12 33.002 19.536C33.194 19.952 33.466 20.2667 33.818 20.48C34.17 20.6933 34.586 20.8 35.066 20.8C35.5993 20.8 36.0313 20.6987 36.362 20.496C36.6927 20.2933 36.954 20.0107 37.146 19.648L38.506 20.288C38.314 20.672 38.0527 21.008 37.722 21.296C37.402 21.5733 37.018 21.7867 36.57 21.936C36.122 22.0853 35.6313 22.16 35.098 22.16ZM40.828 22V14H42.348L42.46 16.08L42.236 15.856C42.3853 15.3973 42.5987 15.0187 42.876 14.72C43.164 14.4107 43.5 14.1867 43.884 14.048C44.2787 13.9093 44.6947 13.84 45.132 13.84C45.6973 13.84 46.204 13.952 46.652 14.176C47.1107 14.3893 47.4733 14.7147 47.74 15.152C48.0067 15.5893 48.14 16.144 48.14 16.816V22H46.428V17.344C46.428 16.5547 46.2627 16.0107 45.932 15.712C45.612 15.4027 45.2067 15.248 44.716 15.248C44.364 15.248 44.0227 15.3333 43.692 15.504C43.3613 15.664 43.084 15.9253 42.86 16.288C42.6467 16.6507 42.54 17.136 42.54 17.744V22H40.828ZM53.8063 22.16C53.1449 22.16 52.5423 21.9947 51.9983 21.664C51.4649 21.3333 51.0436 20.8587 50.7343 20.24C50.4249 19.6213 50.2703 18.88 50.2703 18.016C50.2703 17.12 50.4356 16.3627 50.7663 15.744C51.0969 15.1253 51.5396 14.656 52.0943 14.336C52.6489 14.0053 53.2569 13.84 53.9183 13.84C54.6009 13.84 55.1769 14.0267 55.6463 14.4C56.1156 14.7733 56.4303 15.2587 56.5903 15.856L56.3983 16.032V10.4H58.1103V22H56.5903L56.4623 19.824L56.6863 19.84C56.6116 20.32 56.4356 20.736 56.1583 21.088C55.8809 21.4293 55.5343 21.696 55.1183 21.888C54.7129 22.0693 54.2756 22.16 53.8063 22.16ZM54.1743 20.784C54.6329 20.784 55.0276 20.6667 55.3583 20.432C55.6889 20.1973 55.9449 19.8667 56.1263 19.44C56.3076 19.0133 56.3983 18.5013 56.3983 17.904C56.3983 17.3493 56.3076 16.8747 56.1263 16.48C55.9449 16.0747 55.6889 15.7653 55.3583 15.552C55.0383 15.3387 54.6649 15.232 54.2383 15.232C53.5236 15.232 52.9689 15.4773 52.5743 15.968C52.1796 16.4587 51.9823 17.136 51.9823 18C51.9823 18.864 52.1743 19.5467 52.5583 20.048C52.9423 20.5387 53.4809 20.784 54.1743 20.784ZM61.6295 12.656C61.2562 12.656 60.9682 12.5653 60.7655 12.384C60.5735 12.192 60.4775 11.9253 60.4775 11.584C60.4775 11.2427 60.5735 10.9813 60.7655 10.8C60.9682 10.6187 61.2562 10.528 61.6295 10.528C61.9922 10.528 62.2695 10.6187 62.4615 10.8C62.6642 10.9813 62.7655 11.2427 62.7655 11.584C62.7655 11.9253 62.6642 12.192 62.4615 12.384C62.2695 12.5653 61.9922 12.656 61.6295 12.656ZM62.4775 14V22H60.7655V14H62.4775ZM65.1561 22V14H66.6761L66.7881 16.08L66.5641 15.856C66.7135 15.3973 66.9268 15.0187 67.2041 14.72C67.4921 14.4107 67.8281 14.1867 68.2121 14.048C68.6068 13.9093 69.0228 13.84 69.4601 13.84C70.0255 13.84 70.5321 13.952 70.9801 14.176C71.4388 14.3893 71.8015 14.7147 72.0681 15.152C72.3348 15.5893 72.4681 16.144 72.4681 16.816V22H70.7561V17.344C70.7561 16.5547 70.5908 16.0107 70.2601 15.712C69.9401 15.4027 69.5348 15.248 69.0441 15.248C68.6921 15.248 68.3508 15.3333 68.0201 15.504C67.6895 15.664 67.4121 15.9253 67.1881 16.288C66.9748 16.6507 66.8681 17.136 66.8681 17.744V22H65.1561ZM82.1024 12.32L82.3744 13.664C82.3424 13.664 82.3104 13.664 82.2784 13.664C82.2464 13.6533 82.2144 13.648 82.1824 13.648C81.6704 13.648 81.281 13.76 81.0144 13.984C80.7477 14.1973 80.6144 14.512 80.6144 14.928L79.7824 14.544C79.7824 14.1173 79.873 13.7387 80.0544 13.408C80.2357 13.0667 80.4917 12.8 80.8224 12.608C81.1637 12.416 81.5477 12.32 81.9744 12.32C81.9957 12.32 82.017 12.32 82.0384 12.32C82.0597 12.32 82.081 12.32 82.1024 12.32ZM79.5744 20.752C80.385 20.752 81.0144 20.9333 81.4624 21.296C81.9104 21.648 82.1344 22.1387 82.1344 22.768C82.1344 23.3227 81.9584 23.7973 81.6064 24.192C81.2544 24.5973 80.7744 24.9067 80.1664 25.12C79.569 25.3333 78.881 25.44 78.1024 25.44C76.7904 25.44 75.8197 25.2373 75.1904 24.832C74.561 24.4267 74.2464 23.92 74.2464 23.312C74.2464 22.8853 74.3957 22.512 74.6944 22.192C75.0037 21.872 75.521 21.6907 76.2464 21.648L76.1504 21.904C75.7024 21.808 75.3397 21.6373 75.0624 21.392C74.7957 21.136 74.6624 20.7787 74.6624 20.32C74.6624 19.8613 74.8384 19.472 75.1904 19.152C75.5424 18.832 76.0384 18.6453 76.6784 18.592L77.5744 19.024H77.3824C76.8917 19.0667 76.545 19.1787 76.3424 19.36C76.1397 19.5413 76.0384 19.744 76.0384 19.968C76.0384 20.2347 76.1344 20.432 76.3264 20.56C76.529 20.688 76.8117 20.752 77.1744 20.752H79.5744ZM78.1024 24.16C78.689 24.16 79.169 24.1013 79.5424 23.984C79.9264 23.8773 80.209 23.7333 80.3904 23.552C80.5824 23.3813 80.6784 23.1893 80.6784 22.976C80.6784 22.7307 80.577 22.5333 80.3744 22.384C80.1824 22.2347 79.8304 22.16 79.3184 22.16H76.7424C76.4437 22.16 76.193 22.2347 75.9904 22.384C75.7877 22.544 75.6864 22.7573 75.6864 23.024C75.6864 23.376 75.8997 23.6533 76.3264 23.856C76.753 24.0587 77.345 24.16 78.1024 24.16ZM78.0384 13.84C78.7424 13.84 79.3504 13.952 79.8624 14.176C80.385 14.4 80.785 14.7147 81.0624 15.12C81.3504 15.5253 81.4944 16 81.4944 16.544C81.4944 17.088 81.3504 17.5627 81.0624 17.968C80.785 18.3733 80.385 18.688 79.8624 18.912C79.3504 19.136 78.7424 19.248 78.0384 19.248C76.929 19.248 76.0757 19.0027 75.4784 18.512C74.8917 18.0107 74.5984 17.3547 74.5984 16.544C74.5984 16 74.7424 15.5253 75.0304 15.12C75.3184 14.7147 75.7184 14.4 76.2304 14.176C76.753 13.952 77.3557 13.84 78.0384 13.84ZM78.0384 15.04C77.5477 15.04 77.137 15.1787 76.8064 15.456C76.4864 15.7227 76.3264 16.0853 76.3264 16.544C76.3264 17.0027 76.4864 17.3707 76.8064 17.648C77.137 17.9253 77.5477 18.064 78.0384 18.064C78.5397 18.064 78.9504 17.9253 79.2704 17.648C79.601 17.3707 79.7664 17.0027 79.7664 16.544C79.7664 16.0853 79.601 15.7227 79.2704 15.456C78.9504 15.1787 78.5397 15.04 78.0384 15.04Z" fill="white"/>
</svg>
