<svg width="16" height="12" viewBox="0 0 16 12" fill="none" xmlns="http://www.w3.org/2000/svg">
<path d="M15.1948 2.40225C15.1093 2.0853 14.9424 1.79625 14.7105 1.56388C14.4787 1.3315 14.19 1.1639 13.8733 1.07775C12.6988 0.75525 8 0.75 8 0.75C8 0.75 3.302 0.74475 2.12675 1.053C1.8102 1.14311 1.52212 1.31308 1.29018 1.5466C1.05824 1.78012 0.890217 2.06934 0.802253 2.3865C0.492503 3.561 0.489503 5.997 0.489503 5.997C0.489503 5.997 0.486503 8.445 0.794003 9.6075C0.966503 10.2502 1.47275 10.758 2.11625 10.9312C3.30275 11.2537 7.98875 11.259 7.98875 11.259C7.98875 11.259 12.6875 11.2642 13.862 10.9567C14.1789 10.8708 14.4678 10.7035 14.7002 10.4716C14.9327 10.2397 15.1005 9.95118 15.1873 9.6345C15.4978 8.46075 15.5 6.0255 15.5 6.0255C15.5 6.0255 15.515 3.57675 15.1948 2.40225ZM6.497 8.25375L6.50075 3.75375L10.406 6.0075L6.497 8.25375Z" fill="white"/>
</svg>
