<svg width="18" height="20" viewBox="0 0 18 20" fill="none" xmlns="http://www.w3.org/2000/svg">
<path d="M15.049 10.5693C15.0387 8.92994 15.8345 7.69441 17.4413 6.78339C16.5426 5.58151 15.183 4.92048 13.3907 4.79308C11.6937 4.66809 9.83703 5.71612 9.1572 5.71612C8.43875 5.71612 6.79583 4.83635 5.50313 4.83635C2.83532 4.87481 0.00012207 6.82185 0.00012207 10.7832C0.00012207 11.9539 0.229307 13.163 0.687676 14.4081C1.30055 16.0475 3.50999 20.0641 5.81471 19.9992C7.01986 19.9728 7.87222 19.2012 9.44046 19.2012C10.9624 19.2012 11.7503 19.9992 13.0945 19.9992C15.4199 19.968 17.4181 16.3167 18.0001 14.6725C14.8817 13.3 15.049 10.6534 15.049 10.5693ZM12.3426 3.23785C13.6482 1.7908 13.5297 0.473539 13.4911 0C12.3375 0.0624976 11.0036 0.733145 10.2439 1.55763C9.40699 2.44221 8.91514 3.53592 9.02072 4.76905C10.2671 4.85798 11.4053 4.25945 12.3426 3.23785Z" fill="#313131"/>
</svg>
