<svg width="1440" height="727" viewBox="0 0 1440 727" fill="none" xmlns="http://www.w3.org/2000/svg">
<g opacity="0.1">
<path d="M-291 631.699C567.564 1104.19 821.449 -362.462 1645.62 -33.3865" stroke="#029FAE" stroke-miterlimit="10"/>
<path d="M-288.818 610.11C539.974 1097.39 836.003 -340.888 1646.36 -5.87677" stroke="#029FAE" stroke-miterlimit="10"/>
<path d="M-286.637 588.523C512.382 1090.6 850.558 -319.312 1647.09 21.6352" stroke="#029FAE" stroke-miterlimit="10"/>
<path d="M-284.457 566.934C484.79 1083.8 865.112 -297.738 1647.83 49.145" stroke="#029FAE" stroke-miterlimit="10"/>
<path d="M-282.276 545.344C457.197 1077 879.667 -276.165 1648.56 76.6568" stroke="#029FAE" stroke-miterlimit="10"/>
<path d="M-280.094 523.755C429.605 1070.2 894.221 -254.591 1649.3 104.167" stroke="#029FAE" stroke-miterlimit="10"/>
<path d="M-277.914 502.165C402.012 1063.4 908.774 -233.017 1650.04 131.676" stroke="#029FAE" stroke-miterlimit="10"/>
<path d="M-275.733 480.578C374.42 1056.61 923.33 -211.441 1650.77 159.19" stroke="#029FAE" stroke-miterlimit="10"/>
<path d="M-273.551 458.989C346.828 1049.81 937.886 -189.87 1651.51 186.7" stroke="#029FAE" stroke-miterlimit="10"/>
<path d="M-271.369 437.4C319.236 1043.01 952.439 -168.296 1652.25 214.21" stroke="#029FAE" stroke-miterlimit="10"/>
<path d="M-269.19 415.811C291.644 1036.21 966.993 -146.722 1652.98 241.72" stroke="#029FAE" stroke-miterlimit="10"/>
<path d="M-267.008 394.224C264.053 1029.42 981.548 -125.147 1653.72 269.234" stroke="#029FAE" stroke-miterlimit="10"/>
<path d="M-264.827 372.634C236.461 1022.62 996.104 -103.573 1654.46 296.744" stroke="#029FAE" stroke-miterlimit="10"/>
<path d="M-262.647 351.045C208.867 1015.82 1010.66 -81.9993 1655.19 324.253" stroke="#029FAE" stroke-miterlimit="10"/>
<path d="M-260.465 329.456C181.277 1009.02 1025.21 -60.4254 1655.93 351.766" stroke="#029FAE" stroke-miterlimit="10"/>
<path d="M-258.284 307.868C153.684 1002.23 1039.77 -38.8497 1656.67 379.277" stroke="#029FAE" stroke-miterlimit="10"/>
<path d="M-256.104 286.279C126.09 995.427 1054.32 -17.276 1657.4 406.787" stroke="#029FAE" stroke-miterlimit="10"/>
<path d="M-253.922 264.69C98.4999 988.63 1068.88 4.29773 1658.14 434.297" stroke="#029FAE" stroke-miterlimit="10"/>
<path d="M-251.741 243.101C70.9077 981.83 1083.43 25.8691 1658.88 461.809" stroke="#029FAE" stroke-miterlimit="10"/>
<path d="M-249.562 221.511C43.315 975.031 1097.98 47.4428 1659.61 489.319" stroke="#029FAE" stroke-miterlimit="10"/>
<path d="M-247.38 199.924C15.7228 968.234 1112.54 69.0188 1660.35 516.831" stroke="#029FAE" stroke-miterlimit="10"/>
<path d="M-245.198 178.335C-11.8694 961.437 1127.09 90.5924 1661.09 544.343" stroke="#029FAE" stroke-miterlimit="10"/>
</g>
</svg>
