<svg width="144" height="122" viewBox="0 0 144 122" fill="none" xmlns="http://www.w3.org/2000/svg">
<path d="M127.108 59.1722V22.7075C127.108 22.7028 127.104 22.6994 127.104 22.6947C127.102 22.4419 127.054 22.1856 126.945 21.94C126.908 21.8569 126.84 21.8019 126.793 21.7275C126.749 21.6559 126.707 21.5975 126.654 21.5328C126.432 21.264 126.166 21.05 125.848 20.9365C125.839 20.9331 125.834 20.9225 125.825 20.9194L99.9983 12.1887C99.9958 12.1878 99.9929 12.1872 99.9904 12.1862L64.6436 0.236543C64.2517 0.102793 63.8255 0.102793 63.4336 0.236543L2.25232 20.9537C2.14982 20.9887 2.07514 21.0603 1.98295 21.11C1.92982 21.1378 1.86764 21.135 1.8167 21.1681C1.78482 21.189 1.7717 21.2275 1.74139 21.2503C1.5567 21.3887 1.40826 21.5547 1.28732 21.7459C1.25826 21.7919 1.21545 21.825 1.19045 21.8731C1.06107 22.1209 0.993887 22.3937 0.984199 22.6784C0.983575 22.6969 0.970762 22.7125 0.970762 22.7312L0.537637 89.7359C0.532949 90.4665 0.950137 91.135 1.6092 91.4506L64.7423 121.679C65.0005 121.804 65.2792 121.864 65.5583 121.864L65.5595 121.863L65.5608 121.864C65.8442 121.864 66.1345 121.799 66.4067 121.663L100.942 104.312C105.411 107.798 111.014 109.897 117.108 109.897C131.64 109.897 143.463 98.0744 143.463 83.5431C143.463 72.5515 136.693 63.12 127.108 59.1722ZM117.108 57.1884C105.054 57.1884 94.8873 65.3344 91.7633 76.4031L75.757 83.5865C74.8051 84.0128 74.3789 85.1306 74.8073 86.0803C75.1208 86.7809 75.8098 87.1959 76.5289 87.1959C76.7892 87.1959 77.052 87.1428 77.3011 87.03L90.8861 80.9331C90.8011 81.7922 90.7539 82.6619 90.7539 83.5428C90.7539 85.3678 90.9414 87.1497 91.2964 88.8709L78.5573 94.9556C77.617 95.405 77.2183 96.5322 77.6676 97.4725C77.9904 98.15 78.6679 98.5465 79.3733 98.5465C79.6451 98.5465 79.9217 98.489 80.1845 98.3622L92.3701 92.5415C93.6095 95.9372 95.5195 99.0053 97.9526 101.587L67.4648 116.905L67.872 50.3312L123.333 25.6144V57.9625C121.333 57.4753 119.256 57.1884 117.108 57.1884ZM27.6251 35.129L40.0223 40.3053V59.6615L33.9079 53.6184C33.3617 53.079 32.5436 52.9247 31.8383 53.2265L27.6251 55.029V35.129ZM30.6273 32.2906L82.8301 10.3706L94.0604 14.1672L41.7308 36.9269L30.6273 32.2906ZM99.387 15.9678L120.041 22.95L65.9695 47.0478L46.5605 38.9434L99.387 15.9678ZM64.0395 4.01873L77.4286 8.54498L25.7367 30.2487L8.20139 22.9265L64.0395 4.01873ZM4.72764 25.5678L23.8498 33.5525V57.8915C23.8498 58.5253 24.1679 59.1178 24.6979 59.4681C25.2258 59.8162 25.8986 59.8759 26.4795 59.6272L32.1561 57.1981L40.582 65.5275C40.9439 65.8825 41.4233 66.0715 41.9095 66.0715C42.1561 66.0715 42.4026 66.0256 42.638 65.9262C43.3408 65.6334 43.7973 64.9444 43.7973 64.1837V41.8822L64.0951 50.3578L63.6895 116.987L4.32201 88.5628L4.72764 25.5678ZM117.108 106.122C104.658 106.122 94.5289 95.9931 94.5289 83.5431C94.5289 71.0931 104.658 60.9637 117.108 60.9637C129.558 60.9637 139.688 71.0931 139.688 83.5431C139.688 95.9931 129.558 106.122 117.108 106.122Z" fill="#1E1E1E"/>
<path d="M127.718 73.5099L111.383 88.2381L108.549 84.3493C107.927 83.4969 106.706 83.2931 105.826 83.8955C104.944 84.5022 104.736 85.6858 105.359 86.5404L109.482 92.1986C109.809 92.6454 110.317 92.9328 110.877 92.9906C110.944 92.9975 111.011 93 111.078 93C111.569 93 112.043 92.8216 112.406 92.4928L130.375 76.2892C131.167 75.5757 131.212 74.3761 130.477 73.6095C129.742 72.836 128.502 72.7942 127.718 73.5099Z" fill="#029FAE"/>
</svg>
