<svg width="24" height="24" viewBox="0 0 24 24" fill="none" xmlns="http://www.w3.org/2000/svg">
<path d="M14.0427 16.5092C14.3649 16.5092 14.6262 16.2486 14.6262 15.9273V10.1092C14.6262 9.78788 14.3649 9.52734 14.0427 9.52734C13.7207 9.52734 13.4594 9.78788 13.4594 10.1092V15.9273C13.4594 16.2486 13.7207 16.5092 14.0427 16.5092Z" fill="#029FAE"/>
<path d="M9.95796 16.5092C10.2801 16.5092 10.5413 16.2486 10.5413 15.9273V10.1092C10.5413 9.78788 10.2801 9.52734 9.95796 9.52734C9.63585 9.52734 9.37464 9.78788 9.37464 10.1092V15.9273C9.37464 16.2486 9.63585 16.5092 9.95796 16.5092Z" fill="#029FAE"/>
<path d="M14.3348 5.16364C14.6569 5.16364 14.9181 4.9031 14.9181 4.58182C14.9181 4.26054 14.6569 4 14.3348 4H9.66815C9.34604 4 9.08482 4.26054 9.08482 4.58182C9.08482 4.9031 9.34604 5.16364 9.66815 5.16364H14.3348Z" fill="#029FAE"/>
<path d="M5.58333 5.74512C5.26122 5.74512 5 6.00566 5 6.32694C5 6.64822 5.26122 6.90875 5.58333 6.90875H6.16667V17.6142C6.16667 18.9291 7.24 19.9997 8.55833 19.9997H15.4417C16.7599 19.9997 17.8333 18.9291 17.8333 17.6142V6.90875H18.4166C18.7387 6.90875 19 6.64822 19 6.32694C19 6.00566 18.7387 5.74512 18.4166 5.74512H5.58333ZM16.6666 6.90875V17.6142C16.6666 18.2891 16.1183 18.836 15.4417 18.836H8.55833C7.88167 18.836 7.33333 18.2891 7.33333 17.6142V6.90875H16.6666Z" fill="#029FAE"/>
</svg>
