<svg width="64" height="28" viewBox="0 0 64 28" fill="none" xmlns="http://www.w3.org/2000/svg">
<path fill-rule="evenodd" clip-rule="evenodd" d="M63.9999 14.4445C63.9999 9.89342 61.7955 6.30231 57.5821 6.30231C53.351 6.30231 50.791 9.89342 50.791 14.409C50.791 19.7602 53.8133 22.4623 58.151 22.4623C60.2665 22.4623 61.8666 21.9823 63.0754 21.3067V17.7511C61.8665 18.3556 60.4799 18.7289 58.7198 18.7289C56.9954 18.7289 55.4665 18.1245 55.271 16.0267H63.9642C63.9644 15.7956 63.9999 14.8711 63.9999 14.4445ZM55.2177 12.7556C55.2177 10.7466 56.4444 9.91104 57.5644 9.91104C58.6488 9.91104 59.8044 10.7466 59.8044 12.7556H55.2177Z" fill="#635BFF"/>
<path fill-rule="evenodd" clip-rule="evenodd" d="M43.929 6.30231C42.1868 6.30231 41.0667 7.12003 40.4445 7.689L40.2133 6.5868H36.3022V27.3157L40.7467 26.3735L40.7644 21.3425C41.4044 21.8047 42.3466 22.4624 43.9111 22.4624C47.0933 22.4624 49.9911 19.9024 49.9911 14.2669C49.9735 9.1112 47.0401 6.30231 43.929 6.30231ZM42.8622 18.5512C41.8133 18.5512 41.1912 18.1778 40.7644 17.7156L40.7467 11.12C41.2089 10.6044 41.8489 10.2489 42.8622 10.2489C44.4801 10.2489 45.6 12.0622 45.6 14.3911C45.6001 16.7734 44.4978 18.5512 42.8622 18.5512Z" fill="#635BFF"/>
<path fill-rule="evenodd" clip-rule="evenodd" d="M30.1865 5.25333L34.6487 4.29337V0.684509L30.1865 1.62672V5.25333Z" fill="#635BFF"/>
<path d="M34.6487 6.60443H30.1865V22.1599H34.6487V6.60443Z" fill="#635BFF"/>
<path fill-rule="evenodd" clip-rule="evenodd" d="M25.4047 7.91998L25.1202 6.60441H21.2803V22.1599H25.7247V11.6177C26.7736 10.2488 28.5514 10.4978 29.1025 10.6933V6.60441C28.5336 6.39117 26.4536 6.00006 25.4047 7.91998Z" fill="#635BFF"/>
<path fill-rule="evenodd" clip-rule="evenodd" d="M16.5157 2.74664L12.1779 3.67111L12.1602 17.911C12.1602 20.5422 14.1335 22.48 16.7646 22.48C18.2224 22.48 19.289 22.2133 19.8757 21.8933V18.2844C19.3069 18.5155 16.498 19.3332 16.498 16.7022V10.3911H19.8757V6.60449H16.498L16.5157 2.74664Z" fill="#635BFF"/>
<path fill-rule="evenodd" clip-rule="evenodd" d="M4.49782 11.12C4.49782 10.4266 5.06668 10.16 6.00889 10.16C7.35996 10.16 9.06665 10.5689 10.4178 11.2979V7.12003C8.94228 6.53342 7.48446 6.30231 6.00889 6.30231C2.40003 6.30231 0 8.18673 0 11.3334C0 16.24 6.75561 15.4578 6.75561 17.5734C6.75561 18.3912 6.04451 18.6578 5.04893 18.6578C3.57336 18.6578 1.68893 18.0533 0.195617 17.2356V21.4667C1.84893 22.1778 3.52011 22.4801 5.04893 22.4801C8.74666 22.4801 11.2889 20.6489 11.2889 17.4667C11.2712 12.169 4.49782 13.1112 4.49782 11.12Z" fill="#635BFF"/>
</svg>
