<svg width="20" height="20" viewBox="0 0 20 20" fill="none" xmlns="http://www.w3.org/2000/svg">
<rect width="20" height="20" rx="10" fill="#029FAE"/>
<path d="M11.1442 5.78487L11.5535 5.36879C12.0372 4.87707 12.8791 4.87707 13.3628 5.36879L13.693 5.70449C13.9349 5.95035 14.0698 6.2766 14.0698 6.62175C14.0698 6.9669 13.9349 7.29787 13.693 7.53901L13.2837 7.95508L11.1442 5.78014V5.78487ZM10.6512 6.28605L6.41395 10.5934C6.27907 10.7305 6.19535 10.9102 6.1814 11.104L6.05581 12.4894C6.04186 12.6643 6.10233 12.8345 6.22326 12.9622C6.33488 13.0757 6.47907 13.1371 6.63256 13.1371H6.68372L8.04651 13.0095C8.23721 12.9905 8.41395 12.9054 8.54884 12.7683L12.786 8.46099L10.6465 6.28605H10.6512ZM15 14.6454C15 14.4515 14.8419 14.2908 14.6512 14.2908H5.34884C5.15814 14.2908 5 14.4515 5 14.6454C5 14.8392 5.15814 15 5.34884 15H14.6512C14.8419 15 15 14.8392 15 14.6454Z" fill="white"/>
</svg>
