<svg width="56" height="57" viewBox="0 0 56 57" fill="none" xmlns="http://www.w3.org/2000/svg">
<rect y="0.833313" width="56" height="56" rx="5" fill="white"/>
<rect x="0.5" y="1.33331" width="55" height="55" rx="4.5" stroke="#909090" stroke-opacity="0.2"/>
<path opacity="0.2" d="M16.1375 22.1583C16.0469 22.3139 15.9995 22.4908 16 22.6708V34.9958C16.001 35.1739 16.0488 35.3485 16.1388 35.5021C16.2288 35.6557 16.3577 35.7829 16.5125 35.8708L27.5125 42.0583C27.6608 42.1431 27.8292 42.1862 28 42.1833L28.1125 28.8333L16.1375 22.1583Z" fill="#2DB324"/>
<path d="M40 34.9958V22.6708C39.999 22.4928 39.9512 22.3181 39.8612 22.1645C39.7712 22.0109 39.6423 21.8837 39.4875 21.7958L28.4875 15.6083C28.3393 15.5227 28.1711 15.4777 28 15.4777C27.8289 15.4777 27.6607 15.5227 27.5125 15.6083L16.5125 21.7958C16.3577 21.8837 16.2288 22.0109 16.1388 22.1645C16.0488 22.3181 16.001 22.4928 16 22.6708V34.9958C16.001 35.1738 16.0488 35.3485 16.1388 35.5021C16.2288 35.6557 16.3577 35.7829 16.5125 35.8708L27.5125 42.0583C27.6607 42.1439 27.8289 42.1889 28 42.1889C28.1711 42.1889 28.3393 42.1439 28.4875 42.0583L39.4875 35.8708C39.6423 35.7829 39.7712 35.6557 39.8612 35.5021C39.9512 35.3485 39.999 35.1738 40 34.9958V34.9958Z" stroke="#2DB324" stroke-width="2" stroke-linecap="round" stroke-linejoin="round"/>
<path d="M34.125 31.8958V25.3958L22 18.7083" stroke="#2DB324" stroke-width="2" stroke-linecap="round" stroke-linejoin="round"/>
<path d="M39.8624 22.1583L28.1125 28.8333L16.1375 22.1583" stroke="#2DB324" stroke-width="2" stroke-linecap="round" stroke-linejoin="round"/>
<path d="M28.1125 28.8333L28 42.1833" stroke="#2DB324" stroke-width="2" stroke-linecap="round" stroke-linejoin="round"/>
</svg>
