<svg width="40" height="40" viewBox="0 0 40 40" fill="none" xmlns="http://www.w3.org/2000/svg">
<g clip-path="url(#clip0_88_3960)">
<path d="M39.2118 35.0797V35.1594H39.2864C39.3004 35.1596 39.3142 35.1561 39.3264 35.1492C39.3313 35.1458 39.3352 35.1412 39.3378 35.1359C39.3404 35.1306 39.3417 35.1247 39.3414 35.1187C39.3417 35.1129 39.3404 35.1071 39.3378 35.1019C39.3352 35.0968 39.3312 35.0923 39.3264 35.0891C39.3144 35.0818 39.3005 35.0783 39.2864 35.0789H39.2118V35.0797ZM39.2872 35.0233C39.3192 35.0213 39.3509 35.0305 39.3768 35.0492C39.3872 35.0577 39.3955 35.0685 39.4009 35.0807C39.4064 35.093 39.4089 35.1064 39.4082 35.1197C39.4087 35.1313 39.4067 35.1427 39.4023 35.1534C39.398 35.1641 39.3914 35.1738 39.383 35.1817C39.363 35.199 39.3379 35.2094 39.3114 35.2114L39.4114 35.3249H39.3344L39.2424 35.2122H39.2126V35.3249H39.1482V35.0235H39.2882L39.2872 35.0233ZM39.2672 35.4289C39.301 35.4293 39.3344 35.4225 39.3654 35.409C39.3953 35.3962 39.4224 35.3779 39.4454 35.355C39.4685 35.3322 39.4869 35.3051 39.4996 35.2753C39.5259 35.2122 39.5259 35.1412 39.4996 35.0781C39.4867 35.0484 39.4683 35.0214 39.4454 34.9984C39.4224 34.9755 39.3953 34.9572 39.3654 34.9444C39.3343 34.9317 39.3009 34.9253 39.2672 34.9257C39.233 34.9254 39.199 34.9317 39.1672 34.9444C39.1367 34.957 39.1089 34.9753 39.0854 34.9984C39.05 35.0346 39.0261 35.0803 39.0166 35.1299C39.0071 35.1795 39.0125 35.2307 39.032 35.2773C39.0442 35.3072 39.0624 35.3343 39.0854 35.357C39.1089 35.3801 39.1367 35.3984 39.1672 35.411C39.1988 35.4244 39.2329 35.4312 39.2672 35.4309V35.4289ZM39.2672 34.8532C39.3551 34.8531 39.4395 34.8874 39.5022 34.9488C39.5324 34.9783 39.5565 35.0134 39.573 35.0522C39.5901 35.092 39.5989 35.1349 39.5989 35.1782C39.5989 35.2215 39.5901 35.2644 39.573 35.3042C39.5561 35.3428 39.5321 35.3779 39.5022 35.4076C39.4715 35.4369 39.4358 35.4605 39.3968 35.4773C39.3558 35.4947 39.3117 35.5035 39.2672 35.5032C39.2222 35.5036 39.1775 35.4948 39.136 35.4773C39.0965 35.4609 39.0605 35.4373 39.0298 35.4076C38.9999 35.3768 38.9762 35.3405 38.96 35.3008C38.9429 35.261 38.9341 35.2181 38.9341 35.1748C38.9341 35.1315 38.9429 35.0886 38.96 35.0488C38.9765 35.01 39.0006 34.9749 39.0308 34.9454C39.0611 34.9152 39.0972 34.8915 39.137 34.8757C39.1785 34.8583 39.2232 34.8495 39.2682 34.8498L39.2672 34.8532ZM8.64323 33.6891C8.64323 33.1143 9.02123 32.6421 9.63903 32.6421C10.2294 32.6421 10.6278 33.094 10.6278 33.6891C10.6278 34.2842 10.2294 34.736 9.63903 34.736C9.02123 34.736 8.64323 34.2638 8.64323 33.6891ZM11.3008 33.6891V32.0534H10.587V32.4519C10.3606 32.1574 10.0172 31.9727 9.55023 31.9727C8.63023 31.9727 7.90823 32.6915 7.90823 33.6899C7.90823 34.6882 8.62983 35.407 9.55023 35.407C10.017 35.407 10.3606 35.2221 10.587 34.9279V35.3249H11.3V33.6891H11.3008ZM35.4192 33.6891C35.4192 33.1143 35.7972 32.6421 36.4152 32.6421C37.0062 32.6421 37.404 33.094 37.404 33.6891C37.404 34.2842 37.0062 34.736 36.4152 34.736C35.7974 34.736 35.4192 34.2638 35.4192 33.6891ZM38.0776 33.6891V30.7405H37.3632V32.4519C37.1368 32.1574 36.7934 31.9727 36.3264 31.9727C35.4064 31.9727 34.6844 32.6915 34.6844 33.6899C34.6844 34.6882 35.406 35.407 36.3264 35.407C36.7934 35.407 37.1368 35.2221 37.3632 34.9279V35.3249H38.0776V33.6891ZM20.16 32.6085C20.62 32.6085 20.9154 32.8957 20.9908 33.4016H19.2876C19.3638 32.9294 19.6516 32.6085 20.1602 32.6085H20.16ZM20.1744 31.9709C19.2124 31.9709 18.5394 32.6682 18.5394 33.6881C18.5394 34.7279 19.2394 35.4052 20.2222 35.4052C20.7166 35.4052 21.1694 35.2823 21.5678 34.947L21.218 34.42C20.9428 34.6392 20.5924 34.7621 20.263 34.7621C19.803 34.7621 19.3842 34.5499 19.2812 33.9612H21.7186C21.7256 33.8728 21.7328 33.7835 21.7328 33.6879C21.7256 32.6684 21.0928 31.9707 20.174 31.9707L20.1744 31.9709ZM28.792 33.6879C28.792 33.1131 29.17 32.6409 29.7878 32.6409C30.3782 32.6409 30.7766 33.0928 30.7766 33.6879C30.7766 34.283 30.3782 34.7348 29.7878 34.7348C29.17 34.7348 28.7918 34.2627 28.7918 33.6879H28.792ZM31.4494 33.6879V32.0534H30.736V32.4519C30.5088 32.1574 30.1662 31.9727 29.6992 31.9727C28.7792 31.9727 28.0572 32.6915 28.0572 33.6899C28.0572 34.6882 28.7788 35.407 29.6992 35.407C30.1662 35.407 30.5088 35.2221 30.736 34.9279V35.3249H31.4496V33.6891L31.4494 33.6879ZM24.761 33.6879C24.761 34.6798 25.4542 35.405 26.5122 35.405C27.0066 35.405 27.336 35.2955 27.6922 35.0151L27.3494 34.4404C27.0814 34.6322 26.8 34.7348 26.4894 34.7348C25.9196 34.7278 25.5006 34.3174 25.5006 33.6879C25.5006 33.0583 25.9196 32.6481 26.4894 32.6409C26.7992 32.6409 27.0806 32.7435 27.3494 32.9354L27.6922 32.3606C27.3354 32.0803 27.006 31.9707 26.5122 31.9707C25.4542 31.9707 24.761 32.6957 24.761 33.6879ZM33.963 31.9707C33.5512 31.9707 33.283 32.1626 33.0976 32.4499V32.0534H32.3902V35.3231H33.1048V33.4902C33.1048 32.9491 33.3382 32.6485 33.8048 32.6485C33.9576 32.6463 34.1093 32.6743 34.2512 32.7308L34.4712 32.0606C34.3132 31.9986 34.1072 31.9713 33.9626 31.9713L33.963 31.9707ZM14.8298 32.3134C14.4864 32.0879 14.0132 31.9713 13.4912 31.9713C12.6596 31.9713 12.1242 32.3684 12.1242 33.0181C12.1242 33.5512 12.5228 33.8801 13.2568 33.9827L13.594 34.0305C13.9854 34.0853 14.1702 34.1879 14.1702 34.3726C14.1702 34.6254 13.9102 34.7697 13.422 34.7697C12.9276 34.7697 12.5708 34.6123 12.3302 34.4276L11.9948 34.9821C12.3862 35.2694 12.8806 35.4064 13.416 35.4064C14.364 35.4064 14.9134 34.9617 14.9134 34.3392C14.9134 33.7644 14.481 33.4637 13.7666 33.3611L13.4302 33.3125C13.1212 33.2727 12.8736 33.2107 12.8736 32.9916C12.8736 32.7525 13.107 32.6086 13.4986 32.6086C13.9176 32.6086 14.3232 32.766 14.522 32.889L14.831 32.3142L14.8298 32.3134ZM24.04 31.9719C23.6282 31.9719 23.36 32.1638 23.1754 32.4511V32.0534H22.468V35.3231H23.1818V33.4902C23.1818 32.9491 23.4152 32.6485 23.8818 32.6485C24.0346 32.6463 24.1863 32.6743 24.3282 32.7308L24.5482 32.0606C24.3902 31.9986 24.1842 31.9713 24.0396 31.9713L24.04 31.9719ZM17.9488 32.0534H16.7816V31.0614H16.06V32.0534H15.3942V32.7033H16.06V34.1949C16.06 34.9536 16.3556 35.4054 17.2 35.4054C17.5098 35.4054 17.8666 35.3098 18.093 35.1526L17.8868 34.5438C17.6738 34.6667 17.4404 34.7286 17.2548 34.7286C16.898 34.7286 16.7816 34.5095 16.7816 34.1814V32.7039H17.9488V32.0534ZM7.27703 35.3239V33.2719C7.27703 32.4991 6.78263 31.9791 5.98563 31.9721C5.56663 31.9651 5.13443 32.095 4.83183 32.5539C4.60543 32.1913 4.24863 31.9721 3.74703 31.9721C3.39643 31.9721 3.05383 32.0747 2.78563 32.4576V32.0534H2.07123V35.3231H2.79123V33.5102C2.79123 32.9426 3.10723 32.6409 3.59523 32.6409C4.06923 32.6409 4.30903 32.9487 4.30903 33.503V35.3227H5.03063V33.5098C5.03063 32.9422 5.36003 32.6405 5.83383 32.6405C6.32123 32.6405 6.55383 32.9483 6.55383 33.5026V35.3223L7.27703 35.3239Z" fill="white"/>
<path d="M39.6188 24.4471V23.969H39.4938L39.3492 24.2971L39.2054 23.969H39.08V24.4471H39.1688V24.0869L39.304 24.3977H39.396L39.5312 24.0861V24.4471H39.6192H39.6188ZM38.8258 24.4471V24.0509H38.9858V23.9702H38.577V24.0509H38.737V24.4471H38.825H38.8258Z" fill="white"/>
<path d="M25.4114 26.4978H14.5942V7.13281H25.4116L25.4114 26.4978Z" fill="white" fill-opacity="0.7"/>
<path d="M15.28 16.8157C15.28 12.8875 17.1264 9.38829 20.0016 7.13322C17.8252 5.42373 15.1334 4.49593 12.3618 4.50001C5.5344 4.50001 0 10.0139 0 16.8157C0 23.6176 5.5344 29.1314 12.3618 29.1314C15.1334 29.1356 17.8254 28.2078 20.0018 26.4982C17.1268 24.2436 15.28 20.7441 15.28 16.8157Z" fill="white"/>
<path d="M40.005 16.8157C40.005 23.6176 34.4706 29.1315 27.6432 29.1315C24.8713 29.1355 22.179 28.2077 20.0022 26.4982C22.8782 24.2432 24.7246 20.7441 24.7246 16.8157C24.7246 12.8873 22.8782 9.38829 20.0022 7.13322C22.179 5.42378 24.8711 4.49601 27.643 4.50001C34.4704 4.50001 40.0048 10.0139 40.0048 16.8157" fill="white"/>
</g>
<defs>
<clipPath id="clip0_88_3960">
<rect width="40" height="40" fill="white"/>
</clipPath>
</defs>
</svg>
