<svg width="296" height="196" viewBox="0 0 296 196" fill="none" xmlns="http://www.w3.org/2000/svg">
<rect width="296" height="196" rx="10" fill="url(#paint0_radial_88_3958)"/>
<g clip-path="url(#clip0_88_3958)">
<path d="M59.2118 167.08V167.159H59.2864C59.3004 167.16 59.3142 167.156 59.3264 167.149C59.3313 167.146 59.3352 167.141 59.3378 167.136C59.3404 167.131 59.3417 167.125 59.3414 167.119C59.3417 167.113 59.3404 167.107 59.3378 167.102C59.3352 167.097 59.3312 167.092 59.3264 167.089C59.3144 167.082 59.3005 167.078 59.2864 167.079H59.2118V167.08ZM59.2872 167.023C59.3192 167.021 59.3509 167.031 59.3768 167.049C59.3872 167.058 59.3955 167.068 59.4009 167.081C59.4064 167.093 59.4089 167.106 59.4082 167.12C59.4087 167.131 59.4067 167.143 59.4023 167.153C59.398 167.164 59.3914 167.174 59.383 167.182C59.363 167.199 59.3379 167.209 59.3114 167.211L59.4114 167.325H59.3344L59.2424 167.212H59.2126V167.325H59.1482V167.024H59.2882L59.2872 167.023ZM59.2672 167.429C59.301 167.429 59.3344 167.422 59.3654 167.409C59.3953 167.396 59.4224 167.378 59.4454 167.355C59.4685 167.332 59.4869 167.305 59.4996 167.275C59.5259 167.212 59.5259 167.141 59.4996 167.078C59.4867 167.048 59.4683 167.021 59.4454 166.998C59.4224 166.976 59.3953 166.957 59.3654 166.944C59.3343 166.932 59.3009 166.925 59.2672 166.926C59.233 166.925 59.199 166.932 59.1672 166.944C59.1367 166.957 59.1089 166.975 59.0854 166.998C59.05 167.035 59.0261 167.08 59.0166 167.13C59.0071 167.179 59.0125 167.231 59.032 167.277C59.0442 167.307 59.0624 167.334 59.0854 167.357C59.1089 167.38 59.1367 167.398 59.1672 167.411C59.1988 167.424 59.2329 167.431 59.2672 167.431V167.429ZM59.2672 166.853C59.3551 166.853 59.4395 166.887 59.5022 166.949C59.5324 166.978 59.5565 167.013 59.573 167.052C59.5901 167.092 59.5989 167.135 59.5989 167.178C59.5989 167.222 59.5901 167.264 59.573 167.304C59.5561 167.343 59.5321 167.378 59.5022 167.408C59.4715 167.437 59.4358 167.461 59.3968 167.477C59.3558 167.495 59.3117 167.504 59.2672 167.503C59.2222 167.504 59.1775 167.495 59.136 167.477C59.0965 167.461 59.0605 167.437 59.0298 167.408C58.9999 167.377 58.9762 167.341 58.96 167.301C58.9429 167.261 58.9341 167.218 58.9341 167.175C58.9341 167.132 58.9429 167.089 58.96 167.049C58.9765 167.01 59.0006 166.975 59.0308 166.945C59.0611 166.915 59.0972 166.892 59.137 166.876C59.1785 166.858 59.2232 166.849 59.2682 166.85L59.2672 166.853ZM28.6432 165.689C28.6432 165.114 29.0212 164.642 29.639 164.642C30.2294 164.642 30.6278 165.094 30.6278 165.689C30.6278 166.284 30.2294 166.736 29.639 166.736C29.0212 166.736 28.6432 166.264 28.6432 165.689ZM31.3008 165.689V164.053H30.587V164.452C30.3606 164.157 30.0172 163.973 29.5502 163.973C28.6302 163.973 27.9082 164.692 27.9082 165.69C27.9082 166.688 28.6298 167.407 29.5502 167.407C30.017 167.407 30.3606 167.222 30.587 166.928V167.325H31.3V165.689H31.3008ZM55.4192 165.689C55.4192 165.114 55.7972 164.642 56.4152 164.642C57.0062 164.642 57.404 165.094 57.404 165.689C57.404 166.284 57.0062 166.736 56.4152 166.736C55.7974 166.736 55.4192 166.264 55.4192 165.689ZM58.0776 165.689V162.74H57.3632V164.452C57.1368 164.157 56.7934 163.973 56.3264 163.973C55.4064 163.973 54.6844 164.692 54.6844 165.69C54.6844 166.688 55.406 167.407 56.3264 167.407C56.7934 167.407 57.1368 167.222 57.3632 166.928V167.325H58.0776V165.689ZM40.16 164.608C40.62 164.608 40.9154 164.896 40.9908 165.402H39.2876C39.3638 164.929 39.6516 164.608 40.1602 164.608H40.16ZM40.1744 163.971C39.2124 163.971 38.5394 164.668 38.5394 165.688C38.5394 166.728 39.2394 167.405 40.2222 167.405C40.7166 167.405 41.1694 167.282 41.5678 166.947L41.218 166.42C40.9428 166.639 40.5924 166.762 40.263 166.762C39.803 166.762 39.3842 166.55 39.2812 165.961H41.7186C41.7256 165.873 41.7328 165.784 41.7328 165.688C41.7256 164.668 41.0928 163.971 40.174 163.971L40.1744 163.971ZM48.792 165.688C48.792 165.113 49.17 164.641 49.7878 164.641C50.3782 164.641 50.7766 165.093 50.7766 165.688C50.7766 166.283 50.3782 166.735 49.7878 166.735C49.17 166.735 48.7918 166.263 48.7918 165.688H48.792ZM51.4494 165.688V164.053H50.736V164.452C50.5088 164.157 50.1662 163.973 49.6992 163.973C48.7792 163.973 48.0572 164.692 48.0572 165.69C48.0572 166.688 48.7788 167.407 49.6992 167.407C50.1662 167.407 50.5088 167.222 50.736 166.928V167.325H51.4496V165.689L51.4494 165.688ZM44.761 165.688C44.761 166.68 45.4542 167.405 46.5122 167.405C47.0066 167.405 47.336 167.295 47.6922 167.015L47.3494 166.44C47.0814 166.632 46.8 166.735 46.4894 166.735C45.9196 166.728 45.5006 166.317 45.5006 165.688C45.5006 165.058 45.9196 164.648 46.4894 164.641C46.7992 164.641 47.0806 164.744 47.3494 164.935L47.6922 164.361C47.3354 164.08 47.006 163.971 46.5122 163.971C45.4542 163.971 44.761 164.696 44.761 165.688ZM53.963 163.971C53.5512 163.971 53.283 164.163 53.0976 164.45V164.053H52.3902V167.323H53.1048V165.49C53.1048 164.949 53.3382 164.648 53.8048 164.648C53.9576 164.646 54.1093 164.674 54.2512 164.731L54.4712 164.061C54.3132 163.999 54.1072 163.971 53.9626 163.971L53.963 163.971ZM34.8298 164.313C34.4864 164.088 34.0132 163.971 33.4912 163.971C32.6596 163.971 32.1242 164.368 32.1242 165.018C32.1242 165.551 32.5228 165.88 33.2568 165.983L33.594 166.031C33.9854 166.085 34.1702 166.188 34.1702 166.373C34.1702 166.625 33.9102 166.77 33.422 166.77C32.9276 166.77 32.5708 166.612 32.3302 166.428L31.9948 166.982C32.3862 167.269 32.8806 167.406 33.416 167.406C34.364 167.406 34.9134 166.962 34.9134 166.339C34.9134 165.764 34.481 165.464 33.7666 165.361L33.4302 165.313C33.1212 165.273 32.8736 165.211 32.8736 164.992C32.8736 164.752 33.107 164.609 33.4986 164.609C33.9176 164.609 34.3232 164.766 34.522 164.889L34.831 164.314L34.8298 164.313ZM44.04 163.972C43.6282 163.972 43.36 164.164 43.1754 164.451V164.053H42.468V167.323H43.1818V165.49C43.1818 164.949 43.4152 164.648 43.8818 164.648C44.0346 164.646 44.1863 164.674 44.3282 164.731L44.5482 164.061C44.3902 163.999 44.1842 163.971 44.0396 163.971L44.04 163.972ZM37.9488 164.053H36.7816V163.061H36.06V164.053H35.3942V164.703H36.06V166.195C36.06 166.954 36.3556 167.405 37.2 167.405C37.5098 167.405 37.8666 167.31 38.093 167.153L37.8868 166.544C37.6738 166.667 37.4404 166.729 37.2548 166.729C36.898 166.729 36.7816 166.509 36.7816 166.181V164.704H37.9488V164.053ZM27.277 167.324V165.272C27.277 164.499 26.7826 163.979 25.9856 163.972C25.5666 163.965 25.1344 164.095 24.8318 164.554C24.6054 164.191 24.2486 163.972 23.747 163.972C23.3964 163.972 23.0538 164.075 22.7856 164.458V164.053H22.0712V167.323H22.7912V165.51C22.7912 164.943 23.1072 164.641 23.5952 164.641C24.0692 164.641 24.309 164.949 24.309 165.503V167.323H25.0306V165.51C25.0306 164.942 25.36 164.641 25.8338 164.641C26.3212 164.641 26.5538 164.948 26.5538 165.503V167.322L27.277 167.324Z" fill="white"/>
<path d="M59.6188 156.447V155.969H59.4938L59.3492 156.297L59.2054 155.969H59.08V156.447H59.1688V156.087L59.304 156.398H59.396L59.5312 156.086V156.447H59.6192H59.6188ZM58.8258 156.447V156.051H58.9858V155.97H58.577V156.051H58.737V156.447H58.825H58.8258Z" fill="white"/>
<path d="M45.4114 158.498H34.5942V139.133H45.4116L45.4114 158.498Z" fill="white" fill-opacity="0.7"/>
<path d="M35.28 148.816C35.28 144.888 37.1264 141.388 40.0016 139.133C37.8252 137.424 35.1334 136.496 32.3618 136.5C25.5344 136.5 20 142.014 20 148.816C20 155.618 25.5344 161.131 32.3618 161.131C35.1334 161.136 37.8254 160.208 40.0018 158.498C37.1268 156.244 35.28 152.744 35.28 148.816Z" fill="white"/>
<path d="M60.005 148.816C60.005 155.618 54.4706 161.131 47.6432 161.131C44.8713 161.136 42.179 160.208 40.0022 158.498C42.8782 156.243 44.7246 152.744 44.7246 148.816C44.7246 144.887 42.8782 141.388 40.0022 139.133C42.179 137.424 44.8711 136.496 47.643 136.5C54.4704 136.5 60.0048 142.014 60.0048 148.816" fill="white"/>
</g>
<path d="M25.168 40.984C24.464 40.984 23.8133 40.8987 23.216 40.728C22.6187 40.5573 22.0853 40.3227 21.616 40.024C21.1573 39.7253 20.7733 39.3787 20.464 38.984L21.68 37.544C21.9147 37.9067 22.2187 38.2213 22.592 38.488C22.9653 38.744 23.3867 38.9467 23.856 39.096C24.3253 39.2347 24.8053 39.304 25.296 39.304C25.9467 39.304 26.4587 39.1973 26.832 38.984C27.2053 38.7707 27.392 38.456 27.392 38.04C27.392 37.7733 27.2853 37.544 27.072 37.352C26.8693 37.16 26.512 37.0053 26 36.888L23.76 36.376C23.1627 36.2373 22.6507 36.0453 22.224 35.8C21.7973 35.5547 21.472 35.256 21.248 34.904C21.0347 34.5413 20.928 34.1253 20.928 33.656C20.928 33.0373 21.0933 32.488 21.424 32.008C21.7653 31.528 22.2453 31.144 22.864 30.856C23.4933 30.568 24.2507 30.424 25.136 30.424C26.064 30.424 26.88 30.584 27.584 30.904C28.288 31.224 28.8853 31.6987 29.376 32.328L28.224 33.656C27.7973 33.112 27.3227 32.7173 26.8 32.472C26.288 32.216 25.6853 32.088 24.992 32.088C24.5227 32.088 24.1387 32.1467 23.84 32.264C23.5413 32.3707 23.3173 32.52 23.168 32.712C23.0293 32.904 22.96 33.1227 22.96 33.368C22.96 33.56 23.0027 33.736 23.088 33.896C23.1733 34.0453 23.3333 34.1787 23.568 34.296C23.8133 34.4133 24.16 34.5253 24.608 34.632L26.528 35.064C27.5307 35.288 28.2507 35.6187 28.688 36.056C29.136 36.4827 29.36 37.0533 29.36 37.768C29.36 38.4507 29.184 39.032 28.832 39.512C28.48 39.992 27.984 40.36 27.344 40.616C26.7147 40.8613 25.9893 40.984 25.168 40.984ZM24.416 42.472V28.968H25.904V42.472H24.416ZM35.1166 30.312C35.874 30.312 36.53 30.4293 37.0846 30.664C37.65 30.888 38.082 31.2133 38.3806 31.64C38.69 32.056 38.8446 32.5627 38.8446 33.16C38.8446 33.7147 38.706 34.1947 38.4286 34.6C38.162 35.0053 37.7726 35.3147 37.2606 35.528V35.544C37.8793 35.768 38.3646 36.0933 38.7166 36.52C39.0686 36.9467 39.2446 37.4853 39.2446 38.136C39.2446 38.7547 39.074 39.288 38.7326 39.736C38.402 40.184 37.9273 40.536 37.3086 40.792C36.7006 41.0373 35.97 41.16 35.1166 41.16C34.274 41.16 33.5433 41.0373 32.9246 40.792C32.3166 40.536 31.842 40.184 31.5006 39.736C31.17 39.288 31.0046 38.7547 31.0046 38.136C31.0046 37.496 31.1806 36.9627 31.5326 36.536C31.8846 36.0987 32.3753 35.768 33.0046 35.544V35.528C32.4926 35.3253 32.098 35.0213 31.8206 34.616C31.5433 34.2 31.4046 33.7147 31.4046 33.16C31.4046 32.5627 31.554 32.056 31.8526 31.64C32.162 31.2133 32.5993 30.888 33.1646 30.664C33.73 30.4293 34.3806 30.312 35.1166 30.312ZM35.1326 32.008C34.6313 32.008 34.2313 32.1307 33.9326 32.376C33.634 32.6213 33.4846 32.9627 33.4846 33.4C33.4846 33.8373 33.634 34.1787 33.9326 34.424C34.2313 34.6693 34.6313 34.792 35.1326 34.792C35.6233 34.792 36.0126 34.6693 36.3006 34.424C36.5993 34.1787 36.7486 33.8373 36.7486 33.4C36.7486 32.9627 36.6046 32.6213 36.3166 32.376C36.0286 32.1307 35.634 32.008 35.1326 32.008ZM35.1326 39.448C35.538 39.448 35.8846 39.3893 36.1726 39.272C36.4606 39.1547 36.6793 38.9787 36.8286 38.744C36.9886 38.5093 37.0686 38.232 37.0686 37.912C37.0686 37.592 36.9886 37.3147 36.8286 37.08C36.6793 36.8453 36.4553 36.6693 36.1566 36.552C35.8686 36.424 35.5273 36.36 35.1326 36.36C34.738 36.36 34.3913 36.424 34.0926 36.552C33.794 36.6693 33.5646 36.8453 33.4046 37.08C33.2446 37.3147 33.1646 37.592 33.1646 37.912C33.1646 38.232 33.2446 38.5093 33.4046 38.744C33.5646 38.9787 33.7886 39.1547 34.0766 39.272C34.3753 39.3893 34.7273 39.448 35.1326 39.448ZM40.0913 30.44H48.4593V32.12C47.5739 33.0053 46.8699 33.9173 46.3473 34.856C45.8246 35.7947 45.4459 36.7707 45.2113 37.784C44.9873 38.7973 44.8753 39.8693 44.8753 41H42.6833C42.6833 39.8267 42.8273 38.7013 43.1153 37.624C43.4139 36.536 43.8673 35.5013 44.4753 34.52C45.0939 33.528 45.8779 32.5787 46.8273 31.672L47.2753 32.248H40.0913V30.44ZM49.4428 38.552C49.7841 38.552 50.0668 38.6373 50.2908 38.808C50.5148 38.968 50.6854 39.1867 50.8028 39.464C50.9201 39.7307 50.9788 40.0293 50.9788 40.36C50.9788 40.7973 50.8881 41.2187 50.7068 41.624C50.5361 42.0293 50.2961 42.392 49.9868 42.712C49.6774 43.032 49.3254 43.2827 48.9308 43.464L47.9868 42.712C48.2748 42.5947 48.5361 42.4507 48.7708 42.28C49.0161 42.1093 49.2241 41.9173 49.3948 41.704C49.5654 41.4907 49.6881 41.272 49.7628 41.048L49.6828 41C49.6294 41.032 49.5654 41.0587 49.4908 41.08C49.4161 41.112 49.3094 41.128 49.1708 41.128C49.0001 41.128 48.8294 41.0853 48.6588 41C48.4881 40.904 48.3441 40.7707 48.2268 40.6C48.1094 40.4187 48.0508 40.1947 48.0508 39.928C48.0508 39.64 48.1148 39.3947 48.2428 39.192C48.3708 38.9893 48.5414 38.8347 48.7548 38.728C48.9681 38.6107 49.1974 38.552 49.4428 38.552ZM61.1854 41.16C60.2574 41.16 59.4734 40.968 58.8334 40.584C58.204 40.2 57.6867 39.6133 57.2814 38.824L59.2654 37.832C59.404 38.3013 59.6227 38.68 59.9214 38.968C60.22 39.256 60.6574 39.4 61.2334 39.4C61.628 39.4 61.964 39.3307 62.2414 39.192C62.5187 39.0533 62.732 38.8507 62.8814 38.584C63.0414 38.3173 63.1214 37.992 63.1214 37.608C63.1214 37.224 63.0467 36.904 62.8974 36.648C62.7587 36.3813 62.556 36.184 62.2894 36.056C62.0227 35.9173 61.6867 35.848 61.2814 35.848C61.004 35.848 60.7427 35.8747 60.4974 35.928C60.2627 35.9813 60.0494 36.0667 59.8574 36.184C59.6654 36.2907 59.4947 36.4347 59.3454 36.616L57.6174 36.296L58.2734 30.44H64.6574V32.216H59.9374L59.6174 34.792L59.5694 35H59.6014C59.8254 34.744 60.1294 34.5467 60.5134 34.408C60.908 34.2693 61.356 34.2 61.8574 34.2C62.5507 34.2 63.1427 34.3387 63.6334 34.616C64.124 34.8933 64.5027 35.2827 64.7694 35.784C65.036 36.2747 65.1694 36.84 65.1694 37.48C65.1694 38.088 65.068 38.6267 64.8654 39.096C64.6627 39.5547 64.3747 39.9387 64.0014 40.248C63.6387 40.5467 63.2174 40.776 62.7374 40.936C62.2574 41.0853 61.74 41.16 61.1854 41.16ZM70.8979 30.312C71.6552 30.312 72.3112 30.4293 72.8659 30.664C73.4312 30.888 73.8632 31.2133 74.1619 31.64C74.4712 32.056 74.6259 32.5627 74.6259 33.16C74.6259 33.7147 74.4872 34.1947 74.2099 34.6C73.9432 35.0053 73.5539 35.3147 73.0419 35.528V35.544C73.6605 35.768 74.1459 36.0933 74.4979 36.52C74.8499 36.9467 75.0259 37.4853 75.0259 38.136C75.0259 38.7547 74.8552 39.288 74.5139 39.736C74.1832 40.184 73.7085 40.536 73.0899 40.792C72.4819 41.0373 71.7512 41.16 70.8979 41.16C70.0552 41.16 69.3245 41.0373 68.7059 40.792C68.0979 40.536 67.6232 40.184 67.2819 39.736C66.9512 39.288 66.7859 38.7547 66.7859 38.136C66.7859 37.496 66.9619 36.9627 67.3139 36.536C67.6659 36.0987 68.1565 35.768 68.7859 35.544V35.528C68.2739 35.3253 67.8792 35.0213 67.6019 34.616C67.3245 34.2 67.1859 33.7147 67.1859 33.16C67.1859 32.5627 67.3352 32.056 67.6339 31.64C67.9432 31.2133 68.3805 30.888 68.9459 30.664C69.5112 30.4293 70.1619 30.312 70.8979 30.312ZM70.9139 32.008C70.4125 32.008 70.0125 32.1307 69.7139 32.376C69.4152 32.6213 69.2659 32.9627 69.2659 33.4C69.2659 33.8373 69.4152 34.1787 69.7139 34.424C70.0125 34.6693 70.4125 34.792 70.9139 34.792C71.4045 34.792 71.7939 34.6693 72.0819 34.424C72.3805 34.1787 72.5299 33.8373 72.5299 33.4C72.5299 32.9627 72.3859 32.6213 72.0979 32.376C71.8099 32.1307 71.4152 32.008 70.9139 32.008ZM70.9139 39.448C71.3192 39.448 71.6659 39.3893 71.9539 39.272C72.2419 39.1547 72.4605 38.9787 72.6099 38.744C72.7699 38.5093 72.8499 38.232 72.8499 37.912C72.8499 37.592 72.7699 37.3147 72.6099 37.08C72.4605 36.8453 72.2365 36.6693 71.9379 36.552C71.6499 36.424 71.3085 36.36 70.9139 36.36C70.5192 36.36 70.1725 36.424 69.8739 36.552C69.5752 36.6693 69.3459 36.8453 69.1859 37.08C69.0259 37.3147 68.9459 37.592 68.9459 37.912C68.9459 38.232 69.0259 38.5093 69.1859 38.744C69.3459 38.9787 69.5699 39.1547 69.8579 39.272C70.1565 39.3893 70.5085 39.448 70.9139 39.448ZM80.4551 41.16C79.3991 41.16 78.4978 40.9413 77.7511 40.504C77.0151 40.056 76.5085 39.416 76.2311 38.584L78.3111 37.672C78.3858 38.056 78.5085 38.376 78.6791 38.632C78.8498 38.8773 79.0791 39.064 79.3671 39.192C79.6658 39.32 80.0178 39.384 80.4231 39.384C80.7858 39.384 81.0898 39.32 81.3351 39.192C81.5911 39.064 81.7885 38.8827 81.9271 38.648C82.0658 38.4133 82.1351 38.1467 82.1351 37.848C82.1351 37.528 82.0711 37.2667 81.9431 37.064C81.8258 36.8613 81.6445 36.7173 81.3991 36.632C81.1538 36.536 80.8445 36.488 80.4711 36.488C80.3325 36.488 80.1991 36.4933 80.0711 36.504C79.9538 36.504 79.8205 36.5147 79.6711 36.536V34.92C79.7565 34.9307 79.8418 34.9413 79.9271 34.952C80.0231 34.952 80.1191 34.952 80.2151 34.952C80.8125 34.952 81.2391 34.8347 81.4951 34.6C81.7618 34.3547 81.8951 33.9653 81.8951 33.432C81.8951 32.9947 81.7618 32.6587 81.4951 32.424C81.2391 32.1787 80.8711 32.056 80.3911 32.056C79.8791 32.056 79.4738 32.184 79.1751 32.44C78.8765 32.6853 78.6685 33.064 78.5511 33.576L76.5831 32.84C76.7111 32.3067 76.9565 31.848 77.3191 31.464C77.6925 31.08 78.1511 30.7867 78.6951 30.584C79.2391 30.3707 79.8418 30.264 80.5031 30.264C81.2925 30.264 81.9485 30.3867 82.4711 30.632C83.0045 30.8773 83.4045 31.2133 83.6711 31.64C83.9485 32.0667 84.0871 32.5573 84.0871 33.112C84.0871 33.5493 84.0178 33.9227 83.8791 34.232C83.7511 34.5307 83.5805 34.7867 83.3671 35C83.1645 35.2027 82.9511 35.3573 82.7271 35.464C82.5031 35.5707 82.2951 35.6347 82.1031 35.656V35.704C82.3485 35.7147 82.5991 35.768 82.8551 35.864C83.1111 35.9493 83.3458 36.0827 83.5591 36.264C83.7831 36.4453 83.9645 36.68 84.1031 36.968C84.2418 37.2453 84.3111 37.576 84.3111 37.96C84.3111 38.6 84.1405 39.1653 83.7991 39.656C83.4685 40.136 83.0151 40.5093 82.4391 40.776C81.8631 41.032 81.2018 41.16 80.4551 41.16ZM87.381 38.552C87.8077 38.552 88.1437 38.6693 88.389 38.904C88.645 39.1387 88.773 39.4533 88.773 39.848C88.773 40.2533 88.645 40.5733 88.389 40.808C88.1437 41.032 87.8077 41.144 87.381 41.144C86.9543 41.144 86.613 41.032 86.357 40.808C86.1117 40.5733 85.989 40.2533 85.989 39.848C85.989 39.4533 86.1117 39.1387 86.357 38.904C86.613 38.6693 86.9543 38.552 87.381 38.552ZM94.463 41.16C93.1083 41.16 92.063 40.7013 91.327 39.784C90.6017 38.8667 90.239 37.512 90.239 35.72C90.239 33.928 90.6017 32.5733 91.327 31.656C92.063 30.7387 93.1083 30.28 94.463 30.28C95.8177 30.28 96.8577 30.7387 97.583 31.656C98.319 32.5733 98.687 33.928 98.687 35.72C98.687 37.512 98.319 38.8667 97.583 39.784C96.8577 40.7013 95.8177 41.16 94.463 41.16ZM94.463 39.384C94.9217 39.384 95.295 39.256 95.583 39C95.8817 38.7333 96.1057 38.3333 96.255 37.8C96.4043 37.256 96.479 36.5627 96.479 35.72C96.479 34.8773 96.4043 34.1893 96.255 33.656C96.1057 33.112 95.8817 32.712 95.583 32.456C95.295 32.1893 94.9217 32.056 94.463 32.056C94.0043 32.056 93.6257 32.1893 93.327 32.456C93.0283 32.712 92.8043 33.112 92.655 33.656C92.5163 34.1893 92.447 34.8773 92.447 35.72C92.447 36.5627 92.5163 37.256 92.655 37.8C92.8043 38.3333 93.0283 38.7333 93.327 39C93.6257 39.256 94.0043 39.384 94.463 39.384ZM104.635 41.16C103.28 41.16 102.235 40.7013 101.499 39.784C100.774 38.8667 100.411 37.512 100.411 35.72C100.411 33.928 100.774 32.5733 101.499 31.656C102.235 30.7387 103.28 30.28 104.635 30.28C105.99 30.28 107.03 30.7387 107.755 31.656C108.491 32.5733 108.859 33.928 108.859 35.72C108.859 37.512 108.491 38.8667 107.755 39.784C107.03 40.7013 105.99 41.16 104.635 41.16ZM104.635 39.384C105.094 39.384 105.467 39.256 105.755 39C106.054 38.7333 106.278 38.3333 106.427 37.8C106.576 37.256 106.651 36.5627 106.651 35.72C106.651 34.8773 106.576 34.1893 106.427 33.656C106.278 33.112 106.054 32.712 105.755 32.456C105.467 32.1893 105.094 32.056 104.635 32.056C104.176 32.056 103.798 32.1893 103.499 32.456C103.2 32.712 102.976 33.112 102.827 33.656C102.688 34.1893 102.619 34.8773 102.619 35.72C102.619 36.5627 102.688 37.256 102.827 37.8C102.976 38.3333 103.2 38.7333 103.499 39C103.798 39.256 104.176 39.384 104.635 39.384ZM124.801 30.44V36.84C124.801 38.28 124.417 39.3627 123.649 40.088C122.881 40.8027 121.761 41.16 120.289 41.16C118.817 41.16 117.697 40.8027 116.929 40.088C116.161 39.3627 115.777 38.28 115.777 36.84V30.44H117.985V36.744C117.985 37.6293 118.172 38.2853 118.545 38.712C118.929 39.1387 119.511 39.352 120.289 39.352C121.068 39.352 121.644 39.1387 122.017 38.712C122.391 38.2853 122.577 37.6293 122.577 36.744V30.44H124.801ZM131.201 30.28C132.161 30.28 133.003 30.4453 133.729 30.776C134.454 31.1067 135.073 31.5973 135.585 32.248L134.353 33.672C133.915 33.1173 133.435 32.712 132.913 32.456C132.401 32.1893 131.803 32.056 131.121 32.056C130.673 32.056 130.299 32.1147 130.001 32.232C129.713 32.3493 129.499 32.504 129.361 32.696C129.233 32.888 129.169 33.1013 129.169 33.336C129.169 33.624 129.281 33.8693 129.505 34.072C129.729 34.264 130.113 34.424 130.657 34.552L132.625 35C133.67 35.2347 134.417 35.5867 134.865 36.056C135.323 36.5147 135.553 37.112 135.553 37.848C135.553 38.5413 135.371 39.1387 135.009 39.64C134.646 40.1307 134.139 40.5093 133.489 40.776C132.838 41.032 132.091 41.16 131.249 41.16C130.513 41.16 129.835 41.0747 129.217 40.904C128.609 40.7227 128.065 40.4773 127.585 40.168C127.105 39.8587 126.705 39.5013 126.385 39.096L127.633 37.608C127.878 37.9493 128.182 38.2533 128.545 38.52C128.907 38.7867 129.318 39 129.777 39.16C130.246 39.3093 130.737 39.384 131.249 39.384C131.686 39.384 132.054 39.336 132.353 39.24C132.662 39.1333 132.891 38.9893 133.041 38.808C133.201 38.616 133.281 38.3867 133.281 38.12C133.281 37.8427 133.185 37.608 132.993 37.416C132.811 37.2133 132.47 37.0587 131.969 36.952L129.825 36.472C129.206 36.3227 128.673 36.1307 128.225 35.896C127.787 35.6507 127.451 35.3413 127.217 34.968C126.993 34.584 126.881 34.1307 126.881 33.608C126.881 32.9787 127.051 32.4133 127.393 31.912C127.734 31.4107 128.225 31.016 128.865 30.728C129.515 30.4293 130.294 30.28 131.201 30.28ZM141.722 30.44C143.375 30.44 144.655 30.8987 145.562 31.816C146.468 32.7227 146.922 34.024 146.922 35.72C146.922 37.4053 146.468 38.7067 145.562 39.624C144.655 40.5413 143.375 41 141.722 41H137.642V30.44H141.722ZM141.61 39.24C142.612 39.24 143.364 38.9413 143.866 38.344C144.378 37.736 144.634 36.8613 144.634 35.72C144.634 34.5787 144.378 33.7093 143.866 33.112C143.364 32.504 142.612 32.2 141.61 32.2H139.85V39.24H141.61Z" fill="white"/>
<path opacity="0.7" d="M27.74 81.9C27.58 82.38 27.34 82.788 27.02 83.124C26.7 83.452 26.324 83.7 25.892 83.868C25.46 84.036 24.984 84.12 24.464 84.12C23.704 84.12 23.044 83.956 22.484 83.628C21.924 83.3 21.492 82.832 21.188 82.224C20.884 81.616 20.732 80.888 20.732 80.04C20.732 79.192 20.884 78.464 21.188 77.856C21.492 77.248 21.924 76.78 22.484 76.452C23.044 76.124 23.7 75.96 24.452 75.96C24.972 75.96 25.44 76.032 25.856 76.176C26.28 76.32 26.64 76.536 26.936 76.824C27.232 77.112 27.46 77.472 27.62 77.904L26.408 78.444C26.248 77.972 26.016 77.628 25.712 77.412C25.408 77.188 25.012 77.076 24.524 77.076C24.036 77.076 23.608 77.192 23.24 77.424C22.872 77.656 22.584 77.992 22.376 78.432C22.176 78.872 22.076 79.408 22.076 80.04C22.076 80.664 22.172 81.2 22.364 81.648C22.556 82.088 22.832 82.424 23.192 82.656C23.552 82.888 23.984 83.004 24.488 83.004C24.976 83.004 25.396 82.88 25.748 82.632C26.108 82.376 26.364 81.996 26.516 81.492L27.74 81.9ZM35.9551 84H34.5991L33.8431 81.924H30.5191L29.7631 84H28.4431L31.4311 76.08H32.9671L35.9551 84ZM30.8791 80.88H33.4831L32.1871 77.184L30.8791 80.88ZM40.5876 76.08C41.4356 76.08 42.1076 76.292 42.6036 76.716C43.1076 77.14 43.3596 77.712 43.3596 78.432C43.3596 79.176 43.1076 79.752 42.6036 80.16C42.1076 80.56 41.4356 80.76 40.5876 80.76L40.4676 80.832H38.6316V84H37.3596V76.08H40.5876ZM40.4916 79.764C41.0116 79.764 41.3956 79.66 41.6436 79.452C41.8996 79.236 42.0276 78.908 42.0276 78.468C42.0276 78.036 41.8996 77.712 41.6436 77.496C41.3956 77.28 41.0116 77.172 40.4916 77.172H38.6316V79.764H40.4916ZM41.2476 80.028L43.8276 84H42.3516L40.1436 80.532L41.2476 80.028ZM48.2181 76.08C49.4581 76.08 50.4221 76.424 51.1101 77.112C51.8061 77.792 52.1541 78.768 52.1541 80.04C52.1541 81.312 51.8061 82.292 51.1101 82.98C50.4221 83.66 49.4581 84 48.2181 84H45.4221V76.08H48.2181ZM48.2181 82.908C49.0581 82.908 49.6981 82.66 50.1381 82.164C50.5861 81.66 50.8101 80.952 50.8101 80.04C50.8101 79.128 50.5861 78.424 50.1381 77.928C49.6981 77.424 49.0581 77.172 48.2181 77.172H46.7061V82.908H48.2181ZM64.4532 76.08V84H62.9292L59.8692 79.008L59.1012 77.604H59.0892L59.1372 78.888V84H57.9612V76.08H59.4732L62.5212 81.06L63.3012 82.488H63.3132L63.2652 81.192V76.08H64.4532ZM73.1091 76.08V80.964C73.1091 82.012 72.8331 82.8 72.2811 83.328C71.7291 83.856 70.9251 84.12 69.8691 84.12C68.8291 84.12 68.0291 83.856 67.4691 83.328C66.9171 82.8 66.6411 82.012 66.6411 80.964V76.08H67.9251V80.808C67.9251 81.552 68.0851 82.104 68.4051 82.464C68.7251 82.824 69.2131 83.004 69.8691 83.004C70.5331 83.004 71.0251 82.824 71.3451 82.464C71.6651 82.104 71.8251 81.552 71.8251 80.808V76.08H73.1091ZM83.4049 76.08V84H82.2169V79.416L82.3129 77.232H82.3009L79.8889 84H78.8209L76.4089 77.232H76.3969L76.4929 79.416V84H75.3049V76.08H77.2129L78.8089 80.664L79.3609 82.548H79.3849L79.9489 80.664L81.5329 76.08H83.4049ZM85.758 84V76.08H88.878C89.83 76.08 90.526 76.272 90.966 76.656C91.406 77.04 91.626 77.572 91.626 78.252C91.626 78.668 91.506 79.04 91.266 79.368C91.026 79.688 90.674 79.892 90.21 79.98V79.992C90.722 80.072 91.118 80.284 91.398 80.628C91.686 80.964 91.83 81.356 91.83 81.804C91.83 82.484 91.582 83.02 91.086 83.412C90.59 83.804 89.87 84 88.926 84H85.758ZM87.018 82.932H88.986C89.49 82.932 89.866 82.828 90.114 82.62C90.37 82.412 90.498 82.12 90.498 81.744C90.498 81.368 90.37 81.076 90.114 80.868C89.866 80.66 89.49 80.556 88.986 80.556H87.018V82.932ZM87.018 79.488H88.782C89.79 79.488 90.294 79.1 90.294 78.324C90.294 77.548 89.79 77.16 88.782 77.16H87.018V79.488ZM93.7033 84V76.08H99.4393V77.184H94.9873V79.464H98.4673V80.544H94.9873V82.896H99.6073V84H93.7033ZM104.56 76.08C105.408 76.08 106.08 76.292 106.576 76.716C107.08 77.14 107.332 77.712 107.332 78.432C107.332 79.176 107.08 79.752 106.576 80.16C106.08 80.56 105.408 80.76 104.56 80.76L104.44 80.832H102.604V84H101.332V76.08H104.56ZM104.464 79.764C104.984 79.764 105.368 79.66 105.616 79.452C105.872 79.236 106 78.908 106 78.468C106 78.036 105.872 77.712 105.616 77.496C105.368 77.28 104.984 77.172 104.464 77.172H102.604V79.764H104.464ZM105.22 80.028L107.8 84H106.324L104.116 80.532L105.22 80.028Z" fill="white"/>
<path d="M26.02 107.88L27.6 109.56L29 111.52L27.96 112.28L26.52 110.34L25.42 108.32L25.72 108.1L26.02 107.88ZM25.42 107.88L25.72 108.1L26.02 108.32L24.92 110.34L23.48 112.28L22.44 111.52L23.84 109.56L25.42 107.88ZM21.44 106.04L23.76 106.76L25.84 107.74L25.72 108.1L25.6 108.46L23.34 108.02L21.06 107.26L21.44 106.04ZM26.38 103.4V105.82L26.1 108.1H25.72H25.34L25.06 105.82V103.4H26.38ZM30 106.04L30.38 107.26L28.1 108.02L25.84 108.46L25.72 108.1L25.6 107.74L27.68 106.76L30 106.04ZM37.4653 107.88L39.0453 109.56L40.4453 111.52L39.4053 112.28L37.9653 110.34L36.8653 108.32L37.1653 108.1L37.4653 107.88ZM36.8653 107.88L37.1653 108.1L37.4653 108.32L36.3653 110.34L34.9253 112.28L33.8853 111.52L35.2853 109.56L36.8653 107.88ZM32.8853 106.04L35.2053 106.76L37.2853 107.74L37.1653 108.1L37.0453 108.46L34.7853 108.02L32.5053 107.26L32.8853 106.04ZM37.8253 103.4V105.82L37.5453 108.1H37.1653H36.7853L36.5053 105.82V103.4H37.8253ZM41.4453 106.04L41.8253 107.26L39.5453 108.02L37.2853 108.46L37.1653 108.1L37.0453 107.74L39.1253 106.76L41.4453 106.04ZM48.9106 107.88L50.4906 109.56L51.8906 111.52L50.8506 112.28L49.4106 110.34L48.3106 108.32L48.6106 108.1L48.9106 107.88ZM48.3106 107.88L48.6106 108.1L48.9106 108.32L47.8106 110.34L46.3706 112.28L45.3306 111.52L46.7306 109.56L48.3106 107.88ZM44.3306 106.04L46.6506 106.76L48.7306 107.74L48.6106 108.1L48.4906 108.46L46.2306 108.02L43.9506 107.26L44.3306 106.04ZM49.2706 103.4V105.82L48.9906 108.1H48.6106H48.2306L47.9506 105.82V103.4H49.2706ZM52.8906 106.04L53.2706 107.26L50.9906 108.02L48.7306 108.46L48.6106 108.1L48.4906 107.74L50.5706 106.76L52.8906 106.04ZM60.3559 107.88L61.9359 109.56L63.3359 111.52L62.2959 112.28L60.8559 110.34L59.7559 108.32L60.0559 108.1L60.3559 107.88ZM59.7559 107.88L60.0559 108.1L60.3559 108.32L59.2559 110.34L57.8159 112.28L56.7759 111.52L58.1759 109.56L59.7559 107.88ZM55.7759 106.04L58.0959 106.76L60.1759 107.74L60.0559 108.1L59.9359 108.46L57.6759 108.02L55.3959 107.26L55.7759 106.04ZM60.7159 103.4V105.82L60.4359 108.1H60.0559H59.6759L59.3959 105.82V103.4H60.7159ZM64.3359 106.04L64.7159 107.26L62.4359 108.02L60.1759 108.46L60.0559 108.1L59.9359 107.74L62.0159 106.76L64.3359 106.04ZM85.4341 107.88L87.0141 109.56L88.4141 111.52L87.3741 112.28L85.9341 110.34L84.8341 108.32L85.1341 108.1L85.4341 107.88ZM84.8341 107.88L85.1341 108.1L85.4341 108.32L84.3341 110.34L82.8941 112.28L81.8541 111.52L83.2541 109.56L84.8341 107.88ZM80.8541 106.04L83.1741 106.76L85.2541 107.74L85.1341 108.1L85.0141 108.46L82.7541 108.02L80.4741 107.26L80.8541 106.04ZM85.7941 103.4V105.82L85.5141 108.1H85.1341H84.7541L84.4741 105.82V103.4H85.7941ZM89.4141 106.04L89.7941 107.26L87.5141 108.02L85.2541 108.46L85.1341 108.1L85.0141 107.74L87.0941 106.76L89.4141 106.04ZM96.8794 107.88L98.4594 109.56L99.8594 111.52L98.8194 112.28L97.3794 110.34L96.2794 108.32L96.5794 108.1L96.8794 107.88ZM96.2794 107.88L96.5794 108.1L96.8794 108.32L95.7794 110.34L94.3394 112.28L93.2994 111.52L94.6994 109.56L96.2794 107.88ZM92.2994 106.04L94.6194 106.76L96.6994 107.74L96.5794 108.1L96.4594 108.46L94.1994 108.02L91.9194 107.26L92.2994 106.04ZM97.2394 103.4V105.82L96.9594 108.1H96.5794H96.1994L95.9194 105.82V103.4H97.2394ZM100.859 106.04L101.239 107.26L98.9594 108.02L96.6994 108.46L96.5794 108.1L96.4594 107.74L98.5394 106.76L100.859 106.04ZM108.325 107.88L109.905 109.56L111.305 111.52L110.265 112.28L108.825 110.34L107.725 108.32L108.025 108.1L108.325 107.88ZM107.725 107.88L108.025 108.1L108.325 108.32L107.225 110.34L105.785 112.28L104.745 111.52L106.145 109.56L107.725 107.88ZM103.745 106.04L106.065 106.76L108.145 107.74L108.025 108.1L107.905 108.46L105.645 108.02L103.365 107.26L103.745 106.04ZM108.685 103.4V105.82L108.405 108.1H108.025H107.645L107.365 105.82V103.4H108.685ZM112.305 106.04L112.685 107.26L110.405 108.02L108.145 108.46L108.025 108.1L107.905 107.74L109.985 106.76L112.305 106.04ZM119.77 107.88L121.35 109.56L122.75 111.52L121.71 112.28L120.27 110.34L119.17 108.32L119.47 108.1L119.77 107.88ZM119.17 107.88L119.47 108.1L119.77 108.32L118.67 110.34L117.23 112.28L116.19 111.52L117.59 109.56L119.17 107.88ZM115.19 106.04L117.51 106.76L119.59 107.74L119.47 108.1L119.35 108.46L117.09 108.02L114.81 107.26L115.19 106.04ZM120.13 103.4V105.82L119.85 108.1H119.47H119.09L118.81 105.82V103.4H120.13ZM123.75 106.04L124.13 107.26L121.85 108.02L119.59 108.46L119.47 108.1L119.35 107.74L121.43 106.76L123.75 106.04ZM144.848 107.88L146.428 109.56L147.828 111.52L146.788 112.28L145.348 110.34L144.248 108.32L144.548 108.1L144.848 107.88ZM144.248 107.88L144.548 108.1L144.848 108.32L143.748 110.34L142.308 112.28L141.268 111.52L142.668 109.56L144.248 107.88ZM140.268 106.04L142.588 106.76L144.668 107.74L144.548 108.1L144.428 108.46L142.168 108.02L139.888 107.26L140.268 106.04ZM145.208 103.4V105.82L144.928 108.1H144.548H144.168L143.888 105.82V103.4H145.208ZM148.828 106.04L149.208 107.26L146.928 108.02L144.668 108.46L144.548 108.1L144.428 107.74L146.508 106.76L148.828 106.04ZM156.293 107.88L157.873 109.56L159.273 111.52L158.233 112.28L156.793 110.34L155.693 108.32L155.993 108.1L156.293 107.88ZM155.693 107.88L155.993 108.1L156.293 108.32L155.193 110.34L153.753 112.28L152.713 111.52L154.113 109.56L155.693 107.88ZM151.713 106.04L154.033 106.76L156.113 107.74L155.993 108.1L155.873 108.46L153.613 108.02L151.333 107.26L151.713 106.04ZM156.653 103.4V105.82L156.373 108.1H155.993H155.613L155.333 105.82V103.4H156.653ZM160.273 106.04L160.653 107.26L158.373 108.02L156.113 108.46L155.993 108.1L155.873 107.74L157.953 106.76L160.273 106.04ZM167.739 107.88L169.319 109.56L170.719 111.52L169.679 112.28L168.239 110.34L167.139 108.32L167.439 108.1L167.739 107.88ZM167.139 107.88L167.439 108.1L167.739 108.32L166.639 110.34L165.199 112.28L164.159 111.52L165.559 109.56L167.139 107.88ZM163.159 106.04L165.479 106.76L167.559 107.74L167.439 108.1L167.319 108.46L165.059 108.02L162.779 107.26L163.159 106.04ZM168.099 103.4V105.82L167.819 108.1H167.439H167.059L166.779 105.82V103.4H168.099ZM171.719 106.04L172.099 107.26L169.819 108.02L167.559 108.46L167.439 108.1L167.319 107.74L169.399 106.76L171.719 106.04ZM179.184 107.88L180.764 109.56L182.164 111.52L181.124 112.28L179.684 110.34L178.584 108.32L178.884 108.1L179.184 107.88ZM178.584 107.88L178.884 108.1L179.184 108.32L178.084 110.34L176.644 112.28L175.604 111.52L177.004 109.56L178.584 107.88ZM174.604 106.04L176.924 106.76L179.004 107.74L178.884 108.1L178.764 108.46L176.504 108.02L174.224 107.26L174.604 106.04ZM179.544 103.4V105.82L179.264 108.1H178.884H178.504L178.224 105.82V103.4H179.544ZM183.164 106.04L183.544 107.26L181.264 108.02L179.004 108.46L178.884 108.1L178.764 107.74L180.844 106.76L183.164 106.04ZM202.012 118V108.32C202.012 108.093 202.012 107.853 202.012 107.6C202.025 107.333 202.038 107.06 202.052 106.78C201.598 107.22 201.072 107.607 200.472 107.94C199.872 108.26 199.258 108.493 198.632 108.64L198.212 107.18C198.452 107.153 198.752 107.067 199.112 106.92C199.485 106.76 199.872 106.567 200.272 106.34C200.685 106.1 201.065 105.847 201.412 105.58C201.758 105.313 202.025 105.053 202.212 104.8H203.612V118H202.012ZM206.445 104.8H216.165V106.3C215.058 107.473 214.151 108.68 213.445 109.92C212.751 111.147 212.245 112.427 211.925 113.76C211.605 115.093 211.445 116.507 211.445 118H209.805C209.805 116.52 209.985 115.073 210.345 113.66C210.718 112.233 211.278 110.867 212.025 109.56C212.771 108.253 213.698 107.033 214.805 105.9L215.065 106.3H206.445V104.8ZM222.925 104.6C223.632 104.6 224.245 104.7 224.765 104.9C225.298 105.087 225.758 105.387 226.145 105.8C226.532 106.2 226.858 106.727 227.125 107.38L225.645 108.08C225.445 107.467 225.118 106.987 224.665 106.64C224.225 106.28 223.612 106.1 222.825 106.1C222.252 106.1 221.745 106.247 221.305 106.54C220.865 106.82 220.492 107.213 220.185 107.72C219.878 108.227 219.645 108.82 219.485 109.5C219.338 110.18 219.265 110.913 219.265 111.7C219.265 111.727 219.265 111.767 219.265 111.82C219.265 111.873 219.265 111.953 219.265 112.06H219.345C219.492 111.487 219.758 111.027 220.145 110.68C220.545 110.32 220.992 110.06 221.485 109.9C221.992 109.727 222.485 109.64 222.965 109.64C223.858 109.64 224.638 109.813 225.305 110.16C225.972 110.507 226.485 111 226.845 111.64C227.218 112.28 227.405 113.04 227.405 113.92C227.405 114.787 227.218 115.547 226.845 116.2C226.472 116.84 225.945 117.333 225.265 117.68C224.598 118.027 223.798 118.2 222.865 118.2C221.758 118.2 220.825 117.907 220.065 117.32C219.305 116.733 218.732 115.933 218.345 114.92C217.958 113.893 217.765 112.72 217.765 111.4C217.765 109.92 217.992 108.68 218.445 107.68C218.898 106.667 219.512 105.9 220.285 105.38C221.072 104.86 221.952 104.6 222.925 104.6ZM222.845 111.18C222.272 111.18 221.765 111.3 221.325 111.54C220.898 111.767 220.565 112.087 220.325 112.5C220.085 112.9 219.965 113.367 219.965 113.9C219.965 114.407 220.092 114.873 220.345 115.3C220.598 115.713 220.938 116.047 221.365 116.3C221.805 116.54 222.298 116.66 222.845 116.66C223.752 116.66 224.458 116.42 224.965 115.94C225.472 115.447 225.725 114.767 225.725 113.9C225.725 113.34 225.612 112.86 225.385 112.46C225.158 112.047 224.832 111.733 224.405 111.52C223.978 111.293 223.458 111.18 222.845 111.18ZM232.793 118V108.32C232.793 108.093 232.793 107.853 232.793 107.6C232.806 107.333 232.819 107.06 232.833 106.78C232.379 107.22 231.853 107.607 231.253 107.94C230.653 108.26 230.039 108.493 229.413 108.64L228.993 107.18C229.233 107.153 229.533 107.067 229.893 106.92C230.266 106.76 230.653 106.567 231.053 106.34C231.466 106.1 231.846 105.847 232.193 105.58C232.539 105.313 232.806 105.053 232.993 104.8H234.393V118H232.793Z" fill="white"/>
<g opacity="0.5">
<path d="M256.125 114.125H259.875V104.125H249.875V107.875" stroke="white" stroke-width="1.5" stroke-linecap="round" stroke-linejoin="round"/>
<path d="M256.125 107.875H246.125V117.875H256.125V107.875Z" stroke="white" stroke-width="1.5" stroke-linecap="round" stroke-linejoin="round"/>
</g>
<path d="M191.155 147.76L187.039 152.212L186.871 152.226L184.477 154.802L184.337 153.164L189.321 147.76H191.155ZM185.079 147.76V157H183.581V147.76H185.079ZM187.347 151.064L191.239 157H189.475L186.157 151.904L187.347 151.064ZM195.201 157.14C194.501 157.14 193.885 156.995 193.353 156.706C192.821 156.417 192.406 156.001 192.107 155.46C191.818 154.909 191.673 154.256 191.673 153.5C191.673 152.744 191.818 152.095 192.107 151.554C192.406 151.003 192.816 150.583 193.339 150.294C193.862 150.005 194.454 149.86 195.117 149.86C195.798 149.86 196.377 150 196.853 150.28C197.329 150.56 197.693 150.943 197.945 151.428C198.197 151.913 198.323 152.464 198.323 153.08C198.323 153.248 198.318 153.407 198.309 153.556C198.3 153.705 198.286 153.836 198.267 153.948H192.639V152.8H197.609L196.867 153.024C196.867 152.389 196.708 151.904 196.391 151.568C196.074 151.223 195.64 151.05 195.089 151.05C194.688 151.05 194.338 151.143 194.039 151.33C193.74 151.517 193.512 151.797 193.353 152.17C193.194 152.534 193.115 152.982 193.115 153.514C193.115 154.037 193.199 154.48 193.367 154.844C193.535 155.208 193.773 155.483 194.081 155.67C194.389 155.857 194.753 155.95 195.173 155.95C195.64 155.95 196.018 155.861 196.307 155.684C196.596 155.507 196.825 155.259 196.993 154.942L198.183 155.502C198.015 155.838 197.786 156.132 197.497 156.384C197.217 156.627 196.881 156.813 196.489 156.944C196.097 157.075 195.668 157.14 195.201 157.14ZM204.616 150H206.184L203.398 157H201.76L198.96 150H200.598L202.586 155.698L204.616 150ZM208.217 148.824C207.89 148.824 207.638 148.745 207.461 148.586C207.293 148.418 207.209 148.185 207.209 147.886C207.209 147.587 207.293 147.359 207.461 147.2C207.638 147.041 207.89 146.962 208.217 146.962C208.534 146.962 208.777 147.041 208.945 147.2C209.122 147.359 209.211 147.587 209.211 147.886C209.211 148.185 209.122 148.418 208.945 148.586C208.777 148.745 208.534 148.824 208.217 148.824ZM208.959 150V157H207.461V150H208.959ZM211.303 157V150H212.633L212.731 151.82L212.535 151.624C212.665 151.223 212.852 150.891 213.095 150.63C213.347 150.359 213.641 150.163 213.977 150.042C214.322 149.921 214.686 149.86 215.069 149.86C215.563 149.86 216.007 149.958 216.399 150.154C216.8 150.341 217.117 150.625 217.351 151.008C217.584 151.391 217.701 151.876 217.701 152.464V157H216.203V152.926C216.203 152.235 216.058 151.759 215.769 151.498C215.489 151.227 215.134 151.092 214.705 151.092C214.397 151.092 214.098 151.167 213.809 151.316C213.519 151.456 213.277 151.685 213.081 152.002C212.894 152.319 212.801 152.744 212.801 153.276V157H211.303ZM226.155 157L223.439 147.76H225.021L227.093 155.698L229.109 147.76H230.649L232.679 155.712L234.737 147.76H236.263L233.561 157H231.797L230.327 151.456L229.865 149.328H229.851L229.389 151.456L227.933 157H226.155ZM241.298 152.506C241.298 152.039 241.167 151.68 240.906 151.428C240.654 151.167 240.304 151.036 239.856 151.036C239.436 151.036 239.077 151.134 238.778 151.33C238.479 151.526 238.26 151.843 238.12 152.282L236.86 151.75C237.037 151.181 237.383 150.723 237.896 150.378C238.419 150.033 239.091 149.86 239.912 149.86C240.472 149.86 240.967 149.953 241.396 150.14C241.825 150.317 242.161 150.588 242.404 150.952C242.656 151.316 242.782 151.783 242.782 152.352V155.474C242.782 155.819 242.955 155.992 243.3 155.992C243.468 155.992 243.631 155.969 243.79 155.922L243.706 156.958C243.491 157.061 243.221 157.112 242.894 157.112C242.595 157.112 242.325 157.061 242.082 156.958C241.849 156.846 241.662 156.683 241.522 156.468C241.391 156.244 241.326 155.969 241.326 155.642V155.544L241.634 155.53C241.55 155.894 241.377 156.197 241.116 156.44C240.855 156.673 240.551 156.851 240.206 156.972C239.861 157.084 239.511 157.14 239.156 157.14C238.717 157.14 238.321 157.07 237.966 156.93C237.621 156.79 237.345 156.58 237.14 156.3C236.944 156.011 236.846 155.656 236.846 155.236C236.846 154.713 237.014 154.284 237.35 153.948C237.695 153.612 238.181 153.383 238.806 153.262L241.522 152.73L241.508 153.78L239.534 154.186C239.142 154.261 238.848 154.368 238.652 154.508C238.456 154.648 238.358 154.853 238.358 155.124C238.358 155.385 238.456 155.595 238.652 155.754C238.857 155.903 239.128 155.978 239.464 155.978C239.697 155.978 239.921 155.95 240.136 155.894C240.36 155.838 240.561 155.749 240.738 155.628C240.915 155.497 241.051 155.334 241.144 155.138C241.247 154.933 241.298 154.69 241.298 154.41V152.506ZM246.692 146.85V155.04C246.692 155.385 246.753 155.623 246.874 155.754C246.996 155.885 247.196 155.95 247.476 155.95C247.644 155.95 247.784 155.941 247.896 155.922C248.018 155.894 248.167 155.847 248.344 155.782L248.176 156.902C248.018 156.977 247.836 157.033 247.63 157.07C247.425 157.117 247.22 157.14 247.014 157.14C246.389 157.14 245.927 156.981 245.628 156.664C245.339 156.337 245.194 155.838 245.194 155.166V146.85H246.692ZM251.382 147.942V154.9C251.382 155.245 251.47 155.497 251.648 155.656C251.834 155.815 252.082 155.894 252.39 155.894C252.642 155.894 252.861 155.857 253.048 155.782C253.234 155.698 253.407 155.586 253.566 155.446L253.902 156.538C253.687 156.725 253.421 156.874 253.104 156.986C252.796 157.089 252.45 157.14 252.068 157.14C251.666 157.14 251.298 157.075 250.962 156.944C250.626 156.813 250.364 156.603 250.178 156.314C249.991 156.015 249.893 155.628 249.884 155.152V148.362L251.382 147.942ZM253.79 150V151.176H248.54V150H253.79ZM258.351 157.14C257.651 157.14 257.035 156.995 256.503 156.706C255.971 156.417 255.556 156.001 255.257 155.46C254.968 154.909 254.823 154.256 254.823 153.5C254.823 152.744 254.968 152.095 255.257 151.554C255.556 151.003 255.967 150.583 256.489 150.294C257.012 150.005 257.605 149.86 258.267 149.86C258.949 149.86 259.527 150 260.003 150.28C260.479 150.56 260.843 150.943 261.095 151.428C261.347 151.913 261.473 152.464 261.473 153.08C261.473 153.248 261.469 153.407 261.459 153.556C261.45 153.705 261.436 153.836 261.417 153.948H255.789V152.8H260.759L260.017 153.024C260.017 152.389 259.859 151.904 259.541 151.568C259.224 151.223 258.79 151.05 258.239 151.05C257.838 151.05 257.488 151.143 257.189 151.33C256.891 151.517 256.662 151.797 256.503 152.17C256.345 152.534 256.265 152.982 256.265 153.514C256.265 154.037 256.349 154.48 256.517 154.844C256.685 155.208 256.923 155.483 257.231 155.67C257.539 155.857 257.903 155.95 258.323 155.95C258.79 155.95 259.168 155.861 259.457 155.684C259.747 155.507 259.975 155.259 260.143 154.942L261.333 155.502C261.165 155.838 260.937 156.132 260.647 156.384C260.367 156.627 260.031 156.813 259.639 156.944C259.247 157.075 258.818 157.14 258.351 157.14ZM263.365 157V150H264.639L264.779 151.26C264.966 150.803 265.241 150.457 265.605 150.224C265.978 149.981 266.436 149.86 266.977 149.86C267.117 149.86 267.257 149.874 267.397 149.902C267.537 149.921 267.654 149.953 267.747 150L267.537 151.316C267.434 151.279 267.318 151.251 267.187 151.232C267.066 151.204 266.898 151.19 266.683 151.19C266.394 151.19 266.109 151.269 265.829 151.428C265.549 151.577 265.316 151.806 265.129 152.114C264.952 152.422 264.863 152.814 264.863 153.29V157H263.365Z" fill="white"/>
<defs>
<radialGradient id="paint0_radial_88_3958" cx="0" cy="0" r="1" gradientUnits="userSpaceOnUse" gradientTransform="rotate(33.4056) scale(347.99 511.033)">
<stop stop-color="#248E1D"/>
<stop offset="1" stop-color="#2DB324"/>
</radialGradient>
<clipPath id="clip0_88_3958">
<rect width="40" height="40" fill="white" transform="translate(20 132)"/>
</clipPath>
</defs>
</svg>
