<svg width="56" height="57" viewBox="0 0 56 57" fill="none" xmlns="http://www.w3.org/2000/svg">
<rect y="0.5" width="56" height="56" rx="5" fill="white"/>
<rect x="0.5" y="1" width="55" height="55" rx="4.5" stroke="#909090" stroke-opacity="0.2"/>
<path opacity="0.2" d="M16 38.5V19.5C16 19.2348 16.1054 18.9804 16.2929 18.7929C16.4804 18.6054 16.7348 18.5 17 18.5H39C39.2652 18.5 39.5196 18.6054 39.7071 18.7929C39.8946 18.9804 40 19.2348 40 19.5V38.5L36 36.5L32 38.5L28 36.5L24 38.5L20 36.5L16 38.5Z" fill="#FA8232"/>
<path d="M21.5 25.5H34.5" stroke="#FA8232" stroke-width="2" stroke-linecap="round" stroke-linejoin="round"/>
<path d="M21.5 29.5H34.5" stroke="#FA8232" stroke-width="2" stroke-linecap="round" stroke-linejoin="round"/>
<path d="M16 38.5V19.5C16 19.2348 16.1054 18.9804 16.2929 18.7929C16.4804 18.6054 16.7348 18.5 17 18.5H39C39.2652 18.5 39.5196 18.6054 39.7071 18.7929C39.8946 18.9804 40 19.2348 40 19.5V38.5L36 36.5L32 38.5L28 36.5L24 38.5L20 36.5L16 38.5Z" stroke="#FA8232" stroke-width="2" stroke-linecap="round" stroke-linejoin="round"/>
</svg>
