<svg width="56" height="57" viewBox="0 0 56 57" fill="none" xmlns="http://www.w3.org/2000/svg">
<rect y="0.166687" width="56" height="56" rx="5" fill="white"/>
<rect x="0.5" y="0.666687" width="55" height="55" rx="4.5" stroke="#909090" stroke-opacity="0.2"/>
<path opacity="0.2" d="M21.2374 26.0917L17.3124 30.7917C17.2136 30.907 17.1438 31.0444 17.109 31.1923C17.0742 31.3402 17.0754 31.4943 17.1124 31.6417L18.6499 38.6042C18.687 38.7697 18.7656 38.923 18.8783 39.0498C18.991 39.1765 19.1341 39.2726 19.2941 39.3288C19.4541 39.3851 19.6257 39.3997 19.793 39.3713C19.9602 39.343 20.1174 39.2725 20.2499 39.1667L23.9999 36.1667C21.7999 32.3417 21.0874 28.9792 21.2374 26.0917Z" fill="#2DA5F3"/>
<path opacity="0.2" d="M34.6875 26.0042L38.6125 30.7167C38.7114 30.8321 38.7812 30.9695 38.816 31.1174C38.8508 31.2653 38.8496 31.4194 38.8125 31.5667L37.275 38.5167C37.2396 38.6833 37.1622 38.838 37.0503 38.9663C36.9383 39.0945 36.7954 39.1921 36.6351 39.2497C36.4749 39.3073 36.3026 39.323 36.1346 39.2953C35.9666 39.2677 35.8084 39.1976 35.675 39.0917L31.925 36.0917C34.125 32.2542 34.8375 28.8917 34.6875 26.0042Z" fill="#2DA5F3"/>
<path d="M30 40.1667H26" stroke="#2DA5F3" stroke-width="2" stroke-linecap="round" stroke-linejoin="round"/>
<path d="M27.3751 14.6417C25.0001 16.5417 17.0626 24.1417 24.0001 36.1667H32.0001C38.8001 24.1417 30.9751 16.5542 28.6251 14.6417C28.4497 14.4953 28.2285 14.415 28.0001 14.415C27.7716 14.415 27.5504 14.4953 27.3751 14.6417Z" stroke="#2DA5F3" stroke-width="2" stroke-linecap="round" stroke-linejoin="round"/>
<path d="M21.2374 26.0917L17.3124 30.7917C17.2136 30.907 17.1438 31.0444 17.109 31.1923C17.0742 31.3402 17.0754 31.4943 17.1124 31.6417L18.6499 38.6042C18.687 38.7697 18.7656 38.923 18.8783 39.0498C18.991 39.1765 19.1341 39.2726 19.2941 39.3288C19.4541 39.3851 19.6257 39.3997 19.793 39.3713C19.9602 39.343 20.1174 39.2725 20.2499 39.1667L23.9999 36.1667" stroke="#2DA5F3" stroke-width="2" stroke-linecap="round" stroke-linejoin="round"/>
<path d="M34.6875 25.9917L38.6875 30.7917C38.7864 30.9071 38.8561 31.0445 38.8909 31.1924C38.9258 31.3403 38.9246 31.4944 38.8875 31.6417L37.35 38.6042C37.3129 38.7697 37.2343 38.923 37.1216 39.0498C37.009 39.1766 36.8659 39.2726 36.7059 39.3288C36.5459 39.3851 36.3742 39.3997 36.207 39.3714C36.0398 39.343 35.8825 39.2726 35.75 39.1667L32 36.1667" stroke="#2DA5F3" stroke-width="2" stroke-linecap="round" stroke-linejoin="round"/>
<path d="M28 25.6667C28.8284 25.6667 29.5 24.9951 29.5 24.1667C29.5 23.3383 28.8284 22.6667 28 22.6667C27.1716 22.6667 26.5 23.3383 26.5 24.1667C26.5 24.9951 27.1716 25.6667 28 25.6667Z" fill="#2DA5F3"/>
</svg>
