<svg width="296" height="196" viewBox="0 0 296 196" fill="none" xmlns="http://www.w3.org/2000/svg">
<rect width="296" height="196" rx="10" fill="url(#paint0_radial_88_3974)"/>
<path d="M256 37.125C256.621 37.125 257.125 36.6213 257.125 36C257.125 35.3787 256.621 34.875 256 34.875C255.379 34.875 254.875 35.3787 254.875 36C254.875 36.6213 255.379 37.125 256 37.125Z" fill="white" stroke="white"/>
<path d="M262 37.125C262.621 37.125 263.125 36.6213 263.125 36C263.125 35.3787 262.621 34.875 262 34.875C261.379 34.875 260.875 35.3787 260.875 36C260.875 36.6213 261.379 37.125 262 37.125Z" fill="white" stroke="white"/>
<path d="M250 37.125C250.621 37.125 251.125 36.6213 251.125 36C251.125 35.3787 250.621 34.875 250 34.875C249.379 34.875 248.875 35.3787 248.875 36C248.875 36.6213 249.379 37.125 250 37.125Z" fill="white" stroke="white"/>
<g clip-path="url(#clip0_88_3974)">
<path d="M37.3404 158.271H34.0764L36.1163 145.735H39.3806L37.3404 158.271ZM31.3306 145.735L28.2189 154.357L27.8507 152.501L27.8511 152.501L26.7528 146.863C26.7528 146.863 26.62 145.735 25.2045 145.735H20.0603L19.9999 145.947C19.9999 145.947 21.573 146.274 23.4141 147.38L26.2498 158.272H29.6505L34.8434 145.735H31.3306ZM57.003 158.271H60L57.387 145.734H54.7633C53.5517 145.734 53.2566 146.669 53.2566 146.669L48.3887 158.271H51.7911L52.4715 156.409H56.6207L57.003 158.271ZM53.4115 153.837L55.1264 149.145L56.0912 153.837H53.4115ZM48.6439 148.749L49.1097 146.057C49.1097 146.057 47.6724 145.511 46.174 145.511C44.5543 145.511 40.7079 146.219 40.7079 149.661C40.7079 152.9 45.2223 152.94 45.2223 154.641C45.2223 156.342 41.173 156.037 39.8367 154.965L39.3514 157.78C39.3514 157.78 40.8088 158.488 43.0355 158.488C45.2629 158.488 48.6231 157.334 48.6231 154.195C48.6231 150.936 44.0681 150.632 44.0681 149.215C44.0684 147.798 47.2472 147.98 48.6439 148.749Z" fill="white"/>
<path d="M27.8511 152.503L26.7528 146.865C26.7528 146.865 26.62 145.736 25.2045 145.736H20.0603L19.9999 145.948C19.9999 145.948 22.4724 146.461 24.844 148.381C27.1116 150.216 27.8511 152.503 27.8511 152.503Z" fill="white"/>
</g>
<path d="M25.168 40.984C24.464 40.984 23.8133 40.8987 23.216 40.728C22.6187 40.5573 22.0853 40.3227 21.616 40.024C21.1573 39.7253 20.7733 39.3787 20.464 38.984L21.68 37.544C21.9147 37.9067 22.2187 38.2213 22.592 38.488C22.9653 38.744 23.3867 38.9467 23.856 39.096C24.3253 39.2347 24.8053 39.304 25.296 39.304C25.9467 39.304 26.4587 39.1973 26.832 38.984C27.2053 38.7707 27.392 38.456 27.392 38.04C27.392 37.7733 27.2853 37.544 27.072 37.352C26.8693 37.16 26.512 37.0053 26 36.888L23.76 36.376C23.1627 36.2373 22.6507 36.0453 22.224 35.8C21.7973 35.5547 21.472 35.256 21.248 34.904C21.0347 34.5413 20.928 34.1253 20.928 33.656C20.928 33.0373 21.0933 32.488 21.424 32.008C21.7653 31.528 22.2453 31.144 22.864 30.856C23.4933 30.568 24.2507 30.424 25.136 30.424C26.064 30.424 26.88 30.584 27.584 30.904C28.288 31.224 28.8853 31.6987 29.376 32.328L28.224 33.656C27.7973 33.112 27.3227 32.7173 26.8 32.472C26.288 32.216 25.6853 32.088 24.992 32.088C24.5227 32.088 24.1387 32.1467 23.84 32.264C23.5413 32.3707 23.3173 32.52 23.168 32.712C23.0293 32.904 22.96 33.1227 22.96 33.368C22.96 33.56 23.0027 33.736 23.088 33.896C23.1733 34.0453 23.3333 34.1787 23.568 34.296C23.8133 34.4133 24.16 34.5253 24.608 34.632L26.528 35.064C27.5307 35.288 28.2507 35.6187 28.688 36.056C29.136 36.4827 29.36 37.0533 29.36 37.768C29.36 38.4507 29.184 39.032 28.832 39.512C28.48 39.992 27.984 40.36 27.344 40.616C26.7147 40.8613 25.9893 40.984 25.168 40.984ZM24.416 42.472V28.968H25.904V42.472H24.416ZM34.8446 30.28C35.7833 30.28 36.5726 30.4987 37.2126 30.936C37.8526 31.3627 38.3326 31.9813 38.6526 32.792C38.9833 33.592 39.1486 34.5573 39.1486 35.688C39.1486 36.936 38.9726 37.9653 38.6206 38.776C38.2686 39.576 37.7673 40.1733 37.1166 40.568C36.4766 40.9627 35.7246 41.16 34.8606 41.16C33.954 41.16 33.17 40.968 32.5086 40.584C31.858 40.2 31.3673 39.6133 31.0366 38.824L33.0686 37.96C33.186 38.3973 33.3886 38.7493 33.6766 39.016C33.9753 39.272 34.386 39.4 34.9086 39.4C35.3246 39.4 35.6766 39.32 35.9646 39.16C36.2526 38.9893 36.482 38.7493 36.6526 38.44C36.834 38.1307 36.962 37.752 37.0366 37.304C37.122 36.856 37.1646 36.3547 37.1646 35.8C37.1646 35.7573 37.1646 35.72 37.1646 35.688C37.1646 35.656 37.1646 35.6187 37.1646 35.576H37.1006C36.9833 35.9493 36.7806 36.2587 36.4926 36.504C36.2153 36.7387 35.8953 36.9147 35.5326 37.032C35.17 37.1387 34.7966 37.192 34.4126 37.192C33.7406 37.192 33.1433 37.0587 32.6206 36.792C32.1086 36.5147 31.7033 36.1307 31.4046 35.64C31.106 35.1387 30.9566 34.5573 30.9566 33.896C30.9566 33.1493 31.1166 32.5093 31.4366 31.976C31.7566 31.432 32.2046 31.016 32.7806 30.728C33.3673 30.4293 34.0553 30.28 34.8446 30.28ZM34.8606 32.072C34.2953 32.072 33.8526 32.232 33.5326 32.552C33.2126 32.8613 33.0526 33.2987 33.0526 33.864C33.0526 34.3653 33.218 34.76 33.5486 35.048C33.8793 35.3253 34.3166 35.464 34.8606 35.464C35.2126 35.464 35.522 35.3947 35.7886 35.256C36.066 35.1173 36.2793 34.92 36.4286 34.664C36.578 34.408 36.6526 34.1147 36.6526 33.784C36.6526 33.432 36.578 33.128 36.4286 32.872C36.2793 32.616 36.066 32.4187 35.7886 32.28C35.522 32.1413 35.2126 32.072 34.8606 32.072ZM44.5291 41.16C43.6011 41.16 42.8171 40.968 42.1771 40.584C41.5478 40.2 41.0305 39.6133 40.6251 38.824L42.6091 37.832C42.7478 38.3013 42.9665 38.68 43.2651 38.968C43.5638 39.256 44.0011 39.4 44.5771 39.4C44.9718 39.4 45.3078 39.3307 45.5851 39.192C45.8625 39.0533 46.0758 38.8507 46.2251 38.584C46.3851 38.3173 46.4651 37.992 46.4651 37.608C46.4651 37.224 46.3905 36.904 46.2411 36.648C46.1025 36.3813 45.8998 36.184 45.6331 36.056C45.3665 35.9173 45.0305 35.848 44.6251 35.848C44.3478 35.848 44.0865 35.8747 43.8411 35.928C43.6065 35.9813 43.3931 36.0667 43.2011 36.184C43.0091 36.2907 42.8385 36.4347 42.6891 36.616L40.9611 36.296L41.6171 30.44H48.0011V32.216H43.2811L42.9611 34.792L42.9131 35H42.9451C43.1691 34.744 43.4731 34.5467 43.8571 34.408C44.2518 34.2693 44.6998 34.2 45.2011 34.2C45.8945 34.2 46.4865 34.3387 46.9771 34.616C47.4678 34.8933 47.8465 35.2827 48.1131 35.784C48.3798 36.2747 48.5131 36.84 48.5131 37.48C48.5131 38.088 48.4118 38.6267 48.2091 39.096C48.0065 39.5547 47.7185 39.9387 47.3451 40.248C46.9825 40.5467 46.5611 40.776 46.0811 40.936C45.6011 41.0853 45.0838 41.16 44.5291 41.16ZM51.4896 38.552C51.831 38.552 52.1136 38.6373 52.3376 38.808C52.5616 38.968 52.7323 39.1867 52.8496 39.464C52.967 39.7307 53.0256 40.0293 53.0256 40.36C53.0256 40.7973 52.935 41.2187 52.7536 41.624C52.583 42.0293 52.343 42.392 52.0336 42.712C51.7243 43.032 51.3723 43.2827 50.9776 43.464L50.0336 42.712C50.3216 42.5947 50.583 42.4507 50.8176 42.28C51.063 42.1093 51.271 41.9173 51.4416 41.704C51.6123 41.4907 51.735 41.272 51.8096 41.048L51.7296 41C51.6763 41.032 51.6123 41.0587 51.5376 41.08C51.463 41.112 51.3563 41.128 51.2176 41.128C51.047 41.128 50.8763 41.0853 50.7056 41C50.535 40.904 50.391 40.7707 50.2736 40.6C50.1563 40.4187 50.0976 40.1947 50.0976 39.928C50.0976 39.64 50.1616 39.3947 50.2896 39.192C50.4176 38.9893 50.5883 38.8347 50.8016 38.728C51.015 38.6107 51.2443 38.552 51.4896 38.552ZM64.5123 41V38.52H59.3603V37.08C59.4136 36.9733 59.4883 36.8453 59.5843 36.696C59.6909 36.536 59.8083 36.3547 59.9363 36.152L63.8723 30.44H66.5123V36.92H68.2243V38.52H66.5123V41H64.5123ZM61.2483 36.92H64.5283V33.432C64.5283 33.208 64.5336 32.968 64.5443 32.712C64.5549 32.456 64.5656 32.2053 64.5763 31.96H64.5443C64.4269 32.1947 64.2829 32.4507 64.1123 32.728C63.9523 32.9947 63.8029 33.2347 63.6643 33.448L61.4563 36.616C61.4243 36.6693 61.3869 36.7227 61.3443 36.776C61.3123 36.8187 61.2803 36.8667 61.2483 36.92ZM73.8693 41.16C72.5146 41.16 71.4693 40.7013 70.7333 39.784C70.0079 38.8667 69.6453 37.512 69.6453 35.72C69.6453 33.928 70.0079 32.5733 70.7333 31.656C71.4693 30.7387 72.5146 30.28 73.8693 30.28C75.2239 30.28 76.2639 30.7387 76.9893 31.656C77.7253 32.5733 78.0933 33.928 78.0933 35.72C78.0933 37.512 77.7253 38.8667 76.9893 39.784C76.2639 40.7013 75.2239 41.16 73.8693 41.16ZM73.8693 39.384C74.3279 39.384 74.7013 39.256 74.9893 39C75.2879 38.7333 75.5119 38.3333 75.6613 37.8C75.8106 37.256 75.8853 36.5627 75.8853 35.72C75.8853 34.8773 75.8106 34.1893 75.6613 33.656C75.5119 33.112 75.2879 32.712 74.9893 32.456C74.7013 32.1893 74.3279 32.056 73.8693 32.056C73.4106 32.056 73.0319 32.1893 72.7333 32.456C72.4346 32.712 72.2106 33.112 72.0613 33.656C71.9226 34.1893 71.8533 34.8773 71.8533 35.72C71.8533 36.5627 71.9226 37.256 72.0613 37.8C72.2106 38.3333 72.4346 38.7333 72.7333 39C73.0319 39.256 73.4106 39.384 73.8693 39.384ZM84.0411 41.16C82.6865 41.16 81.6411 40.7013 80.9051 39.784C80.1798 38.8667 79.8171 37.512 79.8171 35.72C79.8171 33.928 80.1798 32.5733 80.9051 31.656C81.6411 30.7387 82.6865 30.28 84.0411 30.28C85.3958 30.28 86.4358 30.7387 87.1611 31.656C87.8971 32.5733 88.2651 33.928 88.2651 35.72C88.2651 37.512 87.8971 38.8667 87.1611 39.784C86.4358 40.7013 85.3958 41.16 84.0411 41.16ZM84.0411 39.384C84.4998 39.384 84.8731 39.256 85.1611 39C85.4598 38.7333 85.6838 38.3333 85.8331 37.8C85.9825 37.256 86.0571 36.5627 86.0571 35.72C86.0571 34.8773 85.9825 34.1893 85.8331 33.656C85.6838 33.112 85.4598 32.712 85.1611 32.456C84.8731 32.1893 84.4998 32.056 84.0411 32.056C83.5825 32.056 83.2038 32.1893 82.9051 32.456C82.6065 32.712 82.3825 33.112 82.2331 33.656C82.0945 34.1893 82.0251 34.8773 82.0251 35.72C82.0251 36.5627 82.0945 37.256 82.2331 37.8C82.3825 38.3333 82.6065 38.7333 82.9051 39C83.2038 39.256 83.5825 39.384 84.0411 39.384ZM91.131 38.552C91.5577 38.552 91.8937 38.6693 92.139 38.904C92.395 39.1387 92.523 39.4533 92.523 39.848C92.523 40.2533 92.395 40.5733 92.139 40.808C91.8937 41.032 91.5577 41.144 91.131 41.144C90.7043 41.144 90.363 41.032 90.107 40.808C89.8617 40.5733 89.739 40.2533 89.739 39.848C89.739 39.4533 89.8617 39.1387 90.107 38.904C90.363 38.6693 90.7043 38.552 91.131 38.552ZM98.213 41.16C96.8583 41.16 95.813 40.7013 95.077 39.784C94.3517 38.8667 93.989 37.512 93.989 35.72C93.989 33.928 94.3517 32.5733 95.077 31.656C95.813 30.7387 96.8583 30.28 98.213 30.28C99.5677 30.28 100.608 30.7387 101.333 31.656C102.069 32.5733 102.437 33.928 102.437 35.72C102.437 37.512 102.069 38.8667 101.333 39.784C100.608 40.7013 99.5677 41.16 98.213 41.16ZM98.213 39.384C98.6717 39.384 99.045 39.256 99.333 39C99.6317 38.7333 99.8557 38.3333 100.005 37.8C100.154 37.256 100.229 36.5627 100.229 35.72C100.229 34.8773 100.154 34.1893 100.005 33.656C99.8557 33.112 99.6317 32.712 99.333 32.456C99.045 32.1893 98.6717 32.056 98.213 32.056C97.7543 32.056 97.3757 32.1893 97.077 32.456C96.7783 32.712 96.5543 33.112 96.405 33.656C96.2663 34.1893 96.197 34.8773 96.197 35.72C96.197 36.5627 96.2663 37.256 96.405 37.8C96.5543 38.3333 96.7783 38.7333 97.077 39C97.3757 39.256 97.7543 39.384 98.213 39.384ZM108.385 41.16C107.03 41.16 105.985 40.7013 105.249 39.784C104.524 38.8667 104.161 37.512 104.161 35.72C104.161 33.928 104.524 32.5733 105.249 31.656C105.985 30.7387 107.03 30.28 108.385 30.28C109.74 30.28 110.78 30.7387 111.505 31.656C112.241 32.5733 112.609 33.928 112.609 35.72C112.609 37.512 112.241 38.8667 111.505 39.784C110.78 40.7013 109.74 41.16 108.385 41.16ZM108.385 39.384C108.844 39.384 109.217 39.256 109.505 39C109.804 38.7333 110.028 38.3333 110.177 37.8C110.326 37.256 110.401 36.5627 110.401 35.72C110.401 34.8773 110.326 34.1893 110.177 33.656C110.028 33.112 109.804 32.712 109.505 32.456C109.217 32.1893 108.844 32.056 108.385 32.056C107.926 32.056 107.548 32.1893 107.249 32.456C106.95 32.712 106.726 33.112 106.577 33.656C106.438 34.1893 106.369 34.8773 106.369 35.72C106.369 36.5627 106.438 37.256 106.577 37.8C106.726 38.3333 106.95 38.7333 107.249 39C107.548 39.256 107.926 39.384 108.385 39.384ZM128.551 30.44V36.84C128.551 38.28 128.167 39.3627 127.399 40.088C126.631 40.8027 125.511 41.16 124.039 41.16C122.567 41.16 121.447 40.8027 120.679 40.088C119.911 39.3627 119.527 38.28 119.527 36.84V30.44H121.735V36.744C121.735 37.6293 121.922 38.2853 122.295 38.712C122.679 39.1387 123.261 39.352 124.039 39.352C124.818 39.352 125.394 39.1387 125.767 38.712C126.141 38.2853 126.327 37.6293 126.327 36.744V30.44H128.551ZM134.951 30.28C135.911 30.28 136.753 30.4453 137.479 30.776C138.204 31.1067 138.823 31.5973 139.335 32.248L138.103 33.672C137.665 33.1173 137.185 32.712 136.663 32.456C136.151 32.1893 135.553 32.056 134.871 32.056C134.423 32.056 134.049 32.1147 133.751 32.232C133.463 32.3493 133.249 32.504 133.111 32.696C132.983 32.888 132.919 33.1013 132.919 33.336C132.919 33.624 133.031 33.8693 133.255 34.072C133.479 34.264 133.863 34.424 134.407 34.552L136.375 35C137.42 35.2347 138.167 35.5867 138.615 36.056C139.073 36.5147 139.303 37.112 139.303 37.848C139.303 38.5413 139.121 39.1387 138.759 39.64C138.396 40.1307 137.889 40.5093 137.239 40.776C136.588 41.032 135.841 41.16 134.999 41.16C134.263 41.16 133.585 41.0747 132.967 40.904C132.359 40.7227 131.815 40.4773 131.335 40.168C130.855 39.8587 130.455 39.5013 130.135 39.096L131.383 37.608C131.628 37.9493 131.932 38.2533 132.295 38.52C132.657 38.7867 133.068 39 133.527 39.16C133.996 39.3093 134.487 39.384 134.999 39.384C135.436 39.384 135.804 39.336 136.103 39.24C136.412 39.1333 136.641 38.9893 136.791 38.808C136.951 38.616 137.031 38.3867 137.031 38.12C137.031 37.8427 136.935 37.608 136.743 37.416C136.561 37.2133 136.22 37.0587 135.719 36.952L133.575 36.472C132.956 36.3227 132.423 36.1307 131.975 35.896C131.537 35.6507 131.201 35.3413 130.967 34.968C130.743 34.584 130.631 34.1307 130.631 33.608C130.631 32.9787 130.801 32.4133 131.143 31.912C131.484 31.4107 131.975 31.016 132.615 30.728C133.265 30.4293 134.044 30.28 134.951 30.28ZM145.472 30.44C147.125 30.44 148.405 30.8987 149.312 31.816C150.218 32.7227 150.672 34.024 150.672 35.72C150.672 37.4053 150.218 38.7067 149.312 39.624C148.405 40.5413 147.125 41 145.472 41H141.392V30.44H145.472ZM145.36 39.24C146.362 39.24 147.114 38.9413 147.616 38.344C148.128 37.736 148.384 36.8613 148.384 35.72C148.384 34.5787 148.128 33.7093 147.616 33.112C147.114 32.504 146.362 32.2 145.36 32.2H143.6V39.24H145.36Z" fill="white"/>
<path opacity="0.7" d="M27.74 82.9C27.58 83.38 27.34 83.788 27.02 84.124C26.7 84.452 26.324 84.7 25.892 84.868C25.46 85.036 24.984 85.12 24.464 85.12C23.704 85.12 23.044 84.956 22.484 84.628C21.924 84.3 21.492 83.832 21.188 83.224C20.884 82.616 20.732 81.888 20.732 81.04C20.732 80.192 20.884 79.464 21.188 78.856C21.492 78.248 21.924 77.78 22.484 77.452C23.044 77.124 23.7 76.96 24.452 76.96C24.972 76.96 25.44 77.032 25.856 77.176C26.28 77.32 26.64 77.536 26.936 77.824C27.232 78.112 27.46 78.472 27.62 78.904L26.408 79.444C26.248 78.972 26.016 78.628 25.712 78.412C25.408 78.188 25.012 78.076 24.524 78.076C24.036 78.076 23.608 78.192 23.24 78.424C22.872 78.656 22.584 78.992 22.376 79.432C22.176 79.872 22.076 80.408 22.076 81.04C22.076 81.664 22.172 82.2 22.364 82.648C22.556 83.088 22.832 83.424 23.192 83.656C23.552 83.888 23.984 84.004 24.488 84.004C24.976 84.004 25.396 83.88 25.748 83.632C26.108 83.376 26.364 82.996 26.516 82.492L27.74 82.9ZM35.9551 85H34.5991L33.8431 82.924H30.5191L29.7631 85H28.4431L31.4311 77.08H32.9671L35.9551 85ZM30.8791 81.88H33.4831L32.1871 78.184L30.8791 81.88ZM40.5876 77.08C41.4356 77.08 42.1076 77.292 42.6036 77.716C43.1076 78.14 43.3596 78.712 43.3596 79.432C43.3596 80.176 43.1076 80.752 42.6036 81.16C42.1076 81.56 41.4356 81.76 40.5876 81.76L40.4676 81.832H38.6316V85H37.3596V77.08H40.5876ZM40.4916 80.764C41.0116 80.764 41.3956 80.66 41.6436 80.452C41.8996 80.236 42.0276 79.908 42.0276 79.468C42.0276 79.036 41.8996 78.712 41.6436 78.496C41.3956 78.28 41.0116 78.172 40.4916 78.172H38.6316V80.764H40.4916ZM41.2476 81.028L43.8276 85H42.3516L40.1436 81.532L41.2476 81.028ZM48.2181 77.08C49.4581 77.08 50.4221 77.424 51.1101 78.112C51.8061 78.792 52.1541 79.768 52.1541 81.04C52.1541 82.312 51.8061 83.292 51.1101 83.98C50.4221 84.66 49.4581 85 48.2181 85H45.4221V77.08H48.2181ZM48.2181 83.908C49.0581 83.908 49.6981 83.66 50.1381 83.164C50.5861 82.66 50.8101 81.952 50.8101 81.04C50.8101 80.128 50.5861 79.424 50.1381 78.928C49.6981 78.424 49.0581 78.172 48.2181 78.172H46.7061V83.908H48.2181ZM64.4532 77.08V85H62.9292L59.8692 80.008L59.1012 78.604H59.0892L59.1372 79.888V85H57.9612V77.08H59.4732L62.5212 82.06L63.3012 83.488H63.3132L63.2652 82.192V77.08H64.4532ZM73.1091 77.08V81.964C73.1091 83.012 72.8331 83.8 72.2811 84.328C71.7291 84.856 70.9251 85.12 69.8691 85.12C68.8291 85.12 68.0291 84.856 67.4691 84.328C66.9171 83.8 66.6411 83.012 66.6411 81.964V77.08H67.9251V81.808C67.9251 82.552 68.0851 83.104 68.4051 83.464C68.7251 83.824 69.2131 84.004 69.8691 84.004C70.5331 84.004 71.0251 83.824 71.3451 83.464C71.6651 83.104 71.8251 82.552 71.8251 81.808V77.08H73.1091ZM83.4049 77.08V85H82.2169V80.416L82.3129 78.232H82.3009L79.8889 85H78.8209L76.4089 78.232H76.3969L76.4929 80.416V85H75.3049V77.08H77.2129L78.8089 81.664L79.3609 83.548H79.3849L79.9489 81.664L81.5329 77.08H83.4049ZM85.758 85V77.08H88.878C89.83 77.08 90.526 77.272 90.966 77.656C91.406 78.04 91.626 78.572 91.626 79.252C91.626 79.668 91.506 80.04 91.266 80.368C91.026 80.688 90.674 80.892 90.21 80.98V80.992C90.722 81.072 91.118 81.284 91.398 81.628C91.686 81.964 91.83 82.356 91.83 82.804C91.83 83.484 91.582 84.02 91.086 84.412C90.59 84.804 89.87 85 88.926 85H85.758ZM87.018 83.932H88.986C89.49 83.932 89.866 83.828 90.114 83.62C90.37 83.412 90.498 83.12 90.498 82.744C90.498 82.368 90.37 82.076 90.114 81.868C89.866 81.66 89.49 81.556 88.986 81.556H87.018V83.932ZM87.018 80.488H88.782C89.79 80.488 90.294 80.1 90.294 79.324C90.294 78.548 89.79 78.16 88.782 78.16H87.018V80.488ZM93.7033 85V77.08H99.4393V78.184H94.9873V80.464H98.4673V81.544H94.9873V83.896H99.6073V85H93.7033ZM104.56 77.08C105.408 77.08 106.08 77.292 106.576 77.716C107.08 78.14 107.332 78.712 107.332 79.432C107.332 80.176 107.08 80.752 106.576 81.16C106.08 81.56 105.408 81.76 104.56 81.76L104.44 81.832H102.604V85H101.332V77.08H104.56ZM104.464 80.764C104.984 80.764 105.368 80.66 105.616 80.452C105.872 80.236 106 79.908 106 79.468C106 79.036 105.872 78.712 105.616 78.496C105.368 78.28 104.984 78.172 104.464 78.172H102.604V80.764H104.464ZM105.22 81.028L107.8 85H106.324L104.116 81.532L105.22 81.028Z" fill="white"/>
<path d="M26.02 108.88L27.6 110.56L29 112.52L27.96 113.28L26.52 111.34L25.42 109.32L25.72 109.1L26.02 108.88ZM25.42 108.88L25.72 109.1L26.02 109.32L24.92 111.34L23.48 113.28L22.44 112.52L23.84 110.56L25.42 108.88ZM21.44 107.04L23.76 107.76L25.84 108.74L25.72 109.1L25.6 109.46L23.34 109.02L21.06 108.26L21.44 107.04ZM26.38 104.4V106.82L26.1 109.1H25.72H25.34L25.06 106.82V104.4H26.38ZM30 107.04L30.38 108.26L28.1 109.02L25.84 109.46L25.72 109.1L25.6 108.74L27.68 107.76L30 107.04ZM37.4653 108.88L39.0453 110.56L40.4453 112.52L39.4053 113.28L37.9653 111.34L36.8653 109.32L37.1653 109.1L37.4653 108.88ZM36.8653 108.88L37.1653 109.1L37.4653 109.32L36.3653 111.34L34.9253 113.28L33.8853 112.52L35.2853 110.56L36.8653 108.88ZM32.8853 107.04L35.2053 107.76L37.2853 108.74L37.1653 109.1L37.0453 109.46L34.7853 109.02L32.5053 108.26L32.8853 107.04ZM37.8253 104.4V106.82L37.5453 109.1H37.1653H36.7853L36.5053 106.82V104.4H37.8253ZM41.4453 107.04L41.8253 108.26L39.5453 109.02L37.2853 109.46L37.1653 109.1L37.0453 108.74L39.1253 107.76L41.4453 107.04ZM48.9106 108.88L50.4906 110.56L51.8906 112.52L50.8506 113.28L49.4106 111.34L48.3106 109.32L48.6106 109.1L48.9106 108.88ZM48.3106 108.88L48.6106 109.1L48.9106 109.32L47.8106 111.34L46.3706 113.28L45.3306 112.52L46.7306 110.56L48.3106 108.88ZM44.3306 107.04L46.6506 107.76L48.7306 108.74L48.6106 109.1L48.4906 109.46L46.2306 109.02L43.9506 108.26L44.3306 107.04ZM49.2706 104.4V106.82L48.9906 109.1H48.6106H48.2306L47.9506 106.82V104.4H49.2706ZM52.8906 107.04L53.2706 108.26L50.9906 109.02L48.7306 109.46L48.6106 109.1L48.4906 108.74L50.5706 107.76L52.8906 107.04ZM60.3559 108.88L61.9359 110.56L63.3359 112.52L62.2959 113.28L60.8559 111.34L59.7559 109.32L60.0559 109.1L60.3559 108.88ZM59.7559 108.88L60.0559 109.1L60.3559 109.32L59.2559 111.34L57.8159 113.28L56.7759 112.52L58.1759 110.56L59.7559 108.88ZM55.7759 107.04L58.0959 107.76L60.1759 108.74L60.0559 109.1L59.9359 109.46L57.6759 109.02L55.3959 108.26L55.7759 107.04ZM60.7159 104.4V106.82L60.4359 109.1H60.0559H59.6759L59.3959 106.82V104.4H60.7159ZM64.3359 107.04L64.7159 108.26L62.4359 109.02L60.1759 109.46L60.0559 109.1L59.9359 108.74L62.0159 107.76L64.3359 107.04ZM85.4341 108.88L87.0141 110.56L88.4141 112.52L87.3741 113.28L85.9341 111.34L84.8341 109.32L85.1341 109.1L85.4341 108.88ZM84.8341 108.88L85.1341 109.1L85.4341 109.32L84.3341 111.34L82.8941 113.28L81.8541 112.52L83.2541 110.56L84.8341 108.88ZM80.8541 107.04L83.1741 107.76L85.2541 108.74L85.1341 109.1L85.0141 109.46L82.7541 109.02L80.4741 108.26L80.8541 107.04ZM85.7941 104.4V106.82L85.5141 109.1H85.1341H84.7541L84.4741 106.82V104.4H85.7941ZM89.4141 107.04L89.7941 108.26L87.5141 109.02L85.2541 109.46L85.1341 109.1L85.0141 108.74L87.0941 107.76L89.4141 107.04ZM96.8794 108.88L98.4594 110.56L99.8594 112.52L98.8194 113.28L97.3794 111.34L96.2794 109.32L96.5794 109.1L96.8794 108.88ZM96.2794 108.88L96.5794 109.1L96.8794 109.32L95.7794 111.34L94.3394 113.28L93.2994 112.52L94.6994 110.56L96.2794 108.88ZM92.2994 107.04L94.6194 107.76L96.6994 108.74L96.5794 109.1L96.4594 109.46L94.1994 109.02L91.9194 108.26L92.2994 107.04ZM97.2394 104.4V106.82L96.9594 109.1H96.5794H96.1994L95.9194 106.82V104.4H97.2394ZM100.859 107.04L101.239 108.26L98.9594 109.02L96.6994 109.46L96.5794 109.1L96.4594 108.74L98.5394 107.76L100.859 107.04ZM108.325 108.88L109.905 110.56L111.305 112.52L110.265 113.28L108.825 111.34L107.725 109.32L108.025 109.1L108.325 108.88ZM107.725 108.88L108.025 109.1L108.325 109.32L107.225 111.34L105.785 113.28L104.745 112.52L106.145 110.56L107.725 108.88ZM103.745 107.04L106.065 107.76L108.145 108.74L108.025 109.1L107.905 109.46L105.645 109.02L103.365 108.26L103.745 107.04ZM108.685 104.4V106.82L108.405 109.1H108.025H107.645L107.365 106.82V104.4H108.685ZM112.305 107.04L112.685 108.26L110.405 109.02L108.145 109.46L108.025 109.1L107.905 108.74L109.985 107.76L112.305 107.04ZM119.77 108.88L121.35 110.56L122.75 112.52L121.71 113.28L120.27 111.34L119.17 109.32L119.47 109.1L119.77 108.88ZM119.17 108.88L119.47 109.1L119.77 109.32L118.67 111.34L117.23 113.28L116.19 112.52L117.59 110.56L119.17 108.88ZM115.19 107.04L117.51 107.76L119.59 108.74L119.47 109.1L119.35 109.46L117.09 109.02L114.81 108.26L115.19 107.04ZM120.13 104.4V106.82L119.85 109.1H119.47H119.09L118.81 106.82V104.4H120.13ZM123.75 107.04L124.13 108.26L121.85 109.02L119.59 109.46L119.47 109.1L119.35 108.74L121.43 107.76L123.75 107.04ZM144.848 108.88L146.428 110.56L147.828 112.52L146.788 113.28L145.348 111.34L144.248 109.32L144.548 109.1L144.848 108.88ZM144.248 108.88L144.548 109.1L144.848 109.32L143.748 111.34L142.308 113.28L141.268 112.52L142.668 110.56L144.248 108.88ZM140.268 107.04L142.588 107.76L144.668 108.74L144.548 109.1L144.428 109.46L142.168 109.02L139.888 108.26L140.268 107.04ZM145.208 104.4V106.82L144.928 109.1H144.548H144.168L143.888 106.82V104.4H145.208ZM148.828 107.04L149.208 108.26L146.928 109.02L144.668 109.46L144.548 109.1L144.428 108.74L146.508 107.76L148.828 107.04ZM156.293 108.88L157.873 110.56L159.273 112.52L158.233 113.28L156.793 111.34L155.693 109.32L155.993 109.1L156.293 108.88ZM155.693 108.88L155.993 109.1L156.293 109.32L155.193 111.34L153.753 113.28L152.713 112.52L154.113 110.56L155.693 108.88ZM151.713 107.04L154.033 107.76L156.113 108.74L155.993 109.1L155.873 109.46L153.613 109.02L151.333 108.26L151.713 107.04ZM156.653 104.4V106.82L156.373 109.1H155.993H155.613L155.333 106.82V104.4H156.653ZM160.273 107.04L160.653 108.26L158.373 109.02L156.113 109.46L155.993 109.1L155.873 108.74L157.953 107.76L160.273 107.04ZM167.739 108.88L169.319 110.56L170.719 112.52L169.679 113.28L168.239 111.34L167.139 109.32L167.439 109.1L167.739 108.88ZM167.139 108.88L167.439 109.1L167.739 109.32L166.639 111.34L165.199 113.28L164.159 112.52L165.559 110.56L167.139 108.88ZM163.159 107.04L165.479 107.76L167.559 108.74L167.439 109.1L167.319 109.46L165.059 109.02L162.779 108.26L163.159 107.04ZM168.099 104.4V106.82L167.819 109.1H167.439H167.059L166.779 106.82V104.4H168.099ZM171.719 107.04L172.099 108.26L169.819 109.02L167.559 109.46L167.439 109.1L167.319 108.74L169.399 107.76L171.719 107.04ZM179.184 108.88L180.764 110.56L182.164 112.52L181.124 113.28L179.684 111.34L178.584 109.32L178.884 109.1L179.184 108.88ZM178.584 108.88L178.884 109.1L179.184 109.32L178.084 111.34L176.644 113.28L175.604 112.52L177.004 110.56L178.584 108.88ZM174.604 107.04L176.924 107.76L179.004 108.74L178.884 109.1L178.764 109.46L176.504 109.02L174.224 108.26L174.604 107.04ZM179.544 104.4V106.82L179.264 109.1H178.884H178.504L178.224 106.82V104.4H179.544ZM183.164 107.04L183.544 108.26L181.264 109.02L179.004 109.46L178.884 109.1L178.764 108.74L180.844 107.76L183.164 107.04ZM204.042 119.2C202.869 119.2 201.829 118.927 200.922 118.38C200.029 117.82 199.422 117.053 199.102 116.08L200.702 115.26C200.862 115.753 201.082 116.187 201.362 116.56C201.642 116.92 202.009 117.2 202.462 117.4C202.929 117.6 203.509 117.7 204.202 117.7C204.789 117.7 205.282 117.593 205.682 117.38C206.082 117.167 206.389 116.88 206.602 116.52C206.816 116.147 206.922 115.72 206.922 115.24C206.922 114.76 206.829 114.36 206.642 114.04C206.469 113.72 206.189 113.487 205.802 113.34C205.416 113.18 204.909 113.1 204.282 113.1C204.136 113.1 203.976 113.107 203.802 113.12C203.629 113.12 203.449 113.133 203.262 113.16V111.56C203.382 111.573 203.496 111.58 203.602 111.58C203.722 111.58 203.829 111.58 203.922 111.58C204.896 111.58 205.589 111.393 206.002 111.02C206.416 110.633 206.622 110.033 206.622 109.22C206.622 108.527 206.409 108 205.982 107.64C205.556 107.28 204.949 107.1 204.162 107.1C203.322 107.1 202.682 107.287 202.242 107.66C201.802 108.02 201.456 108.513 201.202 109.14L199.682 108.42C199.896 107.86 200.216 107.367 200.642 106.94C201.069 106.513 201.582 106.18 202.182 105.94C202.796 105.7 203.469 105.58 204.202 105.58C205.122 105.58 205.882 105.74 206.482 106.06C207.082 106.367 207.529 106.78 207.822 107.3C208.129 107.82 208.282 108.393 208.282 109.02C208.282 109.5 208.216 109.933 208.082 110.32C207.949 110.693 207.762 111.02 207.522 111.3C207.296 111.58 207.036 111.807 206.742 111.98C206.449 112.14 206.136 112.247 205.802 112.3V112.34C206.242 112.353 206.629 112.44 206.962 112.6C207.309 112.76 207.602 112.973 207.842 113.24C208.082 113.507 208.262 113.813 208.382 114.16C208.516 114.493 208.582 114.847 208.582 115.22C208.582 115.993 208.389 116.68 208.002 117.28C207.629 117.88 207.102 118.353 206.422 118.7C205.742 119.033 204.949 119.2 204.042 119.2ZM216.062 105.62C216.916 105.62 217.656 105.76 218.282 106.04C218.909 106.32 219.396 106.72 219.742 107.24C220.089 107.747 220.262 108.36 220.262 109.08C220.262 109.76 220.096 110.36 219.762 110.88C219.442 111.387 218.989 111.773 218.402 112.04V112.06C219.149 112.34 219.742 112.767 220.182 113.34C220.636 113.913 220.862 114.613 220.862 115.44C220.862 116.213 220.662 116.88 220.262 117.44C219.862 118 219.302 118.433 218.582 118.74C217.876 119.047 217.036 119.2 216.062 119.2C215.102 119.2 214.262 119.047 213.542 118.74C212.822 118.433 212.262 118 211.862 117.44C211.462 116.88 211.262 116.213 211.262 115.44C211.262 114.627 211.482 113.933 211.922 113.36C212.362 112.773 212.969 112.34 213.742 112.06V112.04C213.169 111.787 212.709 111.407 212.362 110.9C212.029 110.38 211.862 109.773 211.862 109.08C211.862 108.36 212.036 107.747 212.382 107.24C212.729 106.72 213.216 106.32 213.842 106.04C214.482 105.76 215.222 105.62 216.062 105.62ZM216.062 107.12C215.289 107.12 214.669 107.307 214.202 107.68C213.749 108.053 213.522 108.573 213.522 109.24C213.522 109.893 213.756 110.407 214.222 110.78C214.689 111.153 215.302 111.34 216.062 111.34C216.822 111.34 217.436 111.153 217.902 110.78C218.369 110.407 218.602 109.893 218.602 109.24C218.602 108.573 218.376 108.053 217.922 107.68C217.469 107.307 216.849 107.12 216.062 107.12ZM216.062 117.7C216.716 117.7 217.276 117.607 217.742 117.42C218.209 117.22 218.569 116.94 218.822 116.58C219.076 116.207 219.202 115.773 219.202 115.28C219.202 114.773 219.069 114.34 218.802 113.98C218.549 113.607 218.189 113.327 217.722 113.14C217.256 112.94 216.702 112.84 216.062 112.84C215.436 112.84 214.882 112.94 214.402 113.14C213.936 113.327 213.569 113.607 213.302 113.98C213.049 114.34 212.922 114.773 212.922 115.28C212.922 115.773 213.049 116.207 213.302 116.58C213.556 116.94 213.916 117.22 214.382 117.42C214.862 117.607 215.422 117.7 216.062 117.7ZM226.387 119V109.32C226.387 109.093 226.387 108.853 226.387 108.6C226.4 108.333 226.413 108.06 226.427 107.78C225.973 108.22 225.447 108.607 224.847 108.94C224.247 109.26 223.633 109.493 223.007 109.64L222.587 108.18C222.827 108.153 223.127 108.067 223.487 107.92C223.86 107.76 224.247 107.567 224.647 107.34C225.06 107.1 225.44 106.847 225.787 106.58C226.133 106.313 226.4 106.053 226.587 105.8H227.987V119H226.387ZM237.34 119V115.54H230.9V114.36L236.92 105.8H238.94V114.16H241.28V115.54H238.94V119H237.34ZM232.6 114.16H237.34V109.22C237.34 108.873 237.346 108.52 237.36 108.16C237.386 107.8 237.406 107.447 237.42 107.1H237.38C237.22 107.433 237.013 107.807 236.76 108.22C236.506 108.633 236.273 108.993 236.06 109.3L232.6 114.16Z" fill="white"/>
<g opacity="0.5">
<path d="M262.125 115.125H265.875V105.125H255.875V108.875" stroke="white" stroke-width="1.5" stroke-linecap="round" stroke-linejoin="round"/>
<path d="M262.125 108.875H252.125V118.875H262.125V108.875Z" stroke="white" stroke-width="1.5" stroke-linecap="round" stroke-linejoin="round"/>
</g>
<path d="M193.155 147.76L189.039 152.212L188.871 152.226L186.477 154.802L186.337 153.164L191.321 147.76H193.155ZM187.079 147.76V157H185.581V147.76H187.079ZM189.347 151.064L193.239 157H191.475L188.157 151.904L189.347 151.064ZM197.201 157.14C196.501 157.14 195.885 156.995 195.353 156.706C194.821 156.417 194.406 156.001 194.107 155.46C193.818 154.909 193.673 154.256 193.673 153.5C193.673 152.744 193.818 152.095 194.107 151.554C194.406 151.003 194.816 150.583 195.339 150.294C195.862 150.005 196.454 149.86 197.117 149.86C197.798 149.86 198.377 150 198.853 150.28C199.329 150.56 199.693 150.943 199.945 151.428C200.197 151.913 200.323 152.464 200.323 153.08C200.323 153.248 200.318 153.407 200.309 153.556C200.3 153.705 200.286 153.836 200.267 153.948H194.639V152.8H199.609L198.867 153.024C198.867 152.389 198.708 151.904 198.391 151.568C198.074 151.223 197.64 151.05 197.089 151.05C196.688 151.05 196.338 151.143 196.039 151.33C195.74 151.517 195.512 151.797 195.353 152.17C195.194 152.534 195.115 152.982 195.115 153.514C195.115 154.037 195.199 154.48 195.367 154.844C195.535 155.208 195.773 155.483 196.081 155.67C196.389 155.857 196.753 155.95 197.173 155.95C197.64 155.95 198.018 155.861 198.307 155.684C198.596 155.507 198.825 155.259 198.993 154.942L200.183 155.502C200.015 155.838 199.786 156.132 199.497 156.384C199.217 156.627 198.881 156.813 198.489 156.944C198.097 157.075 197.668 157.14 197.201 157.14ZM206.616 150H208.184L205.398 157H203.76L200.96 150H202.598L204.586 155.698L206.616 150ZM210.217 148.824C209.89 148.824 209.638 148.745 209.461 148.586C209.293 148.418 209.209 148.185 209.209 147.886C209.209 147.587 209.293 147.359 209.461 147.2C209.638 147.041 209.89 146.962 210.217 146.962C210.534 146.962 210.777 147.041 210.945 147.2C211.122 147.359 211.211 147.587 211.211 147.886C211.211 148.185 211.122 148.418 210.945 148.586C210.777 148.745 210.534 148.824 210.217 148.824ZM210.959 150V157H209.461V150H210.959ZM213.303 157V150H214.633L214.731 151.82L214.535 151.624C214.665 151.223 214.852 150.891 215.095 150.63C215.347 150.359 215.641 150.163 215.977 150.042C216.322 149.921 216.686 149.86 217.069 149.86C217.563 149.86 218.007 149.958 218.399 150.154C218.8 150.341 219.117 150.625 219.351 151.008C219.584 151.391 219.701 151.876 219.701 152.464V157H218.203V152.926C218.203 152.235 218.058 151.759 217.769 151.498C217.489 151.227 217.134 151.092 216.705 151.092C216.397 151.092 216.098 151.167 215.809 151.316C215.519 151.456 215.277 151.685 215.081 152.002C214.894 152.319 214.801 152.744 214.801 153.276V157H213.303ZM228.155 157L225.439 147.76H227.021L229.093 155.698L231.109 147.76H232.649L234.679 155.712L236.737 147.76H238.263L235.561 157H233.797L232.327 151.456L231.865 149.328H231.851L231.389 151.456L229.933 157H228.155ZM243.298 152.506C243.298 152.039 243.167 151.68 242.906 151.428C242.654 151.167 242.304 151.036 241.856 151.036C241.436 151.036 241.077 151.134 240.778 151.33C240.479 151.526 240.26 151.843 240.12 152.282L238.86 151.75C239.037 151.181 239.383 150.723 239.896 150.378C240.419 150.033 241.091 149.86 241.912 149.86C242.472 149.86 242.967 149.953 243.396 150.14C243.825 150.317 244.161 150.588 244.404 150.952C244.656 151.316 244.782 151.783 244.782 152.352V155.474C244.782 155.819 244.955 155.992 245.3 155.992C245.468 155.992 245.631 155.969 245.79 155.922L245.706 156.958C245.491 157.061 245.221 157.112 244.894 157.112C244.595 157.112 244.325 157.061 244.082 156.958C243.849 156.846 243.662 156.683 243.522 156.468C243.391 156.244 243.326 155.969 243.326 155.642V155.544L243.634 155.53C243.55 155.894 243.377 156.197 243.116 156.44C242.855 156.673 242.551 156.851 242.206 156.972C241.861 157.084 241.511 157.14 241.156 157.14C240.717 157.14 240.321 157.07 239.966 156.93C239.621 156.79 239.345 156.58 239.14 156.3C238.944 156.011 238.846 155.656 238.846 155.236C238.846 154.713 239.014 154.284 239.35 153.948C239.695 153.612 240.181 153.383 240.806 153.262L243.522 152.73L243.508 153.78L241.534 154.186C241.142 154.261 240.848 154.368 240.652 154.508C240.456 154.648 240.358 154.853 240.358 155.124C240.358 155.385 240.456 155.595 240.652 155.754C240.857 155.903 241.128 155.978 241.464 155.978C241.697 155.978 241.921 155.95 242.136 155.894C242.36 155.838 242.561 155.749 242.738 155.628C242.915 155.497 243.051 155.334 243.144 155.138C243.247 154.933 243.298 154.69 243.298 154.41V152.506ZM248.692 146.85V155.04C248.692 155.385 248.753 155.623 248.874 155.754C248.996 155.885 249.196 155.95 249.476 155.95C249.644 155.95 249.784 155.941 249.896 155.922C250.018 155.894 250.167 155.847 250.344 155.782L250.176 156.902C250.018 156.977 249.836 157.033 249.63 157.07C249.425 157.117 249.22 157.14 249.014 157.14C248.389 157.14 247.927 156.981 247.628 156.664C247.339 156.337 247.194 155.838 247.194 155.166V146.85H248.692ZM253.382 147.942V154.9C253.382 155.245 253.47 155.497 253.648 155.656C253.834 155.815 254.082 155.894 254.39 155.894C254.642 155.894 254.861 155.857 255.048 155.782C255.234 155.698 255.407 155.586 255.566 155.446L255.902 156.538C255.687 156.725 255.421 156.874 255.104 156.986C254.796 157.089 254.45 157.14 254.068 157.14C253.666 157.14 253.298 157.075 252.962 156.944C252.626 156.813 252.364 156.603 252.178 156.314C251.991 156.015 251.893 155.628 251.884 155.152V148.362L253.382 147.942ZM255.79 150V151.176H250.54V150H255.79ZM260.351 157.14C259.651 157.14 259.035 156.995 258.503 156.706C257.971 156.417 257.556 156.001 257.257 155.46C256.968 154.909 256.823 154.256 256.823 153.5C256.823 152.744 256.968 152.095 257.257 151.554C257.556 151.003 257.967 150.583 258.489 150.294C259.012 150.005 259.605 149.86 260.267 149.86C260.949 149.86 261.527 150 262.003 150.28C262.479 150.56 262.843 150.943 263.095 151.428C263.347 151.913 263.473 152.464 263.473 153.08C263.473 153.248 263.469 153.407 263.459 153.556C263.45 153.705 263.436 153.836 263.417 153.948H257.789V152.8H262.759L262.017 153.024C262.017 152.389 261.859 151.904 261.541 151.568C261.224 151.223 260.79 151.05 260.239 151.05C259.838 151.05 259.488 151.143 259.189 151.33C258.891 151.517 258.662 151.797 258.503 152.17C258.345 152.534 258.265 152.982 258.265 153.514C258.265 154.037 258.349 154.48 258.517 154.844C258.685 155.208 258.923 155.483 259.231 155.67C259.539 155.857 259.903 155.95 260.323 155.95C260.79 155.95 261.168 155.861 261.457 155.684C261.747 155.507 261.975 155.259 262.143 154.942L263.333 155.502C263.165 155.838 262.937 156.132 262.647 156.384C262.367 156.627 262.031 156.813 261.639 156.944C261.247 157.075 260.818 157.14 260.351 157.14ZM265.365 157V150H266.639L266.779 151.26C266.966 150.803 267.241 150.457 267.605 150.224C267.978 149.981 268.436 149.86 268.977 149.86C269.117 149.86 269.257 149.874 269.397 149.902C269.537 149.921 269.654 149.953 269.747 150L269.537 151.316C269.434 151.279 269.318 151.251 269.187 151.232C269.066 151.204 268.898 151.19 268.683 151.19C268.394 151.19 268.109 151.269 267.829 151.428C267.549 151.577 267.316 151.806 267.129 152.114C266.952 152.422 266.863 152.814 266.863 153.29V157H265.365Z" fill="white"/>
<defs>
<radialGradient id="paint0_radial_88_3974" cx="0" cy="0" r="1" gradientUnits="userSpaceOnUse" gradientTransform="rotate(33.4056) scale(347.99 511.033)">
<stop stop-color="#1B6392"/>
<stop offset="1" stop-color="#124261"/>
</radialGradient>
<clipPath id="clip0_88_3974">
<rect width="40" height="40" fill="white" transform="translate(20 132)"/>
</clipPath>
</defs>
</svg>
