<svg width="40" height="40" viewBox="0 0 40 40" fill="none" xmlns="http://www.w3.org/2000/svg">
<g clip-path="url(#clip0_88_6936)">
<path d="M17.3404 26.2713H14.0765L16.1164 13.7347H19.3807L17.3404 26.2713ZM11.3307 13.7347L8.219 22.3575L7.85079 20.5006L7.85112 20.5013L6.75287 14.8635C6.75287 14.8635 6.62007 13.7347 5.20457 13.7347H0.0603624L0 13.947C0 13.947 1.57311 14.2743 3.41416 15.3799L6.24985 26.2716H9.65059L14.8434 13.7347H11.3307ZM37.0031 26.2713H40.0001L37.3871 13.7344H34.7633C33.5517 13.7344 33.2566 14.6686 33.2566 14.6686L28.3887 26.2713H31.7912L32.4716 24.4091H36.6208L37.0031 26.2713ZM33.4115 21.8367L35.1265 17.1452L36.0913 21.8367H33.4115ZM28.6439 16.7495L29.1097 14.0573C29.1097 14.0573 27.6724 13.5107 26.1741 13.5107C24.5544 13.5107 20.708 14.2186 20.708 17.6609C20.708 20.8997 25.2224 20.9399 25.2224 22.6412C25.2224 24.3424 21.1731 24.0375 19.8367 22.9648L19.3515 25.7797C19.3515 25.7797 20.8089 26.4876 23.0356 26.4876C25.263 26.4876 28.6231 25.3343 28.6231 22.1955C28.6231 18.9359 24.0681 18.6324 24.0681 17.2153C24.0685 15.7977 27.2472 15.9798 28.6439 16.7495Z" fill="white"/>
<path d="M7.85117 20.503L6.7529 14.8651C6.7529 14.8651 6.6201 13.7363 5.2046 13.7363H0.0603627L0 13.9486C0 13.9486 2.47252 14.461 4.8441 16.3809C7.11172 18.2159 7.85117 20.503 7.85117 20.503Z" fill="white"/>
</g>
<defs>
<clipPath id="clip0_88_6936">
<rect width="40" height="40" fill="white"/>
</clipPath>
</defs>
</svg>
