<svg width="100" height="20" viewBox="0 0 100 20" fill="none" xmlns="http://www.w3.org/2000/svg">
<path d="M10.3446 14.901L14.2849 17.3974C14.7886 17.7165 15.4139 17.2419 15.2644 16.654L14.126 12.1756C14.0939 12.0509 14.0977 11.9197 14.137 11.797C14.1762 11.6743 14.2492 11.5652 14.3477 11.4822L17.8811 8.54132C18.3453 8.1549 18.1057 7.38439 17.5092 7.34567L12.8949 7.0462C12.7706 7.03732 12.6514 6.99332 12.5511 6.91931C12.4509 6.84531 12.3737 6.74435 12.3286 6.62819L10.6076 2.29436C10.5609 2.17106 10.4777 2.06492 10.3692 1.99002C10.2606 1.91511 10.1319 1.875 10 1.875C9.86813 1.875 9.73938 1.91511 9.63085 1.99002C9.52232 2.06492 9.43914 2.17106 9.39236 2.29436L7.6714 6.62819C7.62631 6.74435 7.54914 6.84531 7.4489 6.91931C7.34865 6.99332 7.22944 7.03732 7.10515 7.0462L2.49078 7.34567C1.89429 7.38439 1.65466 8.1549 2.11894 8.54132L5.65232 11.4822C5.75079 11.5652 5.82383 11.6743 5.86305 11.797C5.90226 11.9197 5.90606 12.0509 5.874 12.1756L4.81824 16.3288C4.63889 17.0343 5.38929 17.6038 5.99369 17.2209L9.65539 14.901C9.75837 14.8354 9.87792 14.8006 10 14.8006C10.1221 14.8006 10.2416 14.8354 10.3446 14.901Z" fill="#FAC80F"/>
<path d="M30.3446 14.901L34.2849 17.3974C34.7886 17.7165 35.4139 17.2419 35.2644 16.654L34.126 12.1756C34.0939 12.0509 34.0977 11.9197 34.137 11.797C34.1762 11.6743 34.2492 11.5652 34.3477 11.4822L37.8811 8.54132C38.3453 8.1549 38.1057 7.38439 37.5092 7.34567L32.8949 7.0462C32.7706 7.03732 32.6514 6.99332 32.5511 6.91931C32.4509 6.84531 32.3737 6.74435 32.3286 6.62819L30.6076 2.29436C30.5609 2.17106 30.4777 2.06492 30.3692 1.99002C30.2606 1.91511 30.1319 1.875 30 1.875C29.8681 1.875 29.7394 1.91511 29.6309 1.99002C29.5223 2.06492 29.4391 2.17106 29.3924 2.29436L27.6714 6.62819C27.6263 6.74435 27.5491 6.84531 27.4489 6.91931C27.3486 6.99332 27.2294 7.03732 27.1052 7.0462L22.4908 7.34567C21.8943 7.38439 21.6547 8.1549 22.1189 8.54132L25.6523 11.4822C25.7508 11.5652 25.8238 11.6743 25.863 11.797C25.9023 11.9197 25.9061 12.0509 25.874 12.1756L24.8182 16.3288C24.6389 17.0343 25.3893 17.6038 25.9937 17.2209L29.6554 14.901C29.7584 14.8354 29.8779 14.8006 30 14.8006C30.1221 14.8006 30.2416 14.8354 30.3446 14.901Z" fill="#FAC80F"/>
<path d="M50.3446 14.901L54.2849 17.3974C54.7886 17.7165 55.4139 17.2419 55.2644 16.654L54.126 12.1756C54.0939 12.0509 54.0977 11.9197 54.137 11.797C54.1762 11.6743 54.2492 11.5652 54.3477 11.4822L57.8811 8.54132C58.3453 8.1549 58.1057 7.38439 57.5092 7.34567L52.8949 7.0462C52.7706 7.03732 52.6514 6.99332 52.5511 6.91931C52.4509 6.84531 52.3737 6.74435 52.3286 6.62819L50.6076 2.29436C50.5609 2.17106 50.4777 2.06492 50.3692 1.99002C50.2606 1.91511 50.1319 1.875 50 1.875C49.8681 1.875 49.7394 1.91511 49.6309 1.99002C49.5223 2.06492 49.4391 2.17106 49.3924 2.29436L47.6714 6.62819C47.6263 6.74435 47.5491 6.84531 47.4489 6.91931C47.3486 6.99332 47.2294 7.03732 47.1052 7.0462L42.4908 7.34567C41.8943 7.38439 41.6547 8.1549 42.1189 8.54132L45.6523 11.4822C45.7508 11.5652 45.8238 11.6743 45.863 11.797C45.9023 11.9197 45.9061 12.0509 45.874 12.1756L44.8182 16.3288C44.6389 17.0343 45.3893 17.6038 45.9937 17.2209L49.6554 14.901C49.7584 14.8354 49.8779 14.8006 50 14.8006C50.1221 14.8006 50.2416 14.8354 50.3446 14.901Z" fill="#FAC80F"/>
<path d="M70.3446 14.901L74.2849 17.3974C74.7886 17.7165 75.4139 17.2419 75.2644 16.654L74.126 12.1756C74.0939 12.0509 74.0977 11.9197 74.137 11.797C74.1762 11.6743 74.2492 11.5652 74.3477 11.4822L77.8811 8.54132C78.3453 8.1549 78.1057 7.38439 77.5092 7.34567L72.8949 7.0462C72.7706 7.03732 72.6514 6.99332 72.5511 6.91931C72.4509 6.84531 72.3737 6.74435 72.3286 6.62819L70.6076 2.29436C70.5609 2.17106 70.4777 2.06492 70.3692 1.99002C70.2606 1.91511 70.1319 1.875 70 1.875C69.8681 1.875 69.7394 1.91511 69.6309 1.99002C69.5223 2.06492 69.4391 2.17106 69.3924 2.29436L67.6714 6.62819C67.6263 6.74435 67.5491 6.84531 67.4489 6.91931C67.3486 6.99332 67.2294 7.03732 67.1052 7.0462L62.4908 7.34567C61.8943 7.38439 61.6547 8.1549 62.1189 8.54132L65.6523 11.4822C65.7508 11.5652 65.8238 11.6743 65.863 11.797C65.9023 11.9197 65.9061 12.0509 65.874 12.1756L64.8182 16.3288C64.6389 17.0343 65.3893 17.6038 65.9937 17.2209L69.6554 14.901C69.7584 14.8354 69.8779 14.8006 70 14.8006C70.1221 14.8006 70.2416 14.8354 70.3446 14.901Z" fill="#FAC80F"/>
<path d="M90.3446 14.901L94.2849 17.3974C94.7886 17.7165 95.4139 17.2419 95.2644 16.654L94.126 12.1756C94.0939 12.0509 94.0977 11.9197 94.137 11.797C94.1762 11.6743 94.2492 11.5652 94.3477 11.4822L97.8811 8.54132C98.3453 8.1549 98.1057 7.38439 97.5092 7.34567L92.8949 7.0462C92.7706 7.03732 92.6514 6.99332 92.5511 6.91931C92.4509 6.84531 92.3737 6.74435 92.3286 6.62819L90.6076 2.29436C90.5609 2.17106 90.4777 2.06492 90.3692 1.99002C90.2606 1.91511 90.1319 1.875 90 1.875C89.8681 1.875 89.7394 1.91511 89.6309 1.99002C89.5223 2.06492 89.4391 2.17106 89.3924 2.29436L87.6714 6.62819C87.6263 6.74435 87.5491 6.84531 87.4489 6.91931C87.3486 6.99332 87.2294 7.03732 87.1052 7.0462L82.4908 7.34567C81.8943 7.38439 81.6547 8.1549 82.1189 8.54132L85.6523 11.4822C85.7508 11.5652 85.8238 11.6743 85.863 11.797C85.9023 11.9197 85.9061 12.0509 85.874 12.1756L84.8182 16.3288C84.6389 17.0343 85.3893 17.6038 85.9937 17.2209L89.6554 14.901C89.7584 14.8354 89.8779 14.8006 90 14.8006C90.1221 14.8006 90.2416 14.8354 90.3446 14.901Z" fill="#909090"/>
</svg>
