<svg width="30" height="30" viewBox="0 0 30 30" fill="none" xmlns="http://www.w3.org/2000/svg">
<path fill-rule="evenodd" clip-rule="evenodd" d="M6.12633 16.4688H13.2079C13.5063 16.4687 13.7926 16.3502 14.0037 16.1393C14.2148 15.9283 14.3336 15.6422 14.3339 15.3438V6.12656C14.3337 5.82795 14.215 5.54162 14.0039 5.33042C13.7928 5.11921 13.5065 5.00038 13.2079 5H6.12633C5.82767 5.00035 5.54136 5.11916 5.3302 5.33037C5.11904 5.54157 5.00029 5.82791 5 6.12656V15.3438C5.00036 15.6422 5.11918 15.9284 5.33036 16.1393C5.54154 16.3502 5.82785 16.4687 6.12633 16.4688ZM24.0727 5H16.5912C16.3454 5.00033 16.1097 5.09814 15.9359 5.27198C15.7621 5.44582 15.6643 5.68149 15.6641 5.9273V11.2734C15.6642 11.5195 15.7618 11.7555 15.9355 11.9297C16.1093 12.104 16.345 12.2023 16.5911 12.2031H24.0727C24.3188 12.2024 24.5546 12.1041 24.7284 11.9299C24.9022 11.7556 24.9999 11.5196 25 11.2734V5.9273C24.9997 5.68146 24.9019 5.44577 24.728 5.27193C24.5542 5.09809 24.3185 5.0003 24.0727 5ZM23.8734 13.5312H16.7921C16.4936 13.5313 16.2073 13.6498 15.9961 13.8607C15.7849 14.0716 15.666 14.3578 15.6655 14.6562V23.875C15.666 24.1735 15.7849 24.4596 15.9961 24.6705C16.2073 24.8814 16.4936 24.9999 16.7921 25H23.8734C24.1719 25 24.4582 24.8815 24.6695 24.6706C24.8807 24.4597 24.9996 24.1735 25 23.875V14.6562C24.9996 14.3577 24.8807 14.0716 24.6695 13.8607C24.4583 13.6497 24.1719 13.5313 23.8734 13.5312ZM13.4086 17.7969H5.92707C5.68099 17.7977 5.44526 17.896 5.2715 18.0702C5.09774 18.2445 5.00011 18.4805 5 18.7266V24.0742C5.00029 24.3199 5.0981 24.5554 5.27193 24.729C5.44576 24.9026 5.6814 25.0001 5.92707 25H13.4086C13.6543 25.0002 13.89 24.9027 14.0639 24.7291C14.2378 24.5555 14.3357 24.3199 14.3359 24.0742V18.7266C14.3359 18.4804 14.2382 18.2443 14.0644 18.0701C13.8905 17.8958 13.6547 17.7976 13.4086 17.7969Z" fill="#909090"/>
</svg>
