<svg width="44" height="45" viewBox="0 0 44 45" fill="none" xmlns="http://www.w3.org/2000/svg">
<rect x="0.5" y="1" width="43" height="43" rx="9.5" fill="white" stroke="#029FAE"/>
<path d="M12.75 13.75L14.83 14.11L15.793 25.583C15.83 26.0345 16.0358 26.4554 16.3695 26.7618C16.7031 27.0682 17.14 27.2375 17.593 27.236H28.503C28.9367 27.2365 29.3561 27.0803 29.6838 26.7963C30.0116 26.5122 30.2258 26.1194 30.287 25.69L31.237 19.132C31.2623 18.9576 31.253 18.7799 31.2096 18.6091C31.1662 18.4383 31.0896 18.2777 30.9841 18.1365C30.8786 17.9954 30.7463 17.8764 30.5947 17.7864C30.4432 17.6964 30.2754 17.6371 30.101 17.612C30.037 17.605 15.164 17.6 15.164 17.6" stroke="#029FAE" stroke-width="1.5" stroke-linecap="round" stroke-linejoin="round"/>
<path d="M24.125 21.295H26.898" stroke="#029FAE" stroke-width="1.5" stroke-linecap="round" stroke-linejoin="round"/>
<path fill-rule="evenodd" clip-rule="evenodd" d="M17.1545 30.703C17.2278 30.6999 17.301 30.7116 17.3697 30.7375C17.4384 30.7634 17.5011 30.8029 17.5541 30.8537C17.6071 30.9045 17.6493 30.9655 17.6781 31.033C17.7069 31.1005 17.7218 31.1731 17.7218 31.2465C17.7218 31.3199 17.7069 31.3926 17.6781 31.4601C17.6493 31.5276 17.6071 31.5886 17.5541 31.6393C17.5011 31.6901 17.4384 31.7296 17.3697 31.7555C17.301 31.7814 17.2278 31.7932 17.1545 31.79C17.0144 31.784 16.882 31.7241 16.785 31.6228C16.6879 31.5216 16.6338 31.3868 16.6338 31.2465C16.6338 31.1063 16.6879 30.9715 16.785 30.8702C16.882 30.7689 17.0144 30.709 17.1545 30.703Z" fill="#029FAE" stroke="#029FAE" stroke-width="1.5" stroke-linecap="round" stroke-linejoin="round"/>
<path fill-rule="evenodd" clip-rule="evenodd" d="M28.4346 30.703C28.5792 30.703 28.7178 30.7604 28.82 30.8626C28.9222 30.9648 28.9796 31.1035 28.9796 31.248C28.9796 31.3925 28.9222 31.5312 28.82 31.6334C28.7178 31.7356 28.5792 31.793 28.4346 31.793C28.2901 31.793 28.1515 31.7356 28.0493 31.6334C27.9471 31.5312 27.8896 31.3925 27.8896 31.248C27.8896 31.1035 27.9471 30.9648 28.0493 30.8626C28.1515 30.7604 28.2901 30.703 28.4346 30.703Z" fill="#029FAE" stroke="#029FAE" stroke-width="1.5" stroke-linecap="round" stroke-linejoin="round"/>
</svg>
