<svg width="44" height="45" viewBox="0 0 44 45" fill="none" xmlns="http://www.w3.org/2000/svg">
<rect x="0.5" y="1" width="43" height="43" rx="9.5" fill="white" stroke="#029FAE"/>
<path d="M16.4688 13.9176C17.2156 13.6774 18.0032 13.5986 18.7803 13.6823L19.1123 13.7281C19.9961 13.8774 20.8327 14.2368 21.5508 14.777C21.8213 14.9804 22.1947 14.9779 22.4619 14.7701C23.7228 13.7901 25.5483 13.4089 27.1963 13.8248L27.5225 13.9186C30.648 14.931 31.9425 18.3195 31.0645 21.5338L30.9727 21.8444L30.9717 21.8483C30.154 24.462 27.8789 26.8519 25.7051 28.6295C24.6319 29.5071 23.6109 30.2133 22.8584 30.6998C22.5041 30.9289 22.2095 31.1076 21.999 31.233C21.7905 31.1095 21.5005 30.9333 21.1514 30.7086C20.4038 30.2274 19.3887 29.5272 18.3193 28.6539C16.2225 26.9416 14.0183 24.6436 13.1123 22.0914L13.0293 21.8434C11.9766 18.5381 13.244 14.9631 16.4697 13.9186L16.4688 13.9176Z" stroke="#029FAE" stroke-width="1.5" stroke-linecap="round" stroke-linejoin="round"/>
</svg>
